G04 #@! TF.FileFunction,Copper,L2,Bot,Signal*
%FSLAX46Y46*%
G04 Gerber Fmt 4.6, Leading zero omitted, Abs format (unit mm)*
G04 Created by KiCad (PCBNEW (2015-01-16 BZR 5376)-product) date 29.3.2015 17:27:47*
%MOMM*%
G01*
G04 APERTURE LIST*
%ADD10C,0.100000*%
%ADD11R,1.600000X1.600000*%
%ADD12O,1.600000X1.600000*%
%ADD13O,2.200000X1.600000*%
%ADD14R,2.200000X1.600000*%
%ADD15C,3.200000*%
%ADD16O,1.250000X2.500000*%
%ADD17O,1.000000X2.200000*%
%ADD18R,1.000000X2.200000*%
%ADD19O,2.500000X1.700000*%
%ADD20C,1.200000*%
%ADD21C,0.700000*%
%ADD22C,0.600000*%
%ADD23C,0.800000*%
%ADD24C,0.400000*%
%ADD25C,1.600000*%
G04 APERTURE END LIST*
D10*
D11*
X248960000Y-66480000D03*
D12*
X248960000Y-69020000D03*
X248960000Y-71560000D03*
D11*
X246420000Y-66480000D03*
D12*
X246420000Y-69020000D03*
X246420000Y-71560000D03*
D11*
X243880000Y-66480000D03*
D12*
X243880000Y-69020000D03*
X243880000Y-71560000D03*
D11*
X241340000Y-66480000D03*
D12*
X241340000Y-69020000D03*
X241340000Y-71560000D03*
D11*
X238800000Y-66480000D03*
D12*
X238800000Y-69020000D03*
X238800000Y-71560000D03*
D11*
X236260000Y-66480000D03*
D12*
X236260000Y-69020000D03*
X236260000Y-71560000D03*
D11*
X233720000Y-66480000D03*
D12*
X233720000Y-69020000D03*
X233720000Y-71560000D03*
D11*
X231180000Y-66480000D03*
D12*
X231180000Y-69020000D03*
X231180000Y-71560000D03*
D11*
X228640000Y-66480000D03*
D12*
X228640000Y-69020000D03*
X228640000Y-71560000D03*
D11*
X226100000Y-66480000D03*
D12*
X226100000Y-69020000D03*
X226100000Y-71560000D03*
D11*
X223560000Y-66480000D03*
D12*
X223560000Y-69020000D03*
X223560000Y-71560000D03*
D11*
X221020000Y-66480000D03*
D12*
X221020000Y-69020000D03*
X221020000Y-71560000D03*
D11*
X218480000Y-66480000D03*
D12*
X218480000Y-69020000D03*
X218480000Y-71560000D03*
D11*
X215940000Y-66480000D03*
D12*
X215940000Y-69020000D03*
X215940000Y-71560000D03*
D11*
X213400000Y-66480000D03*
D12*
X213400000Y-69020000D03*
X213400000Y-71560000D03*
D11*
X210860000Y-66480000D03*
D12*
X210860000Y-69020000D03*
X210860000Y-71560000D03*
D13*
X253430000Y-106240000D03*
D14*
X253430000Y-91000000D03*
D13*
X253430000Y-93540000D03*
X253430000Y-96080000D03*
X253430000Y-98620000D03*
X253430000Y-101160000D03*
X253430000Y-103700000D03*
X206570000Y-106240000D03*
D14*
X206570000Y-91000000D03*
D13*
X206570000Y-93540000D03*
X206570000Y-96080000D03*
X206570000Y-98620000D03*
X206570000Y-101160000D03*
X206570000Y-103700000D03*
D15*
X235000000Y-85540000D03*
X235000000Y-80460000D03*
X252770000Y-72068000D03*
X252770000Y-66988000D03*
D16*
X246420000Y-97595000D03*
X243880000Y-97595000D03*
X241340000Y-97595000D03*
X238800000Y-97595000D03*
X236260000Y-97595000D03*
X233720000Y-97595000D03*
X231180000Y-97595000D03*
X228640000Y-97595000D03*
X226100000Y-97595000D03*
X223560000Y-97595000D03*
X221020000Y-97595000D03*
X218480000Y-97595000D03*
X215940000Y-97595000D03*
X213400000Y-97595000D03*
X213400000Y-105215000D03*
X215940000Y-105215000D03*
X218480000Y-105215000D03*
X221020000Y-105215000D03*
X223560000Y-105215000D03*
X226100000Y-105215000D03*
X228640000Y-105215000D03*
X231180000Y-105215000D03*
X233720000Y-105215000D03*
X236260000Y-105215000D03*
X238800000Y-105215000D03*
X241340000Y-105215000D03*
X243880000Y-105215000D03*
X246420000Y-105215000D03*
D17*
X209365000Y-85000000D03*
X208095000Y-85000000D03*
D18*
X210635000Y-85000000D03*
D17*
X211905000Y-85000000D03*
X219365000Y-85000000D03*
X218095000Y-85000000D03*
D18*
X220635000Y-85000000D03*
D17*
X221905000Y-85000000D03*
X229365000Y-85000000D03*
X228095000Y-85000000D03*
D18*
X230635000Y-85000000D03*
D17*
X231905000Y-85000000D03*
X239365000Y-85000000D03*
X238095000Y-85000000D03*
D18*
X240635000Y-85000000D03*
D17*
X241905000Y-85000000D03*
X249365000Y-85000000D03*
X248095000Y-85000000D03*
D18*
X250635000Y-85000000D03*
D17*
X251905000Y-85000000D03*
D19*
X245150000Y-89495000D03*
X245150000Y-92995000D03*
D20*
X248960000Y-73465000D03*
X246420000Y-73465000D03*
X243880000Y-73465000D03*
X241340000Y-73465000D03*
X238800000Y-73465000D03*
X236260000Y-73465000D03*
X233720000Y-73465000D03*
X231180000Y-73465000D03*
X228640000Y-73465000D03*
X226100000Y-73465000D03*
X223560000Y-73465000D03*
X221020000Y-73465000D03*
X218480000Y-73465000D03*
X215940000Y-73465000D03*
X213400000Y-73465000D03*
X210860000Y-73465000D03*
X232958000Y-108390000D03*
D21*
X248452000Y-96452000D03*
X211622000Y-95690000D03*
X218480000Y-99754000D03*
X221020000Y-112962000D03*
X221020000Y-110168000D03*
X238800000Y-102040000D03*
X241340000Y-101024000D03*
D22*
X230635000Y-82355000D02*
X230545000Y-82355000D01*
D23*
X210860000Y-82355000D02*
X221020000Y-82355000D01*
X221020000Y-82355000D02*
X226100000Y-82355000D01*
X226100000Y-82355000D02*
X230545000Y-82355000D01*
X237200000Y-82355000D02*
X240705000Y-82355000D01*
X236600000Y-83000000D02*
X237200000Y-82355000D01*
X233400000Y-83000000D02*
X236600000Y-83000000D01*
X232800000Y-82355000D02*
X233400000Y-83000000D01*
X230545000Y-82355000D02*
X232800000Y-82355000D01*
D22*
X250635000Y-82355000D02*
X250865000Y-82355000D01*
D23*
X250865000Y-82355000D02*
X249595000Y-82355000D01*
D22*
X240635000Y-82355000D02*
X240705000Y-82355000D01*
D23*
X240705000Y-82355000D02*
X245150000Y-82355000D01*
X245150000Y-82355000D02*
X249595000Y-82355000D01*
D24*
X226100000Y-93150000D02*
X226100000Y-82355000D01*
D22*
X220635000Y-82355000D02*
X221020000Y-82355000D01*
X230635000Y-85000000D02*
X230635000Y-82355000D01*
D24*
X227370000Y-103310000D02*
X227370000Y-94420000D01*
X227370000Y-94420000D02*
X226100000Y-93150000D01*
X228640000Y-105215000D02*
X228640000Y-104326000D01*
X228640000Y-104326000D02*
X227624000Y-103310000D01*
X224576000Y-103310000D02*
X223560000Y-104326000D01*
X227624000Y-103310000D02*
X227370000Y-103310000D01*
X227370000Y-103310000D02*
X224576000Y-103310000D01*
X223560000Y-104326000D02*
X223560000Y-105215000D01*
D23*
X245150000Y-89495000D02*
X245150000Y-82355000D01*
D25*
X252770000Y-72068000D02*
X250865000Y-72068000D01*
X250865000Y-72068000D02*
X250992000Y-72068000D01*
X250992000Y-72068000D02*
X250865000Y-72068000D01*
X252770000Y-72068000D02*
X252262000Y-72068000D01*
X250865000Y-73465000D02*
X250865000Y-72068000D01*
X250865000Y-72068000D02*
X250865000Y-69655000D01*
X250865000Y-69655000D02*
X250230000Y-69020000D01*
X250230000Y-69020000D02*
X248960000Y-69020000D01*
D23*
X250865000Y-82355000D02*
X250865000Y-73465000D01*
D22*
X250635000Y-85000000D02*
X250635000Y-82355000D01*
D23*
X252770000Y-82355000D02*
X250865000Y-82355000D01*
X254100000Y-83685000D02*
X252770000Y-82355000D01*
X254100000Y-90800000D02*
X254100000Y-83685000D01*
D22*
X210635000Y-85000000D02*
X210635000Y-82355000D01*
X220635000Y-85000000D02*
X220635000Y-82355000D01*
X240635000Y-85000000D02*
X240635000Y-82355000D01*
X248960000Y-73465000D02*
X250865000Y-73465000D01*
X250865000Y-73465000D02*
X250865000Y-73465000D01*
X248960000Y-73465000D02*
X246420000Y-73465000D01*
X246420000Y-73465000D02*
X243880000Y-73465000D01*
X243880000Y-73465000D02*
X241340000Y-73465000D01*
X241340000Y-73465000D02*
X238800000Y-73465000D01*
X238800000Y-73465000D02*
X236260000Y-73465000D01*
X236260000Y-73465000D02*
X233720000Y-73465000D01*
X233720000Y-73465000D02*
X231180000Y-73465000D01*
X231180000Y-73465000D02*
X228640000Y-73465000D01*
X228640000Y-73465000D02*
X226100000Y-73465000D01*
X226100000Y-73465000D02*
X223560000Y-73465000D01*
X223560000Y-73465000D02*
X221020000Y-73465000D01*
X221020000Y-73465000D02*
X218480000Y-73465000D01*
X218480000Y-73465000D02*
X215940000Y-73465000D01*
X215940000Y-73465000D02*
X213400000Y-73465000D01*
X210860000Y-73465000D02*
X213400000Y-73465000D01*
D25*
X246420000Y-69020000D02*
X248960000Y-69020000D01*
X243880000Y-69020000D02*
X246420000Y-69020000D01*
X241340000Y-69020000D02*
X243880000Y-69020000D01*
X238800000Y-69020000D02*
X241340000Y-69020000D01*
X236260000Y-69020000D02*
X238800000Y-69020000D01*
X233720000Y-69020000D02*
X236260000Y-69020000D01*
X231180000Y-69020000D02*
X233720000Y-69020000D01*
X228640000Y-69020000D02*
X231180000Y-69020000D01*
X226100000Y-69020000D02*
X228640000Y-69020000D01*
X223560000Y-69020000D02*
X226100000Y-69020000D01*
X221020000Y-69020000D02*
X223560000Y-69020000D01*
X218480000Y-69020000D02*
X221020000Y-69020000D01*
X215940000Y-69020000D02*
X218480000Y-69020000D01*
X213400000Y-69020000D02*
X215940000Y-69020000D01*
X210860000Y-69020000D02*
X213400000Y-69020000D01*
D23*
X205930630Y-83474370D02*
X207050000Y-82355000D01*
X207050000Y-82355000D02*
X210860000Y-82355000D01*
X205900000Y-90300000D02*
X205900000Y-86685000D01*
X205900000Y-86685000D02*
X205900000Y-83505000D01*
X206270000Y-91000000D02*
X205900000Y-90300000D01*
X209955000Y-66480000D02*
X210860000Y-66480000D01*
D22*
X207050000Y-69385000D02*
X209056600Y-68766000D01*
X209056600Y-68766000D02*
X209955000Y-66480000D01*
D24*
X207050000Y-79815000D02*
X207050000Y-69385000D01*
X207685000Y-80450000D02*
X207050000Y-79815000D01*
X234990000Y-80450000D02*
X207685000Y-80450000D01*
X243880000Y-105215000D02*
X243880000Y-102294000D01*
X245150000Y-101024000D02*
X245150000Y-92995000D01*
X243880000Y-102294000D02*
X245150000Y-101024000D01*
X207000000Y-106240000D02*
X209726000Y-106240000D01*
X232958000Y-110930000D02*
X232958000Y-108390000D01*
X232450000Y-111438000D02*
X232958000Y-110930000D01*
X223560000Y-111438000D02*
X232450000Y-111438000D01*
X222290000Y-110168000D02*
X223560000Y-111438000D01*
X222290000Y-109152000D02*
X222290000Y-110168000D01*
X221782000Y-108644000D02*
X222290000Y-109152000D01*
X212130000Y-108644000D02*
X221782000Y-108644000D01*
X209726000Y-106240000D02*
X212130000Y-108644000D01*
X243880000Y-105215000D02*
X243880000Y-108390000D01*
D22*
X207000000Y-106240000D02*
X207186000Y-106240000D01*
X253000000Y-108160000D02*
X253000000Y-106240000D01*
X252770000Y-108390000D02*
X253000000Y-108160000D01*
X232958000Y-108390000D02*
X243880000Y-108390000D01*
X243880000Y-108390000D02*
X252770000Y-108390000D01*
D25*
X248960000Y-66480000D02*
X252262000Y-66480000D01*
X252262000Y-66480000D02*
X252770000Y-66988000D01*
D23*
X246420000Y-66480000D02*
X248960000Y-66480000D01*
X243880000Y-66480000D02*
X246420000Y-66480000D01*
X241340000Y-66480000D02*
X243880000Y-66480000D01*
X238800000Y-66480000D02*
X241340000Y-66480000D01*
X236260000Y-66480000D02*
X238800000Y-66480000D01*
X233720000Y-66480000D02*
X236260000Y-66480000D01*
X231180000Y-66480000D02*
X233720000Y-66480000D01*
X228640000Y-66480000D02*
X231180000Y-66480000D01*
X226100000Y-66480000D02*
X228640000Y-66480000D01*
X223560000Y-66480000D02*
X226100000Y-66480000D01*
X221020000Y-66480000D02*
X223560000Y-66480000D01*
X218480000Y-66480000D02*
X221020000Y-66480000D01*
X215940000Y-66480000D02*
X218480000Y-66480000D01*
X213400000Y-66480000D02*
X215940000Y-66480000D01*
X210860000Y-66480000D02*
X213400000Y-66480000D01*
D24*
X242455000Y-92995000D02*
X235000000Y-85540000D01*
X245150000Y-92995000D02*
X243090000Y-92995000D01*
X243090000Y-92995000D02*
X242455000Y-92995000D01*
X246420000Y-105215000D02*
X247563000Y-105215000D01*
X247563000Y-105215000D02*
X248452000Y-104326000D01*
X248452000Y-104326000D02*
X248452000Y-96452000D01*
X213400000Y-105215000D02*
X212257000Y-105215000D01*
X211622000Y-104580000D02*
X211622000Y-95690000D01*
X212257000Y-105215000D02*
X211622000Y-104580000D01*
X218480000Y-105215000D02*
X218480000Y-99754000D01*
X221020000Y-110168000D02*
X221020000Y-112962000D01*
X238800000Y-105215000D02*
X238800000Y-102040000D01*
X241340000Y-101024000D02*
X241340000Y-105215000D01*
G36*
X252890208Y-67002142D02*
X252784142Y-67108208D01*
X252770000Y-67094066D01*
X252755857Y-67108208D01*
X252649791Y-67002142D01*
X252663934Y-66988000D01*
X251183419Y-65507485D01*
X250829693Y-65670990D01*
X250473392Y-66513765D01*
X250466729Y-67428738D01*
X250571918Y-67688012D01*
X250365663Y-67646985D01*
X250460000Y-67419239D01*
X250460000Y-66730000D01*
X250460000Y-66230000D01*
X250460000Y-65540761D01*
X250353431Y-65283482D01*
X250156518Y-65086568D01*
X249899238Y-64980000D01*
X249620761Y-64980000D01*
X249210000Y-64980000D01*
X249035000Y-65155000D01*
X249035000Y-66405000D01*
X250285000Y-66405000D01*
X250460000Y-66230000D01*
X250460000Y-66730000D01*
X250285000Y-66555000D01*
X249035000Y-66555000D01*
X249035000Y-66575000D01*
X248885000Y-66575000D01*
X248885000Y-66555000D01*
X248885000Y-66405000D01*
X248885000Y-65155000D01*
X248710000Y-64980000D01*
X248299239Y-64980000D01*
X248020762Y-64980000D01*
X247763482Y-65086568D01*
X247690000Y-65160050D01*
X247616518Y-65086568D01*
X247359238Y-64980000D01*
X247080761Y-64980000D01*
X246670000Y-64980000D01*
X246495000Y-65155000D01*
X246495000Y-66405000D01*
X247635000Y-66405000D01*
X247745000Y-66405000D01*
X248885000Y-66405000D01*
X248885000Y-66555000D01*
X247745000Y-66555000D01*
X247635000Y-66555000D01*
X246495000Y-66555000D01*
X246495000Y-66575000D01*
X246345000Y-66575000D01*
X246345000Y-66555000D01*
X246345000Y-66405000D01*
X246345000Y-65155000D01*
X246170000Y-64980000D01*
X245759239Y-64980000D01*
X245480762Y-64980000D01*
X245223482Y-65086568D01*
X245150000Y-65160050D01*
X245076518Y-65086568D01*
X244819238Y-64980000D01*
X244540761Y-64980000D01*
X244130000Y-64980000D01*
X243955000Y-65155000D01*
X243955000Y-66405000D01*
X245095000Y-66405000D01*
X245205000Y-66405000D01*
X246345000Y-66405000D01*
X246345000Y-66555000D01*
X245205000Y-66555000D01*
X245095000Y-66555000D01*
X243955000Y-66555000D01*
X243955000Y-66575000D01*
X243805000Y-66575000D01*
X243805000Y-66555000D01*
X243805000Y-66405000D01*
X243805000Y-65155000D01*
X243630000Y-64980000D01*
X243219239Y-64980000D01*
X242940762Y-64980000D01*
X242683482Y-65086568D01*
X242610000Y-65160050D01*
X242536518Y-65086568D01*
X242279238Y-64980000D01*
X242000761Y-64980000D01*
X241590000Y-64980000D01*
X241415000Y-65155000D01*
X241415000Y-66405000D01*
X242555000Y-66405000D01*
X242665000Y-66405000D01*
X243805000Y-66405000D01*
X243805000Y-66555000D01*
X242665000Y-66555000D01*
X242555000Y-66555000D01*
X241415000Y-66555000D01*
X241415000Y-66575000D01*
X241265000Y-66575000D01*
X241265000Y-66555000D01*
X241265000Y-66405000D01*
X241265000Y-65155000D01*
X241090000Y-64980000D01*
X240679239Y-64980000D01*
X240400762Y-64980000D01*
X240143482Y-65086568D01*
X240070000Y-65160050D01*
X239996518Y-65086568D01*
X239739238Y-64980000D01*
X239460761Y-64980000D01*
X239050000Y-64980000D01*
X238875000Y-65155000D01*
X238875000Y-66405000D01*
X240015000Y-66405000D01*
X240125000Y-66405000D01*
X241265000Y-66405000D01*
X241265000Y-66555000D01*
X240125000Y-66555000D01*
X240015000Y-66555000D01*
X238875000Y-66555000D01*
X238875000Y-66575000D01*
X238725000Y-66575000D01*
X238725000Y-66555000D01*
X238725000Y-66405000D01*
X238725000Y-65155000D01*
X238550000Y-64980000D01*
X238139239Y-64980000D01*
X237860762Y-64980000D01*
X237603482Y-65086568D01*
X237530000Y-65160050D01*
X237456518Y-65086568D01*
X237199238Y-64980000D01*
X236920761Y-64980000D01*
X236510000Y-64980000D01*
X236335000Y-65155000D01*
X236335000Y-66405000D01*
X237475000Y-66405000D01*
X237585000Y-66405000D01*
X238725000Y-66405000D01*
X238725000Y-66555000D01*
X237585000Y-66555000D01*
X237475000Y-66555000D01*
X236335000Y-66555000D01*
X236335000Y-66575000D01*
X236185000Y-66575000D01*
X236185000Y-66555000D01*
X236185000Y-66405000D01*
X236185000Y-65155000D01*
X236010000Y-64980000D01*
X235599239Y-64980000D01*
X235320762Y-64980000D01*
X235063482Y-65086568D01*
X234990000Y-65160050D01*
X234916518Y-65086568D01*
X234659238Y-64980000D01*
X234380761Y-64980000D01*
X233970000Y-64980000D01*
X233795000Y-65155000D01*
X233795000Y-66405000D01*
X234935000Y-66405000D01*
X235045000Y-66405000D01*
X236185000Y-66405000D01*
X236185000Y-66555000D01*
X235045000Y-66555000D01*
X234935000Y-66555000D01*
X233795000Y-66555000D01*
X233795000Y-66575000D01*
X233645000Y-66575000D01*
X233645000Y-66555000D01*
X233645000Y-66405000D01*
X233645000Y-65155000D01*
X233470000Y-64980000D01*
X233059239Y-64980000D01*
X232780762Y-64980000D01*
X232523482Y-65086568D01*
X232450000Y-65160050D01*
X232376518Y-65086568D01*
X232119238Y-64980000D01*
X231840761Y-64980000D01*
X231430000Y-64980000D01*
X231255000Y-65155000D01*
X231255000Y-66405000D01*
X232395000Y-66405000D01*
X232505000Y-66405000D01*
X233645000Y-66405000D01*
X233645000Y-66555000D01*
X232505000Y-66555000D01*
X232395000Y-66555000D01*
X231255000Y-66555000D01*
X231255000Y-66575000D01*
X231105000Y-66575000D01*
X231105000Y-66555000D01*
X231105000Y-66405000D01*
X231105000Y-65155000D01*
X230930000Y-64980000D01*
X230519239Y-64980000D01*
X230240762Y-64980000D01*
X229983482Y-65086568D01*
X229910000Y-65160050D01*
X229836518Y-65086568D01*
X229579238Y-64980000D01*
X229300761Y-64980000D01*
X228890000Y-64980000D01*
X228715000Y-65155000D01*
X228715000Y-66405000D01*
X229855000Y-66405000D01*
X229965000Y-66405000D01*
X231105000Y-66405000D01*
X231105000Y-66555000D01*
X229965000Y-66555000D01*
X229855000Y-66555000D01*
X228715000Y-66555000D01*
X228715000Y-66575000D01*
X228565000Y-66575000D01*
X228565000Y-66555000D01*
X228565000Y-66405000D01*
X228565000Y-65155000D01*
X228390000Y-64980000D01*
X227979239Y-64980000D01*
X227700762Y-64980000D01*
X227443482Y-65086568D01*
X227370000Y-65160050D01*
X227296518Y-65086568D01*
X227039238Y-64980000D01*
X226760761Y-64980000D01*
X226350000Y-64980000D01*
X226175000Y-65155000D01*
X226175000Y-66405000D01*
X227315000Y-66405000D01*
X227425000Y-66405000D01*
X228565000Y-66405000D01*
X228565000Y-66555000D01*
X227425000Y-66555000D01*
X227315000Y-66555000D01*
X226175000Y-66555000D01*
X226175000Y-66575000D01*
X226025000Y-66575000D01*
X226025000Y-66555000D01*
X226025000Y-66405000D01*
X226025000Y-65155000D01*
X225850000Y-64980000D01*
X225439239Y-64980000D01*
X225160762Y-64980000D01*
X224903482Y-65086568D01*
X224830000Y-65160050D01*
X224756518Y-65086568D01*
X224499238Y-64980000D01*
X224220761Y-64980000D01*
X223810000Y-64980000D01*
X223635000Y-65155000D01*
X223635000Y-66405000D01*
X224775000Y-66405000D01*
X224885000Y-66405000D01*
X226025000Y-66405000D01*
X226025000Y-66555000D01*
X224885000Y-66555000D01*
X224775000Y-66555000D01*
X223635000Y-66555000D01*
X223635000Y-66575000D01*
X223485000Y-66575000D01*
X223485000Y-66555000D01*
X223485000Y-66405000D01*
X223485000Y-65155000D01*
X223310000Y-64980000D01*
X222899239Y-64980000D01*
X222620762Y-64980000D01*
X222363482Y-65086568D01*
X222290000Y-65160050D01*
X222216518Y-65086568D01*
X221959238Y-64980000D01*
X221680761Y-64980000D01*
X221270000Y-64980000D01*
X221095000Y-65155000D01*
X221095000Y-66405000D01*
X222235000Y-66405000D01*
X222345000Y-66405000D01*
X223485000Y-66405000D01*
X223485000Y-66555000D01*
X222345000Y-66555000D01*
X222235000Y-66555000D01*
X221095000Y-66555000D01*
X221095000Y-66575000D01*
X220945000Y-66575000D01*
X220945000Y-66555000D01*
X220945000Y-66405000D01*
X220945000Y-65155000D01*
X220770000Y-64980000D01*
X220359239Y-64980000D01*
X220080762Y-64980000D01*
X219823482Y-65086568D01*
X219750000Y-65160050D01*
X219676518Y-65086568D01*
X219419238Y-64980000D01*
X219140761Y-64980000D01*
X218730000Y-64980000D01*
X218555000Y-65155000D01*
X218555000Y-66405000D01*
X219695000Y-66405000D01*
X219805000Y-66405000D01*
X220945000Y-66405000D01*
X220945000Y-66555000D01*
X219805000Y-66555000D01*
X219695000Y-66555000D01*
X218555000Y-66555000D01*
X218555000Y-66575000D01*
X218405000Y-66575000D01*
X218405000Y-66555000D01*
X218405000Y-66405000D01*
X218405000Y-65155000D01*
X218230000Y-64980000D01*
X217819239Y-64980000D01*
X217540762Y-64980000D01*
X217283482Y-65086568D01*
X217210000Y-65160050D01*
X217136518Y-65086568D01*
X216879238Y-64980000D01*
X216600761Y-64980000D01*
X216190000Y-64980000D01*
X216015000Y-65155000D01*
X216015000Y-66405000D01*
X217155000Y-66405000D01*
X217265000Y-66405000D01*
X218405000Y-66405000D01*
X218405000Y-66555000D01*
X217265000Y-66555000D01*
X217155000Y-66555000D01*
X216015000Y-66555000D01*
X216015000Y-66575000D01*
X215865000Y-66575000D01*
X215865000Y-66555000D01*
X215865000Y-66405000D01*
X215865000Y-65155000D01*
X215690000Y-64980000D01*
X215279239Y-64980000D01*
X215000762Y-64980000D01*
X214743482Y-65086568D01*
X214670000Y-65160050D01*
X214596518Y-65086568D01*
X214339238Y-64980000D01*
X214060761Y-64980000D01*
X213650000Y-64980000D01*
X213475000Y-65155000D01*
X213475000Y-66405000D01*
X214615000Y-66405000D01*
X214725000Y-66405000D01*
X215865000Y-66405000D01*
X215865000Y-66555000D01*
X214725000Y-66555000D01*
X214615000Y-66555000D01*
X213475000Y-66555000D01*
X213475000Y-66575000D01*
X213325000Y-66575000D01*
X213325000Y-66555000D01*
X213325000Y-66405000D01*
X213325000Y-65155000D01*
X213150000Y-64980000D01*
X212739239Y-64980000D01*
X212460762Y-64980000D01*
X212203482Y-65086568D01*
X212130000Y-65160050D01*
X212056518Y-65086568D01*
X211799238Y-64980000D01*
X211520761Y-64980000D01*
X211110000Y-64980000D01*
X210935000Y-65155000D01*
X210935000Y-66405000D01*
X212075000Y-66405000D01*
X212185000Y-66405000D01*
X213325000Y-66405000D01*
X213325000Y-66555000D01*
X212185000Y-66555000D01*
X212075000Y-66555000D01*
X210935000Y-66555000D01*
X210935000Y-66575000D01*
X210785000Y-66575000D01*
X210785000Y-66555000D01*
X210785000Y-66405000D01*
X210785000Y-65155000D01*
X210610000Y-64980000D01*
X210199239Y-64980000D01*
X209920762Y-64980000D01*
X209663482Y-65086568D01*
X209466569Y-65283482D01*
X209360000Y-65540761D01*
X209360000Y-66230000D01*
X209535000Y-66405000D01*
X210785000Y-66405000D01*
X210785000Y-66555000D01*
X209535000Y-66555000D01*
X209360000Y-66730000D01*
X209360000Y-67419239D01*
X209466569Y-67676518D01*
X209663482Y-67873432D01*
X209910358Y-67975690D01*
X209870051Y-68002623D01*
X209566569Y-68456815D01*
X209460000Y-68992572D01*
X209460000Y-69020000D01*
X209460000Y-69047428D01*
X209566569Y-69583185D01*
X209870051Y-70037377D01*
X210248127Y-70290000D01*
X209870051Y-70542623D01*
X209566569Y-70996815D01*
X209460000Y-71532572D01*
X209460000Y-71587428D01*
X209566569Y-72123185D01*
X209870051Y-72577377D01*
X209978227Y-72649658D01*
X209843283Y-72784367D01*
X209660209Y-73225258D01*
X209659793Y-73702647D01*
X209842097Y-74143857D01*
X210179367Y-74481717D01*
X210620258Y-74664791D01*
X211097647Y-74665207D01*
X211538857Y-74482903D01*
X211656966Y-74365000D01*
X212602853Y-74365000D01*
X212719367Y-74481717D01*
X213160258Y-74664791D01*
X213637647Y-74665207D01*
X214078857Y-74482903D01*
X214196966Y-74365000D01*
X215142853Y-74365000D01*
X215259367Y-74481717D01*
X215700258Y-74664791D01*
X216177647Y-74665207D01*
X216618857Y-74482903D01*
X216736966Y-74365000D01*
X217682853Y-74365000D01*
X217799367Y-74481717D01*
X218240258Y-74664791D01*
X218717647Y-74665207D01*
X219158857Y-74482903D01*
X219276966Y-74365000D01*
X220222853Y-74365000D01*
X220339367Y-74481717D01*
X220780258Y-74664791D01*
X221257647Y-74665207D01*
X221698857Y-74482903D01*
X221816966Y-74365000D01*
X222762853Y-74365000D01*
X222879367Y-74481717D01*
X223320258Y-74664791D01*
X223797647Y-74665207D01*
X224238857Y-74482903D01*
X224356966Y-74365000D01*
X225302853Y-74365000D01*
X225419367Y-74481717D01*
X225860258Y-74664791D01*
X226337647Y-74665207D01*
X226778857Y-74482903D01*
X226896966Y-74365000D01*
X227842853Y-74365000D01*
X227959367Y-74481717D01*
X228400258Y-74664791D01*
X228877647Y-74665207D01*
X229318857Y-74482903D01*
X229436966Y-74365000D01*
X230382853Y-74365000D01*
X230499367Y-74481717D01*
X230940258Y-74664791D01*
X231417647Y-74665207D01*
X231858857Y-74482903D01*
X231976966Y-74365000D01*
X232922853Y-74365000D01*
X233039367Y-74481717D01*
X233480258Y-74664791D01*
X233957647Y-74665207D01*
X234398857Y-74482903D01*
X234516966Y-74365000D01*
X235462853Y-74365000D01*
X235579367Y-74481717D01*
X236020258Y-74664791D01*
X236497647Y-74665207D01*
X236938857Y-74482903D01*
X237056966Y-74365000D01*
X238002853Y-74365000D01*
X238119367Y-74481717D01*
X238560258Y-74664791D01*
X239037647Y-74665207D01*
X239478857Y-74482903D01*
X239596966Y-74365000D01*
X240542853Y-74365000D01*
X240659367Y-74481717D01*
X241100258Y-74664791D01*
X241577647Y-74665207D01*
X242018857Y-74482903D01*
X242136966Y-74365000D01*
X243082853Y-74365000D01*
X243199367Y-74481717D01*
X243640258Y-74664791D01*
X244117647Y-74665207D01*
X244558857Y-74482903D01*
X244676966Y-74365000D01*
X245622853Y-74365000D01*
X245739367Y-74481717D01*
X246180258Y-74664791D01*
X246657647Y-74665207D01*
X247098857Y-74482903D01*
X247216966Y-74365000D01*
X248162853Y-74365000D01*
X248279367Y-74481717D01*
X248720258Y-74664791D01*
X249197647Y-74665207D01*
X249638857Y-74482903D01*
X249756966Y-74365000D01*
X249814948Y-74365000D01*
X249865000Y-74439906D01*
X249865000Y-81355000D01*
X249595000Y-81355000D01*
X245150000Y-81355000D01*
X240705000Y-81355000D01*
X237200000Y-81355000D01*
X237181999Y-81358580D01*
X237163879Y-81355652D01*
X237113391Y-81367605D01*
X237296608Y-80934235D01*
X237303271Y-80019262D01*
X236959282Y-79171388D01*
X236940307Y-79142990D01*
X236586581Y-78979485D01*
X236480515Y-79085551D01*
X236480515Y-78873419D01*
X236317010Y-78519693D01*
X235474235Y-78163392D01*
X234559262Y-78156729D01*
X233711388Y-78500718D01*
X233682990Y-78519693D01*
X233519485Y-78873419D01*
X235000000Y-80353934D01*
X236480515Y-78873419D01*
X236480515Y-79085551D01*
X235106066Y-80460000D01*
X235120208Y-80474142D01*
X235014142Y-80580208D01*
X235000000Y-80566066D01*
X234985857Y-80580208D01*
X234879791Y-80474142D01*
X234893934Y-80460000D01*
X233413419Y-78979485D01*
X233059693Y-79142990D01*
X232703392Y-79985765D01*
X232696729Y-80900738D01*
X232886090Y-81367482D01*
X232836121Y-81355652D01*
X232818000Y-81358580D01*
X232800000Y-81355000D01*
X230545000Y-81355000D01*
X226100000Y-81355000D01*
X221020000Y-81355000D01*
X210860000Y-81355000D01*
X209100277Y-81355000D01*
X209100277Y-66183137D01*
X208857205Y-65594857D01*
X208407511Y-65144377D01*
X207819656Y-64900278D01*
X207183137Y-64899723D01*
X206594857Y-65142795D01*
X206144377Y-65592489D01*
X205900278Y-66180344D01*
X205899723Y-66816863D01*
X206142795Y-67405143D01*
X206592489Y-67855623D01*
X207180344Y-68099722D01*
X207816863Y-68100277D01*
X208405143Y-67857205D01*
X208855623Y-67407511D01*
X209099722Y-66819656D01*
X209100277Y-66183137D01*
X209100277Y-81355000D01*
X207050000Y-81355000D01*
X206667317Y-81431120D01*
X206342893Y-81647893D01*
X205650000Y-82340786D01*
X205650000Y-66564017D01*
X205802587Y-65796909D01*
X206200856Y-65200856D01*
X206796909Y-64802587D01*
X207564017Y-64650000D01*
X250713854Y-64650000D01*
X251372829Y-65221111D01*
X251289485Y-65401419D01*
X252770000Y-66881934D01*
X252784142Y-66867791D01*
X252890208Y-66973857D01*
X252876066Y-66988000D01*
X252890208Y-67002142D01*
X252890208Y-67002142D01*
G37*
X252890208Y-67002142D02*
X252784142Y-67108208D01*
X252770000Y-67094066D01*
X252755857Y-67108208D01*
X252649791Y-67002142D01*
X252663934Y-66988000D01*
X251183419Y-65507485D01*
X250829693Y-65670990D01*
X250473392Y-66513765D01*
X250466729Y-67428738D01*
X250571918Y-67688012D01*
X250365663Y-67646985D01*
X250460000Y-67419239D01*
X250460000Y-66730000D01*
X250460000Y-66230000D01*
X250460000Y-65540761D01*
X250353431Y-65283482D01*
X250156518Y-65086568D01*
X249899238Y-64980000D01*
X249620761Y-64980000D01*
X249210000Y-64980000D01*
X249035000Y-65155000D01*
X249035000Y-66405000D01*
X250285000Y-66405000D01*
X250460000Y-66230000D01*
X250460000Y-66730000D01*
X250285000Y-66555000D01*
X249035000Y-66555000D01*
X249035000Y-66575000D01*
X248885000Y-66575000D01*
X248885000Y-66555000D01*
X248885000Y-66405000D01*
X248885000Y-65155000D01*
X248710000Y-64980000D01*
X248299239Y-64980000D01*
X248020762Y-64980000D01*
X247763482Y-65086568D01*
X247690000Y-65160050D01*
X247616518Y-65086568D01*
X247359238Y-64980000D01*
X247080761Y-64980000D01*
X246670000Y-64980000D01*
X246495000Y-65155000D01*
X246495000Y-66405000D01*
X247635000Y-66405000D01*
X247745000Y-66405000D01*
X248885000Y-66405000D01*
X248885000Y-66555000D01*
X247745000Y-66555000D01*
X247635000Y-66555000D01*
X246495000Y-66555000D01*
X246495000Y-66575000D01*
X246345000Y-66575000D01*
X246345000Y-66555000D01*
X246345000Y-66405000D01*
X246345000Y-65155000D01*
X246170000Y-64980000D01*
X245759239Y-64980000D01*
X245480762Y-64980000D01*
X245223482Y-65086568D01*
X245150000Y-65160050D01*
X245076518Y-65086568D01*
X244819238Y-64980000D01*
X244540761Y-64980000D01*
X244130000Y-64980000D01*
X243955000Y-65155000D01*
X243955000Y-66405000D01*
X245095000Y-66405000D01*
X245205000Y-66405000D01*
X246345000Y-66405000D01*
X246345000Y-66555000D01*
X245205000Y-66555000D01*
X245095000Y-66555000D01*
X243955000Y-66555000D01*
X243955000Y-66575000D01*
X243805000Y-66575000D01*
X243805000Y-66555000D01*
X243805000Y-66405000D01*
X243805000Y-65155000D01*
X243630000Y-64980000D01*
X243219239Y-64980000D01*
X242940762Y-64980000D01*
X242683482Y-65086568D01*
X242610000Y-65160050D01*
X242536518Y-65086568D01*
X242279238Y-64980000D01*
X242000761Y-64980000D01*
X241590000Y-64980000D01*
X241415000Y-65155000D01*
X241415000Y-66405000D01*
X242555000Y-66405000D01*
X242665000Y-66405000D01*
X243805000Y-66405000D01*
X243805000Y-66555000D01*
X242665000Y-66555000D01*
X242555000Y-66555000D01*
X241415000Y-66555000D01*
X241415000Y-66575000D01*
X241265000Y-66575000D01*
X241265000Y-66555000D01*
X241265000Y-66405000D01*
X241265000Y-65155000D01*
X241090000Y-64980000D01*
X240679239Y-64980000D01*
X240400762Y-64980000D01*
X240143482Y-65086568D01*
X240070000Y-65160050D01*
X239996518Y-65086568D01*
X239739238Y-64980000D01*
X239460761Y-64980000D01*
X239050000Y-64980000D01*
X238875000Y-65155000D01*
X238875000Y-66405000D01*
X240015000Y-66405000D01*
X240125000Y-66405000D01*
X241265000Y-66405000D01*
X241265000Y-66555000D01*
X240125000Y-66555000D01*
X240015000Y-66555000D01*
X238875000Y-66555000D01*
X238875000Y-66575000D01*
X238725000Y-66575000D01*
X238725000Y-66555000D01*
X238725000Y-66405000D01*
X238725000Y-65155000D01*
X238550000Y-64980000D01*
X238139239Y-64980000D01*
X237860762Y-64980000D01*
X237603482Y-65086568D01*
X237530000Y-65160050D01*
X237456518Y-65086568D01*
X237199238Y-64980000D01*
X236920761Y-64980000D01*
X236510000Y-64980000D01*
X236335000Y-65155000D01*
X236335000Y-66405000D01*
X237475000Y-66405000D01*
X237585000Y-66405000D01*
X238725000Y-66405000D01*
X238725000Y-66555000D01*
X237585000Y-66555000D01*
X237475000Y-66555000D01*
X236335000Y-66555000D01*
X236335000Y-66575000D01*
X236185000Y-66575000D01*
X236185000Y-66555000D01*
X236185000Y-66405000D01*
X236185000Y-65155000D01*
X236010000Y-64980000D01*
X235599239Y-64980000D01*
X235320762Y-64980000D01*
X235063482Y-65086568D01*
X234990000Y-65160050D01*
X234916518Y-65086568D01*
X234659238Y-64980000D01*
X234380761Y-64980000D01*
X233970000Y-64980000D01*
X233795000Y-65155000D01*
X233795000Y-66405000D01*
X234935000Y-66405000D01*
X235045000Y-66405000D01*
X236185000Y-66405000D01*
X236185000Y-66555000D01*
X235045000Y-66555000D01*
X234935000Y-66555000D01*
X233795000Y-66555000D01*
X233795000Y-66575000D01*
X233645000Y-66575000D01*
X233645000Y-66555000D01*
X233645000Y-66405000D01*
X233645000Y-65155000D01*
X233470000Y-64980000D01*
X233059239Y-64980000D01*
X232780762Y-64980000D01*
X232523482Y-65086568D01*
X232450000Y-65160050D01*
X232376518Y-65086568D01*
X232119238Y-64980000D01*
X231840761Y-64980000D01*
X231430000Y-64980000D01*
X231255000Y-65155000D01*
X231255000Y-66405000D01*
X232395000Y-66405000D01*
X232505000Y-66405000D01*
X233645000Y-66405000D01*
X233645000Y-66555000D01*
X232505000Y-66555000D01*
X232395000Y-66555000D01*
X231255000Y-66555000D01*
X231255000Y-66575000D01*
X231105000Y-66575000D01*
X231105000Y-66555000D01*
X231105000Y-66405000D01*
X231105000Y-65155000D01*
X230930000Y-64980000D01*
X230519239Y-64980000D01*
X230240762Y-64980000D01*
X229983482Y-65086568D01*
X229910000Y-65160050D01*
X229836518Y-65086568D01*
X229579238Y-64980000D01*
X229300761Y-64980000D01*
X228890000Y-64980000D01*
X228715000Y-65155000D01*
X228715000Y-66405000D01*
X229855000Y-66405000D01*
X229965000Y-66405000D01*
X231105000Y-66405000D01*
X231105000Y-66555000D01*
X229965000Y-66555000D01*
X229855000Y-66555000D01*
X228715000Y-66555000D01*
X228715000Y-66575000D01*
X228565000Y-66575000D01*
X228565000Y-66555000D01*
X228565000Y-66405000D01*
X228565000Y-65155000D01*
X228390000Y-64980000D01*
X227979239Y-64980000D01*
X227700762Y-64980000D01*
X227443482Y-65086568D01*
X227370000Y-65160050D01*
X227296518Y-65086568D01*
X227039238Y-64980000D01*
X226760761Y-64980000D01*
X226350000Y-64980000D01*
X226175000Y-65155000D01*
X226175000Y-66405000D01*
X227315000Y-66405000D01*
X227425000Y-66405000D01*
X228565000Y-66405000D01*
X228565000Y-66555000D01*
X227425000Y-66555000D01*
X227315000Y-66555000D01*
X226175000Y-66555000D01*
X226175000Y-66575000D01*
X226025000Y-66575000D01*
X226025000Y-66555000D01*
X226025000Y-66405000D01*
X226025000Y-65155000D01*
X225850000Y-64980000D01*
X225439239Y-64980000D01*
X225160762Y-64980000D01*
X224903482Y-65086568D01*
X224830000Y-65160050D01*
X224756518Y-65086568D01*
X224499238Y-64980000D01*
X224220761Y-64980000D01*
X223810000Y-64980000D01*
X223635000Y-65155000D01*
X223635000Y-66405000D01*
X224775000Y-66405000D01*
X224885000Y-66405000D01*
X226025000Y-66405000D01*
X226025000Y-66555000D01*
X224885000Y-66555000D01*
X224775000Y-66555000D01*
X223635000Y-66555000D01*
X223635000Y-66575000D01*
X223485000Y-66575000D01*
X223485000Y-66555000D01*
X223485000Y-66405000D01*
X223485000Y-65155000D01*
X223310000Y-64980000D01*
X222899239Y-64980000D01*
X222620762Y-64980000D01*
X222363482Y-65086568D01*
X222290000Y-65160050D01*
X222216518Y-65086568D01*
X221959238Y-64980000D01*
X221680761Y-64980000D01*
X221270000Y-64980000D01*
X221095000Y-65155000D01*
X221095000Y-66405000D01*
X222235000Y-66405000D01*
X222345000Y-66405000D01*
X223485000Y-66405000D01*
X223485000Y-66555000D01*
X222345000Y-66555000D01*
X222235000Y-66555000D01*
X221095000Y-66555000D01*
X221095000Y-66575000D01*
X220945000Y-66575000D01*
X220945000Y-66555000D01*
X220945000Y-66405000D01*
X220945000Y-65155000D01*
X220770000Y-64980000D01*
X220359239Y-64980000D01*
X220080762Y-64980000D01*
X219823482Y-65086568D01*
X219750000Y-65160050D01*
X219676518Y-65086568D01*
X219419238Y-64980000D01*
X219140761Y-64980000D01*
X218730000Y-64980000D01*
X218555000Y-65155000D01*
X218555000Y-66405000D01*
X219695000Y-66405000D01*
X219805000Y-66405000D01*
X220945000Y-66405000D01*
X220945000Y-66555000D01*
X219805000Y-66555000D01*
X219695000Y-66555000D01*
X218555000Y-66555000D01*
X218555000Y-66575000D01*
X218405000Y-66575000D01*
X218405000Y-66555000D01*
X218405000Y-66405000D01*
X218405000Y-65155000D01*
X218230000Y-64980000D01*
X217819239Y-64980000D01*
X217540762Y-64980000D01*
X217283482Y-65086568D01*
X217210000Y-65160050D01*
X217136518Y-65086568D01*
X216879238Y-64980000D01*
X216600761Y-64980000D01*
X216190000Y-64980000D01*
X216015000Y-65155000D01*
X216015000Y-66405000D01*
X217155000Y-66405000D01*
X217265000Y-66405000D01*
X218405000Y-66405000D01*
X218405000Y-66555000D01*
X217265000Y-66555000D01*
X217155000Y-66555000D01*
X216015000Y-66555000D01*
X216015000Y-66575000D01*
X215865000Y-66575000D01*
X215865000Y-66555000D01*
X215865000Y-66405000D01*
X215865000Y-65155000D01*
X215690000Y-64980000D01*
X215279239Y-64980000D01*
X215000762Y-64980000D01*
X214743482Y-65086568D01*
X214670000Y-65160050D01*
X214596518Y-65086568D01*
X214339238Y-64980000D01*
X214060761Y-64980000D01*
X213650000Y-64980000D01*
X213475000Y-65155000D01*
X213475000Y-66405000D01*
X214615000Y-66405000D01*
X214725000Y-66405000D01*
X215865000Y-66405000D01*
X215865000Y-66555000D01*
X214725000Y-66555000D01*
X214615000Y-66555000D01*
X213475000Y-66555000D01*
X213475000Y-66575000D01*
X213325000Y-66575000D01*
X213325000Y-66555000D01*
X213325000Y-66405000D01*
X213325000Y-65155000D01*
X213150000Y-64980000D01*
X212739239Y-64980000D01*
X212460762Y-64980000D01*
X212203482Y-65086568D01*
X212130000Y-65160050D01*
X212056518Y-65086568D01*
X211799238Y-64980000D01*
X211520761Y-64980000D01*
X211110000Y-64980000D01*
X210935000Y-65155000D01*
X210935000Y-66405000D01*
X212075000Y-66405000D01*
X212185000Y-66405000D01*
X213325000Y-66405000D01*
X213325000Y-66555000D01*
X212185000Y-66555000D01*
X212075000Y-66555000D01*
X210935000Y-66555000D01*
X210935000Y-66575000D01*
X210785000Y-66575000D01*
X210785000Y-66555000D01*
X210785000Y-66405000D01*
X210785000Y-65155000D01*
X210610000Y-64980000D01*
X210199239Y-64980000D01*
X209920762Y-64980000D01*
X209663482Y-65086568D01*
X209466569Y-65283482D01*
X209360000Y-65540761D01*
X209360000Y-66230000D01*
X209535000Y-66405000D01*
X210785000Y-66405000D01*
X210785000Y-66555000D01*
X209535000Y-66555000D01*
X209360000Y-66730000D01*
X209360000Y-67419239D01*
X209466569Y-67676518D01*
X209663482Y-67873432D01*
X209910358Y-67975690D01*
X209870051Y-68002623D01*
X209566569Y-68456815D01*
X209460000Y-68992572D01*
X209460000Y-69020000D01*
X209460000Y-69047428D01*
X209566569Y-69583185D01*
X209870051Y-70037377D01*
X210248127Y-70290000D01*
X209870051Y-70542623D01*
X209566569Y-70996815D01*
X209460000Y-71532572D01*
X209460000Y-71587428D01*
X209566569Y-72123185D01*
X209870051Y-72577377D01*
X209978227Y-72649658D01*
X209843283Y-72784367D01*
X209660209Y-73225258D01*
X209659793Y-73702647D01*
X209842097Y-74143857D01*
X210179367Y-74481717D01*
X210620258Y-74664791D01*
X211097647Y-74665207D01*
X211538857Y-74482903D01*
X211656966Y-74365000D01*
X212602853Y-74365000D01*
X212719367Y-74481717D01*
X213160258Y-74664791D01*
X213637647Y-74665207D01*
X214078857Y-74482903D01*
X214196966Y-74365000D01*
X215142853Y-74365000D01*
X215259367Y-74481717D01*
X215700258Y-74664791D01*
X216177647Y-74665207D01*
X216618857Y-74482903D01*
X216736966Y-74365000D01*
X217682853Y-74365000D01*
X217799367Y-74481717D01*
X218240258Y-74664791D01*
X218717647Y-74665207D01*
X219158857Y-74482903D01*
X219276966Y-74365000D01*
X220222853Y-74365000D01*
X220339367Y-74481717D01*
X220780258Y-74664791D01*
X221257647Y-74665207D01*
X221698857Y-74482903D01*
X221816966Y-74365000D01*
X222762853Y-74365000D01*
X222879367Y-74481717D01*
X223320258Y-74664791D01*
X223797647Y-74665207D01*
X224238857Y-74482903D01*
X224356966Y-74365000D01*
X225302853Y-74365000D01*
X225419367Y-74481717D01*
X225860258Y-74664791D01*
X226337647Y-74665207D01*
X226778857Y-74482903D01*
X226896966Y-74365000D01*
X227842853Y-74365000D01*
X227959367Y-74481717D01*
X228400258Y-74664791D01*
X228877647Y-74665207D01*
X229318857Y-74482903D01*
X229436966Y-74365000D01*
X230382853Y-74365000D01*
X230499367Y-74481717D01*
X230940258Y-74664791D01*
X231417647Y-74665207D01*
X231858857Y-74482903D01*
X231976966Y-74365000D01*
X232922853Y-74365000D01*
X233039367Y-74481717D01*
X233480258Y-74664791D01*
X233957647Y-74665207D01*
X234398857Y-74482903D01*
X234516966Y-74365000D01*
X235462853Y-74365000D01*
X235579367Y-74481717D01*
X236020258Y-74664791D01*
X236497647Y-74665207D01*
X236938857Y-74482903D01*
X237056966Y-74365000D01*
X238002853Y-74365000D01*
X238119367Y-74481717D01*
X238560258Y-74664791D01*
X239037647Y-74665207D01*
X239478857Y-74482903D01*
X239596966Y-74365000D01*
X240542853Y-74365000D01*
X240659367Y-74481717D01*
X241100258Y-74664791D01*
X241577647Y-74665207D01*
X242018857Y-74482903D01*
X242136966Y-74365000D01*
X243082853Y-74365000D01*
X243199367Y-74481717D01*
X243640258Y-74664791D01*
X244117647Y-74665207D01*
X244558857Y-74482903D01*
X244676966Y-74365000D01*
X245622853Y-74365000D01*
X245739367Y-74481717D01*
X246180258Y-74664791D01*
X246657647Y-74665207D01*
X247098857Y-74482903D01*
X247216966Y-74365000D01*
X248162853Y-74365000D01*
X248279367Y-74481717D01*
X248720258Y-74664791D01*
X249197647Y-74665207D01*
X249638857Y-74482903D01*
X249756966Y-74365000D01*
X249814948Y-74365000D01*
X249865000Y-74439906D01*
X249865000Y-81355000D01*
X249595000Y-81355000D01*
X245150000Y-81355000D01*
X240705000Y-81355000D01*
X237200000Y-81355000D01*
X237181999Y-81358580D01*
X237163879Y-81355652D01*
X237113391Y-81367605D01*
X237296608Y-80934235D01*
X237303271Y-80019262D01*
X236959282Y-79171388D01*
X236940307Y-79142990D01*
X236586581Y-78979485D01*
X236480515Y-79085551D01*
X236480515Y-78873419D01*
X236317010Y-78519693D01*
X235474235Y-78163392D01*
X234559262Y-78156729D01*
X233711388Y-78500718D01*
X233682990Y-78519693D01*
X233519485Y-78873419D01*
X235000000Y-80353934D01*
X236480515Y-78873419D01*
X236480515Y-79085551D01*
X235106066Y-80460000D01*
X235120208Y-80474142D01*
X235014142Y-80580208D01*
X235000000Y-80566066D01*
X234985857Y-80580208D01*
X234879791Y-80474142D01*
X234893934Y-80460000D01*
X233413419Y-78979485D01*
X233059693Y-79142990D01*
X232703392Y-79985765D01*
X232696729Y-80900738D01*
X232886090Y-81367482D01*
X232836121Y-81355652D01*
X232818000Y-81358580D01*
X232800000Y-81355000D01*
X230545000Y-81355000D01*
X226100000Y-81355000D01*
X221020000Y-81355000D01*
X210860000Y-81355000D01*
X209100277Y-81355000D01*
X209100277Y-66183137D01*
X208857205Y-65594857D01*
X208407511Y-65144377D01*
X207819656Y-64900278D01*
X207183137Y-64899723D01*
X206594857Y-65142795D01*
X206144377Y-65592489D01*
X205900278Y-66180344D01*
X205899723Y-66816863D01*
X206142795Y-67405143D01*
X206592489Y-67855623D01*
X207180344Y-68099722D01*
X207816863Y-68100277D01*
X208405143Y-67857205D01*
X208855623Y-67407511D01*
X209099722Y-66819656D01*
X209100277Y-66183137D01*
X209100277Y-81355000D01*
X207050000Y-81355000D01*
X206667317Y-81431120D01*
X206342893Y-81647893D01*
X205650000Y-82340786D01*
X205650000Y-66564017D01*
X205802587Y-65796909D01*
X206200856Y-65200856D01*
X206796909Y-64802587D01*
X207564017Y-64650000D01*
X250713854Y-64650000D01*
X251372829Y-65221111D01*
X251289485Y-65401419D01*
X252770000Y-66881934D01*
X252784142Y-66867791D01*
X252890208Y-66973857D01*
X252876066Y-66988000D01*
X252890208Y-67002142D01*
G36*
X254350000Y-111435982D02*
X254197412Y-112203090D01*
X254100277Y-112348463D01*
X254100277Y-111183137D01*
X253857205Y-110594857D01*
X253407511Y-110144377D01*
X253355000Y-110122572D01*
X253355000Y-107740000D01*
X253355000Y-106315000D01*
X251807124Y-106315000D01*
X251662053Y-106548435D01*
X251715480Y-106744734D01*
X252016307Y-107247627D01*
X252486684Y-107597118D01*
X253055000Y-107740000D01*
X253355000Y-107740000D01*
X253355000Y-110122572D01*
X252819656Y-109900278D01*
X252183137Y-109899723D01*
X251594857Y-110142795D01*
X251144377Y-110592489D01*
X250900278Y-111180344D01*
X250899723Y-111816863D01*
X251142795Y-112405143D01*
X251592489Y-112855623D01*
X252180344Y-113099722D01*
X252816863Y-113100277D01*
X253405143Y-112857205D01*
X253855623Y-112407511D01*
X254099722Y-111819656D01*
X254100277Y-111183137D01*
X254100277Y-112348463D01*
X253799143Y-112799143D01*
X253203090Y-113197412D01*
X252435982Y-113350000D01*
X249402165Y-113350000D01*
X249402165Y-96263862D01*
X249257841Y-95914571D01*
X248990835Y-95647098D01*
X248641796Y-95502165D01*
X248263862Y-95501835D01*
X247914571Y-95646159D01*
X247647098Y-95913165D01*
X247502165Y-96262204D01*
X247502052Y-96390588D01*
X247286206Y-96067550D01*
X247067391Y-95921342D01*
X247067391Y-93311266D01*
X247067391Y-92678734D01*
X247010714Y-92471131D01*
X246699048Y-91952017D01*
X246212450Y-91591688D01*
X245625000Y-91445000D01*
X245225000Y-91445000D01*
X245225000Y-92920000D01*
X246922953Y-92920000D01*
X247067391Y-92678734D01*
X247067391Y-93311266D01*
X246922953Y-93070000D01*
X245225000Y-93070000D01*
X245225000Y-94545000D01*
X245625000Y-94545000D01*
X246212450Y-94398312D01*
X246699048Y-94037983D01*
X247010714Y-93518869D01*
X247067391Y-93311266D01*
X247067391Y-95921342D01*
X246888787Y-95802004D01*
X246420000Y-95708756D01*
X245951213Y-95802004D01*
X245553794Y-96067550D01*
X245288248Y-96464969D01*
X245195000Y-96933756D01*
X245195000Y-98256244D01*
X245288248Y-98725031D01*
X245553794Y-99122450D01*
X245951213Y-99387996D01*
X246420000Y-99481244D01*
X246888787Y-99387996D01*
X247286206Y-99122450D01*
X247551752Y-98725031D01*
X247645000Y-98256244D01*
X247645000Y-96986624D01*
X247646159Y-96989429D01*
X247652000Y-96995280D01*
X247652000Y-103994629D01*
X247553395Y-104093233D01*
X247551752Y-104084969D01*
X247286206Y-103687550D01*
X246888787Y-103422004D01*
X246420000Y-103328756D01*
X245951213Y-103422004D01*
X245553794Y-103687550D01*
X245288248Y-104084969D01*
X245203705Y-104509990D01*
X245105000Y-104128041D01*
X245105000Y-98256244D01*
X245105000Y-96933756D01*
X245075000Y-96782936D01*
X245075000Y-94545000D01*
X245075000Y-93070000D01*
X245075000Y-92920000D01*
X245075000Y-91445000D01*
X244675000Y-91445000D01*
X244087550Y-91591688D01*
X243600952Y-91952017D01*
X243289286Y-92471131D01*
X243232609Y-92678734D01*
X243377047Y-92920000D01*
X245075000Y-92920000D01*
X245075000Y-93070000D01*
X243377047Y-93070000D01*
X243232609Y-93311266D01*
X243289286Y-93518869D01*
X243600952Y-94037983D01*
X244087550Y-94398312D01*
X244675000Y-94545000D01*
X245075000Y-94545000D01*
X245075000Y-96782936D01*
X245011752Y-96464969D01*
X244746206Y-96067550D01*
X244348787Y-95802004D01*
X243880000Y-95708756D01*
X243411213Y-95802004D01*
X243013794Y-96067550D01*
X242748248Y-96464969D01*
X242655000Y-96933756D01*
X242655000Y-98256244D01*
X242748248Y-98725031D01*
X243013794Y-99122450D01*
X243411213Y-99387996D01*
X243880000Y-99481244D01*
X244348787Y-99387996D01*
X244746206Y-99122450D01*
X245011752Y-98725031D01*
X245105000Y-98256244D01*
X245105000Y-104128041D01*
X245075439Y-104013653D01*
X244763883Y-103600050D01*
X244317764Y-103337158D01*
X244161020Y-103295143D01*
X243955000Y-103442448D01*
X243955000Y-105140000D01*
X243975000Y-105140000D01*
X243975000Y-105290000D01*
X243955000Y-105290000D01*
X243955000Y-106987552D01*
X244161020Y-107134857D01*
X244317764Y-107092842D01*
X244763883Y-106829950D01*
X245075439Y-106416347D01*
X245203705Y-105920009D01*
X245288248Y-106345031D01*
X245553794Y-106742450D01*
X245951213Y-107007996D01*
X246420000Y-107101244D01*
X246888787Y-107007996D01*
X247286206Y-106742450D01*
X247551752Y-106345031D01*
X247619640Y-106003733D01*
X247869147Y-105954104D01*
X248128685Y-105780685D01*
X249017685Y-104891685D01*
X249017686Y-104891685D01*
X249191104Y-104632147D01*
X249252000Y-104326000D01*
X249252000Y-96995728D01*
X249256902Y-96990835D01*
X249401835Y-96641796D01*
X249402165Y-96263862D01*
X249402165Y-113350000D01*
X243805000Y-113350000D01*
X243805000Y-106987552D01*
X243805000Y-105290000D01*
X243785000Y-105290000D01*
X243785000Y-105140000D01*
X243805000Y-105140000D01*
X243805000Y-103442448D01*
X243598980Y-103295143D01*
X243442236Y-103337158D01*
X242996117Y-103600050D01*
X242684561Y-104013653D01*
X242565000Y-104476301D01*
X242565000Y-98256244D01*
X242565000Y-96933756D01*
X242471752Y-96464969D01*
X242206206Y-96067550D01*
X241808787Y-95802004D01*
X241340000Y-95708756D01*
X240871213Y-95802004D01*
X240473794Y-96067550D01*
X240208248Y-96464969D01*
X240115000Y-96933756D01*
X240115000Y-98256244D01*
X240208248Y-98725031D01*
X240473794Y-99122450D01*
X240871213Y-99387996D01*
X241340000Y-99481244D01*
X241808787Y-99387996D01*
X242206206Y-99122450D01*
X242471752Y-98725031D01*
X242565000Y-98256244D01*
X242565000Y-104476301D01*
X242556294Y-104509990D01*
X242471752Y-104084969D01*
X242206206Y-103687550D01*
X242140000Y-103643312D01*
X242140000Y-101567728D01*
X242144902Y-101562835D01*
X242289835Y-101213796D01*
X242290165Y-100835862D01*
X242145841Y-100486571D01*
X241878835Y-100219098D01*
X241529796Y-100074165D01*
X241151862Y-100073835D01*
X240802571Y-100218159D01*
X240535098Y-100485165D01*
X240390165Y-100834204D01*
X240389835Y-101212138D01*
X240534159Y-101561429D01*
X240540000Y-101567280D01*
X240540000Y-103643312D01*
X240473794Y-103687550D01*
X240208248Y-104084969D01*
X240115000Y-104553756D01*
X240115000Y-105876244D01*
X240208248Y-106345031D01*
X240473794Y-106742450D01*
X240871213Y-107007996D01*
X241340000Y-107101244D01*
X241808787Y-107007996D01*
X242206206Y-106742450D01*
X242471752Y-106345031D01*
X242556294Y-105920009D01*
X242684561Y-106416347D01*
X242996117Y-106829950D01*
X243442236Y-107092842D01*
X243598980Y-107134857D01*
X243805000Y-106987552D01*
X243805000Y-113350000D01*
X240025000Y-113350000D01*
X240025000Y-105876244D01*
X240025000Y-104553756D01*
X240025000Y-98256244D01*
X240025000Y-96933756D01*
X239931752Y-96464969D01*
X239666206Y-96067550D01*
X239268787Y-95802004D01*
X238800000Y-95708756D01*
X238331213Y-95802004D01*
X237933794Y-96067550D01*
X237668248Y-96464969D01*
X237575000Y-96933756D01*
X237575000Y-98256244D01*
X237668248Y-98725031D01*
X237933794Y-99122450D01*
X238331213Y-99387996D01*
X238800000Y-99481244D01*
X239268787Y-99387996D01*
X239666206Y-99122450D01*
X239931752Y-98725031D01*
X240025000Y-98256244D01*
X240025000Y-104553756D01*
X239931752Y-104084969D01*
X239666206Y-103687550D01*
X239600000Y-103643312D01*
X239600000Y-102583728D01*
X239604902Y-102578835D01*
X239749835Y-102229796D01*
X239750165Y-101851862D01*
X239605841Y-101502571D01*
X239338835Y-101235098D01*
X238989796Y-101090165D01*
X238611862Y-101089835D01*
X238262571Y-101234159D01*
X237995098Y-101501165D01*
X237850165Y-101850204D01*
X237849835Y-102228138D01*
X237994159Y-102577429D01*
X238000000Y-102583280D01*
X238000000Y-103643312D01*
X237933794Y-103687550D01*
X237668248Y-104084969D01*
X237575000Y-104553756D01*
X237575000Y-105876244D01*
X237668248Y-106345031D01*
X237933794Y-106742450D01*
X238331213Y-107007996D01*
X238800000Y-107101244D01*
X239268787Y-107007996D01*
X239666206Y-106742450D01*
X239931752Y-106345031D01*
X240025000Y-105876244D01*
X240025000Y-113350000D01*
X237485000Y-113350000D01*
X237485000Y-105876244D01*
X237485000Y-104553756D01*
X237485000Y-98256244D01*
X237485000Y-96933756D01*
X237391752Y-96464969D01*
X237126206Y-96067550D01*
X236728787Y-95802004D01*
X236480515Y-95752619D01*
X236480515Y-87126581D01*
X235000000Y-85646066D01*
X233519485Y-87126581D01*
X233682990Y-87480307D01*
X234525765Y-87836608D01*
X235440738Y-87843271D01*
X236288612Y-87499282D01*
X236317010Y-87480307D01*
X236480515Y-87126581D01*
X236480515Y-95752619D01*
X236260000Y-95708756D01*
X235791213Y-95802004D01*
X235393794Y-96067550D01*
X235128248Y-96464969D01*
X235035000Y-96933756D01*
X235035000Y-98256244D01*
X235128248Y-98725031D01*
X235393794Y-99122450D01*
X235791213Y-99387996D01*
X236260000Y-99481244D01*
X236728787Y-99387996D01*
X237126206Y-99122450D01*
X237391752Y-98725031D01*
X237485000Y-98256244D01*
X237485000Y-104553756D01*
X237391752Y-104084969D01*
X237126206Y-103687550D01*
X236728787Y-103422004D01*
X236260000Y-103328756D01*
X235791213Y-103422004D01*
X235393794Y-103687550D01*
X235128248Y-104084969D01*
X235035000Y-104553756D01*
X235035000Y-105876244D01*
X235128248Y-106345031D01*
X235393794Y-106742450D01*
X235791213Y-107007996D01*
X236260000Y-107101244D01*
X236728787Y-107007996D01*
X237126206Y-106742450D01*
X237391752Y-106345031D01*
X237485000Y-105876244D01*
X237485000Y-113350000D01*
X234945000Y-113350000D01*
X234945000Y-105876244D01*
X234945000Y-104553756D01*
X234945000Y-98256244D01*
X234945000Y-96933756D01*
X234851752Y-96464969D01*
X234586206Y-96067550D01*
X234188787Y-95802004D01*
X233720000Y-95708756D01*
X233251213Y-95802004D01*
X232853794Y-96067550D01*
X232588248Y-96464969D01*
X232495000Y-96933756D01*
X232495000Y-98256244D01*
X232588248Y-98725031D01*
X232853794Y-99122450D01*
X233251213Y-99387996D01*
X233720000Y-99481244D01*
X234188787Y-99387996D01*
X234586206Y-99122450D01*
X234851752Y-98725031D01*
X234945000Y-98256244D01*
X234945000Y-104553756D01*
X234851752Y-104084969D01*
X234586206Y-103687550D01*
X234188787Y-103422004D01*
X233720000Y-103328756D01*
X233251213Y-103422004D01*
X232853794Y-103687550D01*
X232588248Y-104084969D01*
X232503705Y-104509990D01*
X232405000Y-104128041D01*
X232405000Y-98256244D01*
X232405000Y-96933756D01*
X232311752Y-96464969D01*
X232046206Y-96067550D01*
X231648787Y-95802004D01*
X231180000Y-95708756D01*
X230711213Y-95802004D01*
X230313794Y-96067550D01*
X230048248Y-96464969D01*
X229955000Y-96933756D01*
X229955000Y-98256244D01*
X230048248Y-98725031D01*
X230313794Y-99122450D01*
X230711213Y-99387996D01*
X231180000Y-99481244D01*
X231648787Y-99387996D01*
X232046206Y-99122450D01*
X232311752Y-98725031D01*
X232405000Y-98256244D01*
X232405000Y-104128041D01*
X232375439Y-104013653D01*
X232063883Y-103600050D01*
X231617764Y-103337158D01*
X231461020Y-103295143D01*
X231255000Y-103442448D01*
X231255000Y-105140000D01*
X231275000Y-105140000D01*
X231275000Y-105290000D01*
X231255000Y-105290000D01*
X231255000Y-106987552D01*
X231461020Y-107134857D01*
X231617764Y-107092842D01*
X232063883Y-106829950D01*
X232375439Y-106416347D01*
X232503705Y-105920009D01*
X232588248Y-106345031D01*
X232853794Y-106742450D01*
X233251213Y-107007996D01*
X233720000Y-107101244D01*
X234188787Y-107007996D01*
X234586206Y-106742450D01*
X234851752Y-106345031D01*
X234945000Y-105876244D01*
X234945000Y-113350000D01*
X222245000Y-113350000D01*
X222245000Y-105876244D01*
X222245000Y-104553756D01*
X222245000Y-98256244D01*
X222245000Y-96933756D01*
X222151752Y-96464969D01*
X221886206Y-96067550D01*
X221488787Y-95802004D01*
X221020000Y-95708756D01*
X220551213Y-95802004D01*
X220153794Y-96067550D01*
X219888248Y-96464969D01*
X219795000Y-96933756D01*
X219795000Y-98256244D01*
X219888248Y-98725031D01*
X220153794Y-99122450D01*
X220551213Y-99387996D01*
X221020000Y-99481244D01*
X221488787Y-99387996D01*
X221886206Y-99122450D01*
X222151752Y-98725031D01*
X222245000Y-98256244D01*
X222245000Y-104553756D01*
X222151752Y-104084969D01*
X221886206Y-103687550D01*
X221488787Y-103422004D01*
X221020000Y-103328756D01*
X220551213Y-103422004D01*
X220153794Y-103687550D01*
X219888248Y-104084969D01*
X219795000Y-104553756D01*
X219795000Y-105876244D01*
X219888248Y-106345031D01*
X220153794Y-106742450D01*
X220551213Y-107007996D01*
X221020000Y-107101244D01*
X221488787Y-107007996D01*
X221886206Y-106742450D01*
X222151752Y-106345031D01*
X222245000Y-105876244D01*
X222245000Y-113350000D01*
X221887533Y-113350000D01*
X221969835Y-113151796D01*
X221970165Y-112773862D01*
X221825841Y-112424571D01*
X221820000Y-112418719D01*
X221820000Y-110711728D01*
X221824902Y-110706835D01*
X221969835Y-110357796D01*
X221970165Y-109979862D01*
X221825841Y-109630571D01*
X221558835Y-109363098D01*
X221209796Y-109218165D01*
X220831862Y-109217835D01*
X220482571Y-109362159D01*
X220215098Y-109629165D01*
X220070165Y-109978204D01*
X220069835Y-110356138D01*
X220214159Y-110705429D01*
X220220000Y-110711280D01*
X220220000Y-112418271D01*
X220215098Y-112423165D01*
X220070165Y-112772204D01*
X220069835Y-113150138D01*
X220152416Y-113350000D01*
X219705000Y-113350000D01*
X219705000Y-105876244D01*
X219705000Y-104553756D01*
X219611752Y-104084969D01*
X219346206Y-103687550D01*
X219280000Y-103643312D01*
X219280000Y-100297728D01*
X219284902Y-100292835D01*
X219429835Y-99943796D01*
X219430165Y-99565862D01*
X219285841Y-99216571D01*
X219253632Y-99184305D01*
X219346206Y-99122450D01*
X219611752Y-98725031D01*
X219705000Y-98256244D01*
X219705000Y-96933756D01*
X219611752Y-96464969D01*
X219346206Y-96067550D01*
X218948787Y-95802004D01*
X218480000Y-95708756D01*
X218011213Y-95802004D01*
X217613794Y-96067550D01*
X217348248Y-96464969D01*
X217255000Y-96933756D01*
X217255000Y-98256244D01*
X217348248Y-98725031D01*
X217613794Y-99122450D01*
X217706154Y-99184162D01*
X217675098Y-99215165D01*
X217530165Y-99564204D01*
X217529835Y-99942138D01*
X217674159Y-100291429D01*
X217680000Y-100297280D01*
X217680000Y-103643312D01*
X217613794Y-103687550D01*
X217348248Y-104084969D01*
X217255000Y-104553756D01*
X217255000Y-105876244D01*
X217348248Y-106345031D01*
X217613794Y-106742450D01*
X218011213Y-107007996D01*
X218480000Y-107101244D01*
X218948787Y-107007996D01*
X219346206Y-106742450D01*
X219611752Y-106345031D01*
X219705000Y-105876244D01*
X219705000Y-113350000D01*
X217165000Y-113350000D01*
X217165000Y-105876244D01*
X217165000Y-104553756D01*
X217165000Y-98256244D01*
X217165000Y-96933756D01*
X217071752Y-96464969D01*
X216806206Y-96067550D01*
X216408787Y-95802004D01*
X215940000Y-95708756D01*
X215471213Y-95802004D01*
X215073794Y-96067550D01*
X214808248Y-96464969D01*
X214715000Y-96933756D01*
X214715000Y-98256244D01*
X214808248Y-98725031D01*
X215073794Y-99122450D01*
X215471213Y-99387996D01*
X215940000Y-99481244D01*
X216408787Y-99387996D01*
X216806206Y-99122450D01*
X217071752Y-98725031D01*
X217165000Y-98256244D01*
X217165000Y-104553756D01*
X217071752Y-104084969D01*
X216806206Y-103687550D01*
X216408787Y-103422004D01*
X215940000Y-103328756D01*
X215471213Y-103422004D01*
X215073794Y-103687550D01*
X214808248Y-104084969D01*
X214715000Y-104553756D01*
X214715000Y-105876244D01*
X214808248Y-106345031D01*
X215073794Y-106742450D01*
X215471213Y-107007996D01*
X215940000Y-107101244D01*
X216408787Y-107007996D01*
X216806206Y-106742450D01*
X217071752Y-106345031D01*
X217165000Y-105876244D01*
X217165000Y-113350000D01*
X214625000Y-113350000D01*
X214625000Y-105876244D01*
X214625000Y-104553756D01*
X214531752Y-104084969D01*
X214266206Y-103687550D01*
X213868787Y-103422004D01*
X213400000Y-103328756D01*
X212931213Y-103422004D01*
X212533794Y-103687550D01*
X212422000Y-103854862D01*
X212422000Y-98955137D01*
X212533794Y-99122450D01*
X212931213Y-99387996D01*
X213400000Y-99481244D01*
X213868787Y-99387996D01*
X214266206Y-99122450D01*
X214531752Y-98725031D01*
X214625000Y-98256244D01*
X214625000Y-96933756D01*
X214531752Y-96464969D01*
X214266206Y-96067550D01*
X213868787Y-95802004D01*
X213400000Y-95708756D01*
X212931213Y-95802004D01*
X212533794Y-96067550D01*
X212428338Y-96225376D01*
X212571835Y-95879796D01*
X212572165Y-95501862D01*
X212427841Y-95152571D01*
X212160835Y-94885098D01*
X211811796Y-94740165D01*
X211433862Y-94739835D01*
X211084571Y-94884159D01*
X210817098Y-95151165D01*
X210672165Y-95500204D01*
X210671835Y-95878138D01*
X210816159Y-96227429D01*
X210822000Y-96233280D01*
X210822000Y-104580000D01*
X210882896Y-104886147D01*
X211056315Y-105145685D01*
X211691315Y-105780686D01*
X211950853Y-105954104D01*
X212200359Y-106003733D01*
X212268248Y-106345031D01*
X212533794Y-106742450D01*
X212931213Y-107007996D01*
X213400000Y-107101244D01*
X213868787Y-107007996D01*
X214266206Y-106742450D01*
X214531752Y-106345031D01*
X214625000Y-105876244D01*
X214625000Y-113350000D01*
X209100277Y-113350000D01*
X209100277Y-111183137D01*
X208857205Y-110594857D01*
X208407511Y-110144377D01*
X208337947Y-110115491D01*
X208337947Y-106548435D01*
X208192876Y-106315000D01*
X206645000Y-106315000D01*
X206645000Y-107740000D01*
X206945000Y-107740000D01*
X207513316Y-107597118D01*
X207983693Y-107247627D01*
X208284520Y-106744734D01*
X208337947Y-106548435D01*
X208337947Y-110115491D01*
X207819656Y-109900278D01*
X207183137Y-109899723D01*
X206594857Y-110142795D01*
X206144377Y-110592489D01*
X205900278Y-111180344D01*
X205899723Y-111816863D01*
X206142795Y-112405143D01*
X206592489Y-112855623D01*
X207180344Y-113099722D01*
X207816863Y-113100277D01*
X208405143Y-112857205D01*
X208855623Y-112407511D01*
X209099722Y-111819656D01*
X209100277Y-111183137D01*
X209100277Y-113350000D01*
X207564017Y-113350000D01*
X206796909Y-113197412D01*
X206200856Y-112799143D01*
X205802587Y-112203090D01*
X205650000Y-111435982D01*
X205650000Y-107602979D01*
X206195000Y-107740000D01*
X206495000Y-107740000D01*
X206495000Y-106315000D01*
X206475000Y-106315000D01*
X206475000Y-106165000D01*
X206495000Y-106165000D01*
X206495000Y-106145000D01*
X206645000Y-106145000D01*
X206645000Y-106165000D01*
X208192876Y-106165000D01*
X208337947Y-105931565D01*
X208284520Y-105735266D01*
X207983693Y-105232373D01*
X207556495Y-104914964D01*
X207893254Y-104689949D01*
X208196736Y-104235757D01*
X208303305Y-103700000D01*
X208196736Y-103164243D01*
X207893254Y-102710051D01*
X207474128Y-102430000D01*
X207893254Y-102149949D01*
X208196736Y-101695757D01*
X208303305Y-101160000D01*
X208196736Y-100624243D01*
X207893254Y-100170051D01*
X207474128Y-99890000D01*
X207893254Y-99609949D01*
X208196736Y-99155757D01*
X208303305Y-98620000D01*
X208196736Y-98084243D01*
X207893254Y-97630051D01*
X207474128Y-97350000D01*
X207893254Y-97069949D01*
X208196736Y-96615757D01*
X208303305Y-96080000D01*
X208196736Y-95544243D01*
X207893254Y-95090051D01*
X207474128Y-94810000D01*
X207893254Y-94529949D01*
X208196736Y-94075757D01*
X208303305Y-93540000D01*
X208196736Y-93004243D01*
X207893254Y-92550051D01*
X207682616Y-92409307D01*
X207898778Y-92367366D01*
X208099853Y-92235282D01*
X208234450Y-92035881D01*
X208281755Y-91800000D01*
X208281755Y-90200000D01*
X208237366Y-89971222D01*
X208105282Y-89770147D01*
X207905881Y-89635550D01*
X207670000Y-89588245D01*
X206900000Y-89588245D01*
X206900000Y-86685000D01*
X206900000Y-83919214D01*
X207464213Y-83355000D01*
X207667205Y-83355000D01*
X207317183Y-83588878D01*
X207078733Y-83945743D01*
X206995000Y-84366695D01*
X206995000Y-85633305D01*
X207078733Y-86054257D01*
X207317183Y-86411122D01*
X207674048Y-86649572D01*
X208095000Y-86733305D01*
X208515952Y-86649572D01*
X208730000Y-86506549D01*
X208944048Y-86649572D01*
X209365000Y-86733305D01*
X209785952Y-86649572D01*
X209831746Y-86618973D01*
X209899119Y-86664450D01*
X210135000Y-86711755D01*
X211135000Y-86711755D01*
X211363778Y-86667366D01*
X211437854Y-86618706D01*
X211484048Y-86649572D01*
X211905000Y-86733305D01*
X212325952Y-86649572D01*
X212682817Y-86411122D01*
X212921267Y-86054257D01*
X213005000Y-85633305D01*
X213005000Y-84366695D01*
X212921267Y-83945743D01*
X212682817Y-83588878D01*
X212332794Y-83355000D01*
X217667205Y-83355000D01*
X217317183Y-83588878D01*
X217078733Y-83945743D01*
X216995000Y-84366695D01*
X216995000Y-85633305D01*
X217078733Y-86054257D01*
X217317183Y-86411122D01*
X217674048Y-86649572D01*
X218095000Y-86733305D01*
X218515952Y-86649572D01*
X218730000Y-86506549D01*
X218944048Y-86649572D01*
X219365000Y-86733305D01*
X219785952Y-86649572D01*
X219831746Y-86618973D01*
X219899119Y-86664450D01*
X220135000Y-86711755D01*
X221135000Y-86711755D01*
X221363778Y-86667366D01*
X221437854Y-86618706D01*
X221484048Y-86649572D01*
X221905000Y-86733305D01*
X222325952Y-86649572D01*
X222682817Y-86411122D01*
X222921267Y-86054257D01*
X223005000Y-85633305D01*
X223005000Y-84366695D01*
X222921267Y-83945743D01*
X222682817Y-83588878D01*
X222332794Y-83355000D01*
X225300000Y-83355000D01*
X225300000Y-93150000D01*
X225360896Y-93456147D01*
X225534315Y-93715685D01*
X226570000Y-94751370D01*
X226570000Y-95802814D01*
X226568787Y-95802004D01*
X226100000Y-95708756D01*
X225631213Y-95802004D01*
X225233794Y-96067550D01*
X224968248Y-96464969D01*
X224875000Y-96933756D01*
X224875000Y-98256244D01*
X224968248Y-98725031D01*
X225233794Y-99122450D01*
X225631213Y-99387996D01*
X226100000Y-99481244D01*
X226568787Y-99387996D01*
X226570000Y-99387185D01*
X226570000Y-102510000D01*
X224785000Y-102510000D01*
X224785000Y-98256244D01*
X224785000Y-96933756D01*
X224691752Y-96464969D01*
X224426206Y-96067550D01*
X224028787Y-95802004D01*
X223560000Y-95708756D01*
X223091213Y-95802004D01*
X222693794Y-96067550D01*
X222428248Y-96464969D01*
X222335000Y-96933756D01*
X222335000Y-98256244D01*
X222428248Y-98725031D01*
X222693794Y-99122450D01*
X223091213Y-99387996D01*
X223560000Y-99481244D01*
X224028787Y-99387996D01*
X224426206Y-99122450D01*
X224691752Y-98725031D01*
X224785000Y-98256244D01*
X224785000Y-102510000D01*
X224576000Y-102510000D01*
X224269853Y-102570896D01*
X224010315Y-102744315D01*
X223392569Y-103362060D01*
X223091213Y-103422004D01*
X222693794Y-103687550D01*
X222428248Y-104084969D01*
X222335000Y-104553756D01*
X222335000Y-105876244D01*
X222428248Y-106345031D01*
X222693794Y-106742450D01*
X223091213Y-107007996D01*
X223560000Y-107101244D01*
X224028787Y-107007996D01*
X224426206Y-106742450D01*
X224691752Y-106345031D01*
X224785000Y-105876244D01*
X224785000Y-104553756D01*
X224731678Y-104285691D01*
X224907370Y-104110000D01*
X224963268Y-104110000D01*
X224875000Y-104553756D01*
X224875000Y-105876244D01*
X224968248Y-106345031D01*
X225233794Y-106742450D01*
X225631213Y-107007996D01*
X226100000Y-107101244D01*
X226568787Y-107007996D01*
X226966206Y-106742450D01*
X227231752Y-106345031D01*
X227325000Y-105876244D01*
X227325000Y-104553756D01*
X227236731Y-104110000D01*
X227292630Y-104110000D01*
X227468321Y-104285691D01*
X227415000Y-104553756D01*
X227415000Y-105876244D01*
X227508248Y-106345031D01*
X227773794Y-106742450D01*
X228171213Y-107007996D01*
X228640000Y-107101244D01*
X229108787Y-107007996D01*
X229506206Y-106742450D01*
X229771752Y-106345031D01*
X229856294Y-105920009D01*
X229984561Y-106416347D01*
X230296117Y-106829950D01*
X230742236Y-107092842D01*
X230898980Y-107134857D01*
X231105000Y-106987552D01*
X231105000Y-105290000D01*
X231085000Y-105290000D01*
X231085000Y-105140000D01*
X231105000Y-105140000D01*
X231105000Y-103442448D01*
X230898980Y-103295143D01*
X230742236Y-103337158D01*
X230296117Y-103600050D01*
X229984561Y-104013653D01*
X229856294Y-104509990D01*
X229771752Y-104084969D01*
X229506206Y-103687550D01*
X229108787Y-103422004D01*
X228807430Y-103362060D01*
X228189685Y-102744315D01*
X228170000Y-102731161D01*
X228170000Y-99387185D01*
X228171213Y-99387996D01*
X228640000Y-99481244D01*
X229108787Y-99387996D01*
X229506206Y-99122450D01*
X229771752Y-98725031D01*
X229865000Y-98256244D01*
X229865000Y-96933756D01*
X229771752Y-96464969D01*
X229506206Y-96067550D01*
X229108787Y-95802004D01*
X228640000Y-95708756D01*
X228171213Y-95802004D01*
X228170000Y-95802814D01*
X228170000Y-94420000D01*
X228109104Y-94113853D01*
X227935685Y-93854315D01*
X227935685Y-93854314D01*
X226900000Y-92818629D01*
X226900000Y-83355000D01*
X227667205Y-83355000D01*
X227317183Y-83588878D01*
X227078733Y-83945743D01*
X226995000Y-84366695D01*
X226995000Y-85633305D01*
X227078733Y-86054257D01*
X227317183Y-86411122D01*
X227674048Y-86649572D01*
X228095000Y-86733305D01*
X228515952Y-86649572D01*
X228730000Y-86506549D01*
X228944048Y-86649572D01*
X229365000Y-86733305D01*
X229785952Y-86649572D01*
X229831746Y-86618973D01*
X229899119Y-86664450D01*
X230135000Y-86711755D01*
X231135000Y-86711755D01*
X231363778Y-86667366D01*
X231437854Y-86618706D01*
X231484048Y-86649572D01*
X231905000Y-86733305D01*
X232325952Y-86649572D01*
X232682817Y-86411122D01*
X232800116Y-86235570D01*
X233040718Y-86828612D01*
X233059693Y-86857010D01*
X233413419Y-87020515D01*
X234893934Y-85540000D01*
X234879791Y-85525857D01*
X234985857Y-85419791D01*
X235000000Y-85433934D01*
X235014142Y-85419791D01*
X235120208Y-85525857D01*
X235106066Y-85540000D01*
X236586581Y-87020515D01*
X236940307Y-86857010D01*
X237201812Y-86238458D01*
X237317183Y-86411122D01*
X237674048Y-86649572D01*
X238095000Y-86733305D01*
X238515952Y-86649572D01*
X238730000Y-86506549D01*
X238944048Y-86649572D01*
X239365000Y-86733305D01*
X239785952Y-86649572D01*
X239831746Y-86618973D01*
X239899119Y-86664450D01*
X240135000Y-86711755D01*
X241135000Y-86711755D01*
X241363778Y-86667366D01*
X241437854Y-86618706D01*
X241484048Y-86649572D01*
X241905000Y-86733305D01*
X242325952Y-86649572D01*
X242682817Y-86411122D01*
X242921267Y-86054257D01*
X243005000Y-85633305D01*
X243005000Y-84366695D01*
X242921267Y-83945743D01*
X242682817Y-83588878D01*
X242332794Y-83355000D01*
X244150000Y-83355000D01*
X244150000Y-88161298D01*
X243688451Y-88469695D01*
X243374131Y-88940109D01*
X243263756Y-89495000D01*
X243374131Y-90049891D01*
X243688451Y-90520305D01*
X244158865Y-90834625D01*
X244713756Y-90945000D01*
X245586244Y-90945000D01*
X246141135Y-90834625D01*
X246611549Y-90520305D01*
X246925869Y-90049891D01*
X247036244Y-89495000D01*
X246925869Y-88940109D01*
X246611549Y-88469695D01*
X246150000Y-88161298D01*
X246150000Y-83355000D01*
X247667205Y-83355000D01*
X247317183Y-83588878D01*
X247078733Y-83945743D01*
X246995000Y-84366695D01*
X246995000Y-85633305D01*
X247078733Y-86054257D01*
X247317183Y-86411122D01*
X247674048Y-86649572D01*
X248095000Y-86733305D01*
X248515952Y-86649572D01*
X248730000Y-86506549D01*
X248944048Y-86649572D01*
X249365000Y-86733305D01*
X249785952Y-86649572D01*
X249831746Y-86618973D01*
X249899119Y-86664450D01*
X250135000Y-86711755D01*
X251135000Y-86711755D01*
X251363778Y-86667366D01*
X251437854Y-86618706D01*
X251484048Y-86649572D01*
X251905000Y-86733305D01*
X252325952Y-86649572D01*
X252682817Y-86411122D01*
X252921267Y-86054257D01*
X253005000Y-85633305D01*
X253005000Y-84366695D01*
X252921267Y-83945743D01*
X252870397Y-83869611D01*
X253100000Y-84099214D01*
X253100000Y-89588245D01*
X252330000Y-89588245D01*
X252101222Y-89632634D01*
X251900147Y-89764718D01*
X251765550Y-89964119D01*
X251718245Y-90200000D01*
X251718245Y-91800000D01*
X251762634Y-92028778D01*
X251894718Y-92229853D01*
X252094119Y-92364450D01*
X252317478Y-92409243D01*
X252106746Y-92550051D01*
X251803264Y-93004243D01*
X251696695Y-93540000D01*
X251803264Y-94075757D01*
X252106746Y-94529949D01*
X252525871Y-94810000D01*
X252106746Y-95090051D01*
X251803264Y-95544243D01*
X251696695Y-96080000D01*
X251803264Y-96615757D01*
X252106746Y-97069949D01*
X252525871Y-97350000D01*
X252106746Y-97630051D01*
X251803264Y-98084243D01*
X251696695Y-98620000D01*
X251803264Y-99155757D01*
X252106746Y-99609949D01*
X252525871Y-99890000D01*
X252106746Y-100170051D01*
X251803264Y-100624243D01*
X251696695Y-101160000D01*
X251803264Y-101695757D01*
X252106746Y-102149949D01*
X252525871Y-102430000D01*
X252106746Y-102710051D01*
X251803264Y-103164243D01*
X251696695Y-103700000D01*
X251803264Y-104235757D01*
X252106746Y-104689949D01*
X252443504Y-104914964D01*
X252016307Y-105232373D01*
X251715480Y-105735266D01*
X251662053Y-105931565D01*
X251807124Y-106165000D01*
X253355000Y-106165000D01*
X253355000Y-106145000D01*
X253505000Y-106145000D01*
X253505000Y-106165000D01*
X253525000Y-106165000D01*
X253525000Y-106315000D01*
X253505000Y-106315000D01*
X253505000Y-107740000D01*
X253805000Y-107740000D01*
X254350000Y-107602979D01*
X254350000Y-111435982D01*
X254350000Y-111435982D01*
G37*
X254350000Y-111435982D02*
X254197412Y-112203090D01*
X254100277Y-112348463D01*
X254100277Y-111183137D01*
X253857205Y-110594857D01*
X253407511Y-110144377D01*
X253355000Y-110122572D01*
X253355000Y-107740000D01*
X253355000Y-106315000D01*
X251807124Y-106315000D01*
X251662053Y-106548435D01*
X251715480Y-106744734D01*
X252016307Y-107247627D01*
X252486684Y-107597118D01*
X253055000Y-107740000D01*
X253355000Y-107740000D01*
X253355000Y-110122572D01*
X252819656Y-109900278D01*
X252183137Y-109899723D01*
X251594857Y-110142795D01*
X251144377Y-110592489D01*
X250900278Y-111180344D01*
X250899723Y-111816863D01*
X251142795Y-112405143D01*
X251592489Y-112855623D01*
X252180344Y-113099722D01*
X252816863Y-113100277D01*
X253405143Y-112857205D01*
X253855623Y-112407511D01*
X254099722Y-111819656D01*
X254100277Y-111183137D01*
X254100277Y-112348463D01*
X253799143Y-112799143D01*
X253203090Y-113197412D01*
X252435982Y-113350000D01*
X249402165Y-113350000D01*
X249402165Y-96263862D01*
X249257841Y-95914571D01*
X248990835Y-95647098D01*
X248641796Y-95502165D01*
X248263862Y-95501835D01*
X247914571Y-95646159D01*
X247647098Y-95913165D01*
X247502165Y-96262204D01*
X247502052Y-96390588D01*
X247286206Y-96067550D01*
X247067391Y-95921342D01*
X247067391Y-93311266D01*
X247067391Y-92678734D01*
X247010714Y-92471131D01*
X246699048Y-91952017D01*
X246212450Y-91591688D01*
X245625000Y-91445000D01*
X245225000Y-91445000D01*
X245225000Y-92920000D01*
X246922953Y-92920000D01*
X247067391Y-92678734D01*
X247067391Y-93311266D01*
X246922953Y-93070000D01*
X245225000Y-93070000D01*
X245225000Y-94545000D01*
X245625000Y-94545000D01*
X246212450Y-94398312D01*
X246699048Y-94037983D01*
X247010714Y-93518869D01*
X247067391Y-93311266D01*
X247067391Y-95921342D01*
X246888787Y-95802004D01*
X246420000Y-95708756D01*
X245951213Y-95802004D01*
X245553794Y-96067550D01*
X245288248Y-96464969D01*
X245195000Y-96933756D01*
X245195000Y-98256244D01*
X245288248Y-98725031D01*
X245553794Y-99122450D01*
X245951213Y-99387996D01*
X246420000Y-99481244D01*
X246888787Y-99387996D01*
X247286206Y-99122450D01*
X247551752Y-98725031D01*
X247645000Y-98256244D01*
X247645000Y-96986624D01*
X247646159Y-96989429D01*
X247652000Y-96995280D01*
X247652000Y-103994629D01*
X247553395Y-104093233D01*
X247551752Y-104084969D01*
X247286206Y-103687550D01*
X246888787Y-103422004D01*
X246420000Y-103328756D01*
X245951213Y-103422004D01*
X245553794Y-103687550D01*
X245288248Y-104084969D01*
X245203705Y-104509990D01*
X245105000Y-104128041D01*
X245105000Y-98256244D01*
X245105000Y-96933756D01*
X245075000Y-96782936D01*
X245075000Y-94545000D01*
X245075000Y-93070000D01*
X245075000Y-92920000D01*
X245075000Y-91445000D01*
X244675000Y-91445000D01*
X244087550Y-91591688D01*
X243600952Y-91952017D01*
X243289286Y-92471131D01*
X243232609Y-92678734D01*
X243377047Y-92920000D01*
X245075000Y-92920000D01*
X245075000Y-93070000D01*
X243377047Y-93070000D01*
X243232609Y-93311266D01*
X243289286Y-93518869D01*
X243600952Y-94037983D01*
X244087550Y-94398312D01*
X244675000Y-94545000D01*
X245075000Y-94545000D01*
X245075000Y-96782936D01*
X245011752Y-96464969D01*
X244746206Y-96067550D01*
X244348787Y-95802004D01*
X243880000Y-95708756D01*
X243411213Y-95802004D01*
X243013794Y-96067550D01*
X242748248Y-96464969D01*
X242655000Y-96933756D01*
X242655000Y-98256244D01*
X242748248Y-98725031D01*
X243013794Y-99122450D01*
X243411213Y-99387996D01*
X243880000Y-99481244D01*
X244348787Y-99387996D01*
X244746206Y-99122450D01*
X245011752Y-98725031D01*
X245105000Y-98256244D01*
X245105000Y-104128041D01*
X245075439Y-104013653D01*
X244763883Y-103600050D01*
X244317764Y-103337158D01*
X244161020Y-103295143D01*
X243955000Y-103442448D01*
X243955000Y-105140000D01*
X243975000Y-105140000D01*
X243975000Y-105290000D01*
X243955000Y-105290000D01*
X243955000Y-106987552D01*
X244161020Y-107134857D01*
X244317764Y-107092842D01*
X244763883Y-106829950D01*
X245075439Y-106416347D01*
X245203705Y-105920009D01*
X245288248Y-106345031D01*
X245553794Y-106742450D01*
X245951213Y-107007996D01*
X246420000Y-107101244D01*
X246888787Y-107007996D01*
X247286206Y-106742450D01*
X247551752Y-106345031D01*
X247619640Y-106003733D01*
X247869147Y-105954104D01*
X248128685Y-105780685D01*
X249017685Y-104891685D01*
X249017686Y-104891685D01*
X249191104Y-104632147D01*
X249252000Y-104326000D01*
X249252000Y-96995728D01*
X249256902Y-96990835D01*
X249401835Y-96641796D01*
X249402165Y-96263862D01*
X249402165Y-113350000D01*
X243805000Y-113350000D01*
X243805000Y-106987552D01*
X243805000Y-105290000D01*
X243785000Y-105290000D01*
X243785000Y-105140000D01*
X243805000Y-105140000D01*
X243805000Y-103442448D01*
X243598980Y-103295143D01*
X243442236Y-103337158D01*
X242996117Y-103600050D01*
X242684561Y-104013653D01*
X242565000Y-104476301D01*
X242565000Y-98256244D01*
X242565000Y-96933756D01*
X242471752Y-96464969D01*
X242206206Y-96067550D01*
X241808787Y-95802004D01*
X241340000Y-95708756D01*
X240871213Y-95802004D01*
X240473794Y-96067550D01*
X240208248Y-96464969D01*
X240115000Y-96933756D01*
X240115000Y-98256244D01*
X240208248Y-98725031D01*
X240473794Y-99122450D01*
X240871213Y-99387996D01*
X241340000Y-99481244D01*
X241808787Y-99387996D01*
X242206206Y-99122450D01*
X242471752Y-98725031D01*
X242565000Y-98256244D01*
X242565000Y-104476301D01*
X242556294Y-104509990D01*
X242471752Y-104084969D01*
X242206206Y-103687550D01*
X242140000Y-103643312D01*
X242140000Y-101567728D01*
X242144902Y-101562835D01*
X242289835Y-101213796D01*
X242290165Y-100835862D01*
X242145841Y-100486571D01*
X241878835Y-100219098D01*
X241529796Y-100074165D01*
X241151862Y-100073835D01*
X240802571Y-100218159D01*
X240535098Y-100485165D01*
X240390165Y-100834204D01*
X240389835Y-101212138D01*
X240534159Y-101561429D01*
X240540000Y-101567280D01*
X240540000Y-103643312D01*
X240473794Y-103687550D01*
X240208248Y-104084969D01*
X240115000Y-104553756D01*
X240115000Y-105876244D01*
X240208248Y-106345031D01*
X240473794Y-106742450D01*
X240871213Y-107007996D01*
X241340000Y-107101244D01*
X241808787Y-107007996D01*
X242206206Y-106742450D01*
X242471752Y-106345031D01*
X242556294Y-105920009D01*
X242684561Y-106416347D01*
X242996117Y-106829950D01*
X243442236Y-107092842D01*
X243598980Y-107134857D01*
X243805000Y-106987552D01*
X243805000Y-113350000D01*
X240025000Y-113350000D01*
X240025000Y-105876244D01*
X240025000Y-104553756D01*
X240025000Y-98256244D01*
X240025000Y-96933756D01*
X239931752Y-96464969D01*
X239666206Y-96067550D01*
X239268787Y-95802004D01*
X238800000Y-95708756D01*
X238331213Y-95802004D01*
X237933794Y-96067550D01*
X237668248Y-96464969D01*
X237575000Y-96933756D01*
X237575000Y-98256244D01*
X237668248Y-98725031D01*
X237933794Y-99122450D01*
X238331213Y-99387996D01*
X238800000Y-99481244D01*
X239268787Y-99387996D01*
X239666206Y-99122450D01*
X239931752Y-98725031D01*
X240025000Y-98256244D01*
X240025000Y-104553756D01*
X239931752Y-104084969D01*
X239666206Y-103687550D01*
X239600000Y-103643312D01*
X239600000Y-102583728D01*
X239604902Y-102578835D01*
X239749835Y-102229796D01*
X239750165Y-101851862D01*
X239605841Y-101502571D01*
X239338835Y-101235098D01*
X238989796Y-101090165D01*
X238611862Y-101089835D01*
X238262571Y-101234159D01*
X237995098Y-101501165D01*
X237850165Y-101850204D01*
X237849835Y-102228138D01*
X237994159Y-102577429D01*
X238000000Y-102583280D01*
X238000000Y-103643312D01*
X237933794Y-103687550D01*
X237668248Y-104084969D01*
X237575000Y-104553756D01*
X237575000Y-105876244D01*
X237668248Y-106345031D01*
X237933794Y-106742450D01*
X238331213Y-107007996D01*
X238800000Y-107101244D01*
X239268787Y-107007996D01*
X239666206Y-106742450D01*
X239931752Y-106345031D01*
X240025000Y-105876244D01*
X240025000Y-113350000D01*
X237485000Y-113350000D01*
X237485000Y-105876244D01*
X237485000Y-104553756D01*
X237485000Y-98256244D01*
X237485000Y-96933756D01*
X237391752Y-96464969D01*
X237126206Y-96067550D01*
X236728787Y-95802004D01*
X236480515Y-95752619D01*
X236480515Y-87126581D01*
X235000000Y-85646066D01*
X233519485Y-87126581D01*
X233682990Y-87480307D01*
X234525765Y-87836608D01*
X235440738Y-87843271D01*
X236288612Y-87499282D01*
X236317010Y-87480307D01*
X236480515Y-87126581D01*
X236480515Y-95752619D01*
X236260000Y-95708756D01*
X235791213Y-95802004D01*
X235393794Y-96067550D01*
X235128248Y-96464969D01*
X235035000Y-96933756D01*
X235035000Y-98256244D01*
X235128248Y-98725031D01*
X235393794Y-99122450D01*
X235791213Y-99387996D01*
X236260000Y-99481244D01*
X236728787Y-99387996D01*
X237126206Y-99122450D01*
X237391752Y-98725031D01*
X237485000Y-98256244D01*
X237485000Y-104553756D01*
X237391752Y-104084969D01*
X237126206Y-103687550D01*
X236728787Y-103422004D01*
X236260000Y-103328756D01*
X235791213Y-103422004D01*
X235393794Y-103687550D01*
X235128248Y-104084969D01*
X235035000Y-104553756D01*
X235035000Y-105876244D01*
X235128248Y-106345031D01*
X235393794Y-106742450D01*
X235791213Y-107007996D01*
X236260000Y-107101244D01*
X236728787Y-107007996D01*
X237126206Y-106742450D01*
X237391752Y-106345031D01*
X237485000Y-105876244D01*
X237485000Y-113350000D01*
X234945000Y-113350000D01*
X234945000Y-105876244D01*
X234945000Y-104553756D01*
X234945000Y-98256244D01*
X234945000Y-96933756D01*
X234851752Y-96464969D01*
X234586206Y-96067550D01*
X234188787Y-95802004D01*
X233720000Y-95708756D01*
X233251213Y-95802004D01*
X232853794Y-96067550D01*
X232588248Y-96464969D01*
X232495000Y-96933756D01*
X232495000Y-98256244D01*
X232588248Y-98725031D01*
X232853794Y-99122450D01*
X233251213Y-99387996D01*
X233720000Y-99481244D01*
X234188787Y-99387996D01*
X234586206Y-99122450D01*
X234851752Y-98725031D01*
X234945000Y-98256244D01*
X234945000Y-104553756D01*
X234851752Y-104084969D01*
X234586206Y-103687550D01*
X234188787Y-103422004D01*
X233720000Y-103328756D01*
X233251213Y-103422004D01*
X232853794Y-103687550D01*
X232588248Y-104084969D01*
X232503705Y-104509990D01*
X232405000Y-104128041D01*
X232405000Y-98256244D01*
X232405000Y-96933756D01*
X232311752Y-96464969D01*
X232046206Y-96067550D01*
X231648787Y-95802004D01*
X231180000Y-95708756D01*
X230711213Y-95802004D01*
X230313794Y-96067550D01*
X230048248Y-96464969D01*
X229955000Y-96933756D01*
X229955000Y-98256244D01*
X230048248Y-98725031D01*
X230313794Y-99122450D01*
X230711213Y-99387996D01*
X231180000Y-99481244D01*
X231648787Y-99387996D01*
X232046206Y-99122450D01*
X232311752Y-98725031D01*
X232405000Y-98256244D01*
X232405000Y-104128041D01*
X232375439Y-104013653D01*
X232063883Y-103600050D01*
X231617764Y-103337158D01*
X231461020Y-103295143D01*
X231255000Y-103442448D01*
X231255000Y-105140000D01*
X231275000Y-105140000D01*
X231275000Y-105290000D01*
X231255000Y-105290000D01*
X231255000Y-106987552D01*
X231461020Y-107134857D01*
X231617764Y-107092842D01*
X232063883Y-106829950D01*
X232375439Y-106416347D01*
X232503705Y-105920009D01*
X232588248Y-106345031D01*
X232853794Y-106742450D01*
X233251213Y-107007996D01*
X233720000Y-107101244D01*
X234188787Y-107007996D01*
X234586206Y-106742450D01*
X234851752Y-106345031D01*
X234945000Y-105876244D01*
X234945000Y-113350000D01*
X222245000Y-113350000D01*
X222245000Y-105876244D01*
X222245000Y-104553756D01*
X222245000Y-98256244D01*
X222245000Y-96933756D01*
X222151752Y-96464969D01*
X221886206Y-96067550D01*
X221488787Y-95802004D01*
X221020000Y-95708756D01*
X220551213Y-95802004D01*
X220153794Y-96067550D01*
X219888248Y-96464969D01*
X219795000Y-96933756D01*
X219795000Y-98256244D01*
X219888248Y-98725031D01*
X220153794Y-99122450D01*
X220551213Y-99387996D01*
X221020000Y-99481244D01*
X221488787Y-99387996D01*
X221886206Y-99122450D01*
X222151752Y-98725031D01*
X222245000Y-98256244D01*
X222245000Y-104553756D01*
X222151752Y-104084969D01*
X221886206Y-103687550D01*
X221488787Y-103422004D01*
X221020000Y-103328756D01*
X220551213Y-103422004D01*
X220153794Y-103687550D01*
X219888248Y-104084969D01*
X219795000Y-104553756D01*
X219795000Y-105876244D01*
X219888248Y-106345031D01*
X220153794Y-106742450D01*
X220551213Y-107007996D01*
X221020000Y-107101244D01*
X221488787Y-107007996D01*
X221886206Y-106742450D01*
X222151752Y-106345031D01*
X222245000Y-105876244D01*
X222245000Y-113350000D01*
X221887533Y-113350000D01*
X221969835Y-113151796D01*
X221970165Y-112773862D01*
X221825841Y-112424571D01*
X221820000Y-112418719D01*
X221820000Y-110711728D01*
X221824902Y-110706835D01*
X221969835Y-110357796D01*
X221970165Y-109979862D01*
X221825841Y-109630571D01*
X221558835Y-109363098D01*
X221209796Y-109218165D01*
X220831862Y-109217835D01*
X220482571Y-109362159D01*
X220215098Y-109629165D01*
X220070165Y-109978204D01*
X220069835Y-110356138D01*
X220214159Y-110705429D01*
X220220000Y-110711280D01*
X220220000Y-112418271D01*
X220215098Y-112423165D01*
X220070165Y-112772204D01*
X220069835Y-113150138D01*
X220152416Y-113350000D01*
X219705000Y-113350000D01*
X219705000Y-105876244D01*
X219705000Y-104553756D01*
X219611752Y-104084969D01*
X219346206Y-103687550D01*
X219280000Y-103643312D01*
X219280000Y-100297728D01*
X219284902Y-100292835D01*
X219429835Y-99943796D01*
X219430165Y-99565862D01*
X219285841Y-99216571D01*
X219253632Y-99184305D01*
X219346206Y-99122450D01*
X219611752Y-98725031D01*
X219705000Y-98256244D01*
X219705000Y-96933756D01*
X219611752Y-96464969D01*
X219346206Y-96067550D01*
X218948787Y-95802004D01*
X218480000Y-95708756D01*
X218011213Y-95802004D01*
X217613794Y-96067550D01*
X217348248Y-96464969D01*
X217255000Y-96933756D01*
X217255000Y-98256244D01*
X217348248Y-98725031D01*
X217613794Y-99122450D01*
X217706154Y-99184162D01*
X217675098Y-99215165D01*
X217530165Y-99564204D01*
X217529835Y-99942138D01*
X217674159Y-100291429D01*
X217680000Y-100297280D01*
X217680000Y-103643312D01*
X217613794Y-103687550D01*
X217348248Y-104084969D01*
X217255000Y-104553756D01*
X217255000Y-105876244D01*
X217348248Y-106345031D01*
X217613794Y-106742450D01*
X218011213Y-107007996D01*
X218480000Y-107101244D01*
X218948787Y-107007996D01*
X219346206Y-106742450D01*
X219611752Y-106345031D01*
X219705000Y-105876244D01*
X219705000Y-113350000D01*
X217165000Y-113350000D01*
X217165000Y-105876244D01*
X217165000Y-104553756D01*
X217165000Y-98256244D01*
X217165000Y-96933756D01*
X217071752Y-96464969D01*
X216806206Y-96067550D01*
X216408787Y-95802004D01*
X215940000Y-95708756D01*
X215471213Y-95802004D01*
X215073794Y-96067550D01*
X214808248Y-96464969D01*
X214715000Y-96933756D01*
X214715000Y-98256244D01*
X214808248Y-98725031D01*
X215073794Y-99122450D01*
X215471213Y-99387996D01*
X215940000Y-99481244D01*
X216408787Y-99387996D01*
X216806206Y-99122450D01*
X217071752Y-98725031D01*
X217165000Y-98256244D01*
X217165000Y-104553756D01*
X217071752Y-104084969D01*
X216806206Y-103687550D01*
X216408787Y-103422004D01*
X215940000Y-103328756D01*
X215471213Y-103422004D01*
X215073794Y-103687550D01*
X214808248Y-104084969D01*
X214715000Y-104553756D01*
X214715000Y-105876244D01*
X214808248Y-106345031D01*
X215073794Y-106742450D01*
X215471213Y-107007996D01*
X215940000Y-107101244D01*
X216408787Y-107007996D01*
X216806206Y-106742450D01*
X217071752Y-106345031D01*
X217165000Y-105876244D01*
X217165000Y-113350000D01*
X214625000Y-113350000D01*
X214625000Y-105876244D01*
X214625000Y-104553756D01*
X214531752Y-104084969D01*
X214266206Y-103687550D01*
X213868787Y-103422004D01*
X213400000Y-103328756D01*
X212931213Y-103422004D01*
X212533794Y-103687550D01*
X212422000Y-103854862D01*
X212422000Y-98955137D01*
X212533794Y-99122450D01*
X212931213Y-99387996D01*
X213400000Y-99481244D01*
X213868787Y-99387996D01*
X214266206Y-99122450D01*
X214531752Y-98725031D01*
X214625000Y-98256244D01*
X214625000Y-96933756D01*
X214531752Y-96464969D01*
X214266206Y-96067550D01*
X213868787Y-95802004D01*
X213400000Y-95708756D01*
X212931213Y-95802004D01*
X212533794Y-96067550D01*
X212428338Y-96225376D01*
X212571835Y-95879796D01*
X212572165Y-95501862D01*
X212427841Y-95152571D01*
X212160835Y-94885098D01*
X211811796Y-94740165D01*
X211433862Y-94739835D01*
X211084571Y-94884159D01*
X210817098Y-95151165D01*
X210672165Y-95500204D01*
X210671835Y-95878138D01*
X210816159Y-96227429D01*
X210822000Y-96233280D01*
X210822000Y-104580000D01*
X210882896Y-104886147D01*
X211056315Y-105145685D01*
X211691315Y-105780686D01*
X211950853Y-105954104D01*
X212200359Y-106003733D01*
X212268248Y-106345031D01*
X212533794Y-106742450D01*
X212931213Y-107007996D01*
X213400000Y-107101244D01*
X213868787Y-107007996D01*
X214266206Y-106742450D01*
X214531752Y-106345031D01*
X214625000Y-105876244D01*
X214625000Y-113350000D01*
X209100277Y-113350000D01*
X209100277Y-111183137D01*
X208857205Y-110594857D01*
X208407511Y-110144377D01*
X208337947Y-110115491D01*
X208337947Y-106548435D01*
X208192876Y-106315000D01*
X206645000Y-106315000D01*
X206645000Y-107740000D01*
X206945000Y-107740000D01*
X207513316Y-107597118D01*
X207983693Y-107247627D01*
X208284520Y-106744734D01*
X208337947Y-106548435D01*
X208337947Y-110115491D01*
X207819656Y-109900278D01*
X207183137Y-109899723D01*
X206594857Y-110142795D01*
X206144377Y-110592489D01*
X205900278Y-111180344D01*
X205899723Y-111816863D01*
X206142795Y-112405143D01*
X206592489Y-112855623D01*
X207180344Y-113099722D01*
X207816863Y-113100277D01*
X208405143Y-112857205D01*
X208855623Y-112407511D01*
X209099722Y-111819656D01*
X209100277Y-111183137D01*
X209100277Y-113350000D01*
X207564017Y-113350000D01*
X206796909Y-113197412D01*
X206200856Y-112799143D01*
X205802587Y-112203090D01*
X205650000Y-111435982D01*
X205650000Y-107602979D01*
X206195000Y-107740000D01*
X206495000Y-107740000D01*
X206495000Y-106315000D01*
X206475000Y-106315000D01*
X206475000Y-106165000D01*
X206495000Y-106165000D01*
X206495000Y-106145000D01*
X206645000Y-106145000D01*
X206645000Y-106165000D01*
X208192876Y-106165000D01*
X208337947Y-105931565D01*
X208284520Y-105735266D01*
X207983693Y-105232373D01*
X207556495Y-104914964D01*
X207893254Y-104689949D01*
X208196736Y-104235757D01*
X208303305Y-103700000D01*
X208196736Y-103164243D01*
X207893254Y-102710051D01*
X207474128Y-102430000D01*
X207893254Y-102149949D01*
X208196736Y-101695757D01*
X208303305Y-101160000D01*
X208196736Y-100624243D01*
X207893254Y-100170051D01*
X207474128Y-99890000D01*
X207893254Y-99609949D01*
X208196736Y-99155757D01*
X208303305Y-98620000D01*
X208196736Y-98084243D01*
X207893254Y-97630051D01*
X207474128Y-97350000D01*
X207893254Y-97069949D01*
X208196736Y-96615757D01*
X208303305Y-96080000D01*
X208196736Y-95544243D01*
X207893254Y-95090051D01*
X207474128Y-94810000D01*
X207893254Y-94529949D01*
X208196736Y-94075757D01*
X208303305Y-93540000D01*
X208196736Y-93004243D01*
X207893254Y-92550051D01*
X207682616Y-92409307D01*
X207898778Y-92367366D01*
X208099853Y-92235282D01*
X208234450Y-92035881D01*
X208281755Y-91800000D01*
X208281755Y-90200000D01*
X208237366Y-89971222D01*
X208105282Y-89770147D01*
X207905881Y-89635550D01*
X207670000Y-89588245D01*
X206900000Y-89588245D01*
X206900000Y-86685000D01*
X206900000Y-83919214D01*
X207464213Y-83355000D01*
X207667205Y-83355000D01*
X207317183Y-83588878D01*
X207078733Y-83945743D01*
X206995000Y-84366695D01*
X206995000Y-85633305D01*
X207078733Y-86054257D01*
X207317183Y-86411122D01*
X207674048Y-86649572D01*
X208095000Y-86733305D01*
X208515952Y-86649572D01*
X208730000Y-86506549D01*
X208944048Y-86649572D01*
X209365000Y-86733305D01*
X209785952Y-86649572D01*
X209831746Y-86618973D01*
X209899119Y-86664450D01*
X210135000Y-86711755D01*
X211135000Y-86711755D01*
X211363778Y-86667366D01*
X211437854Y-86618706D01*
X211484048Y-86649572D01*
X211905000Y-86733305D01*
X212325952Y-86649572D01*
X212682817Y-86411122D01*
X212921267Y-86054257D01*
X213005000Y-85633305D01*
X213005000Y-84366695D01*
X212921267Y-83945743D01*
X212682817Y-83588878D01*
X212332794Y-83355000D01*
X217667205Y-83355000D01*
X217317183Y-83588878D01*
X217078733Y-83945743D01*
X216995000Y-84366695D01*
X216995000Y-85633305D01*
X217078733Y-86054257D01*
X217317183Y-86411122D01*
X217674048Y-86649572D01*
X218095000Y-86733305D01*
X218515952Y-86649572D01*
X218730000Y-86506549D01*
X218944048Y-86649572D01*
X219365000Y-86733305D01*
X219785952Y-86649572D01*
X219831746Y-86618973D01*
X219899119Y-86664450D01*
X220135000Y-86711755D01*
X221135000Y-86711755D01*
X221363778Y-86667366D01*
X221437854Y-86618706D01*
X221484048Y-86649572D01*
X221905000Y-86733305D01*
X222325952Y-86649572D01*
X222682817Y-86411122D01*
X222921267Y-86054257D01*
X223005000Y-85633305D01*
X223005000Y-84366695D01*
X222921267Y-83945743D01*
X222682817Y-83588878D01*
X222332794Y-83355000D01*
X225300000Y-83355000D01*
X225300000Y-93150000D01*
X225360896Y-93456147D01*
X225534315Y-93715685D01*
X226570000Y-94751370D01*
X226570000Y-95802814D01*
X226568787Y-95802004D01*
X226100000Y-95708756D01*
X225631213Y-95802004D01*
X225233794Y-96067550D01*
X224968248Y-96464969D01*
X224875000Y-96933756D01*
X224875000Y-98256244D01*
X224968248Y-98725031D01*
X225233794Y-99122450D01*
X225631213Y-99387996D01*
X226100000Y-99481244D01*
X226568787Y-99387996D01*
X226570000Y-99387185D01*
X226570000Y-102510000D01*
X224785000Y-102510000D01*
X224785000Y-98256244D01*
X224785000Y-96933756D01*
X224691752Y-96464969D01*
X224426206Y-96067550D01*
X224028787Y-95802004D01*
X223560000Y-95708756D01*
X223091213Y-95802004D01*
X222693794Y-96067550D01*
X222428248Y-96464969D01*
X222335000Y-96933756D01*
X222335000Y-98256244D01*
X222428248Y-98725031D01*
X222693794Y-99122450D01*
X223091213Y-99387996D01*
X223560000Y-99481244D01*
X224028787Y-99387996D01*
X224426206Y-99122450D01*
X224691752Y-98725031D01*
X224785000Y-98256244D01*
X224785000Y-102510000D01*
X224576000Y-102510000D01*
X224269853Y-102570896D01*
X224010315Y-102744315D01*
X223392569Y-103362060D01*
X223091213Y-103422004D01*
X222693794Y-103687550D01*
X222428248Y-104084969D01*
X222335000Y-104553756D01*
X222335000Y-105876244D01*
X222428248Y-106345031D01*
X222693794Y-106742450D01*
X223091213Y-107007996D01*
X223560000Y-107101244D01*
X224028787Y-107007996D01*
X224426206Y-106742450D01*
X224691752Y-106345031D01*
X224785000Y-105876244D01*
X224785000Y-104553756D01*
X224731678Y-104285691D01*
X224907370Y-104110000D01*
X224963268Y-104110000D01*
X224875000Y-104553756D01*
X224875000Y-105876244D01*
X224968248Y-106345031D01*
X225233794Y-106742450D01*
X225631213Y-107007996D01*
X226100000Y-107101244D01*
X226568787Y-107007996D01*
X226966206Y-106742450D01*
X227231752Y-106345031D01*
X227325000Y-105876244D01*
X227325000Y-104553756D01*
X227236731Y-104110000D01*
X227292630Y-104110000D01*
X227468321Y-104285691D01*
X227415000Y-104553756D01*
X227415000Y-105876244D01*
X227508248Y-106345031D01*
X227773794Y-106742450D01*
X228171213Y-107007996D01*
X228640000Y-107101244D01*
X229108787Y-107007996D01*
X229506206Y-106742450D01*
X229771752Y-106345031D01*
X229856294Y-105920009D01*
X229984561Y-106416347D01*
X230296117Y-106829950D01*
X230742236Y-107092842D01*
X230898980Y-107134857D01*
X231105000Y-106987552D01*
X231105000Y-105290000D01*
X231085000Y-105290000D01*
X231085000Y-105140000D01*
X231105000Y-105140000D01*
X231105000Y-103442448D01*
X230898980Y-103295143D01*
X230742236Y-103337158D01*
X230296117Y-103600050D01*
X229984561Y-104013653D01*
X229856294Y-104509990D01*
X229771752Y-104084969D01*
X229506206Y-103687550D01*
X229108787Y-103422004D01*
X228807430Y-103362060D01*
X228189685Y-102744315D01*
X228170000Y-102731161D01*
X228170000Y-99387185D01*
X228171213Y-99387996D01*
X228640000Y-99481244D01*
X229108787Y-99387996D01*
X229506206Y-99122450D01*
X229771752Y-98725031D01*
X229865000Y-98256244D01*
X229865000Y-96933756D01*
X229771752Y-96464969D01*
X229506206Y-96067550D01*
X229108787Y-95802004D01*
X228640000Y-95708756D01*
X228171213Y-95802004D01*
X228170000Y-95802814D01*
X228170000Y-94420000D01*
X228109104Y-94113853D01*
X227935685Y-93854315D01*
X227935685Y-93854314D01*
X226900000Y-92818629D01*
X226900000Y-83355000D01*
X227667205Y-83355000D01*
X227317183Y-83588878D01*
X227078733Y-83945743D01*
X226995000Y-84366695D01*
X226995000Y-85633305D01*
X227078733Y-86054257D01*
X227317183Y-86411122D01*
X227674048Y-86649572D01*
X228095000Y-86733305D01*
X228515952Y-86649572D01*
X228730000Y-86506549D01*
X228944048Y-86649572D01*
X229365000Y-86733305D01*
X229785952Y-86649572D01*
X229831746Y-86618973D01*
X229899119Y-86664450D01*
X230135000Y-86711755D01*
X231135000Y-86711755D01*
X231363778Y-86667366D01*
X231437854Y-86618706D01*
X231484048Y-86649572D01*
X231905000Y-86733305D01*
X232325952Y-86649572D01*
X232682817Y-86411122D01*
X232800116Y-86235570D01*
X233040718Y-86828612D01*
X233059693Y-86857010D01*
X233413419Y-87020515D01*
X234893934Y-85540000D01*
X234879791Y-85525857D01*
X234985857Y-85419791D01*
X235000000Y-85433934D01*
X235014142Y-85419791D01*
X235120208Y-85525857D01*
X235106066Y-85540000D01*
X236586581Y-87020515D01*
X236940307Y-86857010D01*
X237201812Y-86238458D01*
X237317183Y-86411122D01*
X237674048Y-86649572D01*
X238095000Y-86733305D01*
X238515952Y-86649572D01*
X238730000Y-86506549D01*
X238944048Y-86649572D01*
X239365000Y-86733305D01*
X239785952Y-86649572D01*
X239831746Y-86618973D01*
X239899119Y-86664450D01*
X240135000Y-86711755D01*
X241135000Y-86711755D01*
X241363778Y-86667366D01*
X241437854Y-86618706D01*
X241484048Y-86649572D01*
X241905000Y-86733305D01*
X242325952Y-86649572D01*
X242682817Y-86411122D01*
X242921267Y-86054257D01*
X243005000Y-85633305D01*
X243005000Y-84366695D01*
X242921267Y-83945743D01*
X242682817Y-83588878D01*
X242332794Y-83355000D01*
X244150000Y-83355000D01*
X244150000Y-88161298D01*
X243688451Y-88469695D01*
X243374131Y-88940109D01*
X243263756Y-89495000D01*
X243374131Y-90049891D01*
X243688451Y-90520305D01*
X244158865Y-90834625D01*
X244713756Y-90945000D01*
X245586244Y-90945000D01*
X246141135Y-90834625D01*
X246611549Y-90520305D01*
X246925869Y-90049891D01*
X247036244Y-89495000D01*
X246925869Y-88940109D01*
X246611549Y-88469695D01*
X246150000Y-88161298D01*
X246150000Y-83355000D01*
X247667205Y-83355000D01*
X247317183Y-83588878D01*
X247078733Y-83945743D01*
X246995000Y-84366695D01*
X246995000Y-85633305D01*
X247078733Y-86054257D01*
X247317183Y-86411122D01*
X247674048Y-86649572D01*
X248095000Y-86733305D01*
X248515952Y-86649572D01*
X248730000Y-86506549D01*
X248944048Y-86649572D01*
X249365000Y-86733305D01*
X249785952Y-86649572D01*
X249831746Y-86618973D01*
X249899119Y-86664450D01*
X250135000Y-86711755D01*
X251135000Y-86711755D01*
X251363778Y-86667366D01*
X251437854Y-86618706D01*
X251484048Y-86649572D01*
X251905000Y-86733305D01*
X252325952Y-86649572D01*
X252682817Y-86411122D01*
X252921267Y-86054257D01*
X253005000Y-85633305D01*
X253005000Y-84366695D01*
X252921267Y-83945743D01*
X252870397Y-83869611D01*
X253100000Y-84099214D01*
X253100000Y-89588245D01*
X252330000Y-89588245D01*
X252101222Y-89632634D01*
X251900147Y-89764718D01*
X251765550Y-89964119D01*
X251718245Y-90200000D01*
X251718245Y-91800000D01*
X251762634Y-92028778D01*
X251894718Y-92229853D01*
X252094119Y-92364450D01*
X252317478Y-92409243D01*
X252106746Y-92550051D01*
X251803264Y-93004243D01*
X251696695Y-93540000D01*
X251803264Y-94075757D01*
X252106746Y-94529949D01*
X252525871Y-94810000D01*
X252106746Y-95090051D01*
X251803264Y-95544243D01*
X251696695Y-96080000D01*
X251803264Y-96615757D01*
X252106746Y-97069949D01*
X252525871Y-97350000D01*
X252106746Y-97630051D01*
X251803264Y-98084243D01*
X251696695Y-98620000D01*
X251803264Y-99155757D01*
X252106746Y-99609949D01*
X252525871Y-99890000D01*
X252106746Y-100170051D01*
X251803264Y-100624243D01*
X251696695Y-101160000D01*
X251803264Y-101695757D01*
X252106746Y-102149949D01*
X252525871Y-102430000D01*
X252106746Y-102710051D01*
X251803264Y-103164243D01*
X251696695Y-103700000D01*
X251803264Y-104235757D01*
X252106746Y-104689949D01*
X252443504Y-104914964D01*
X252016307Y-105232373D01*
X251715480Y-105735266D01*
X251662053Y-105931565D01*
X251807124Y-106165000D01*
X253355000Y-106165000D01*
X253355000Y-106145000D01*
X253505000Y-106145000D01*
X253505000Y-106165000D01*
X253525000Y-106165000D01*
X253525000Y-106315000D01*
X253505000Y-106315000D01*
X253505000Y-107740000D01*
X253805000Y-107740000D01*
X254350000Y-107602979D01*
X254350000Y-111435982D01*
M02*
