M48
;DRILL file {kicad (2015-01-16 BZR 5376)-product} date 29.3.2015 17:28:10
;FORMAT={-:-/ absolute / metric / decimal}
FMAT,2
METRIC,TZ
T1C0.350
T2C0.762
T3C0.800
T4C0.889
T5C1.270
%
G90
G05
M71
T1
X211.622Y-95.69
X218.48Y-99.754
X221.02Y-110.168
X221.02Y-112.962
X238.8Y-102.04
X241.34Y-101.024
X248.452Y-96.452
T2
X206.27Y-91.
X206.27Y-93.54
X206.27Y-96.08
X206.27Y-98.62
X206.27Y-101.16
X206.27Y-103.7
X206.27Y-106.24
X208.095Y-85.
X209.365Y-85.
X210.635Y-85.
X210.86Y-66.48
X210.86Y-69.02
X210.86Y-71.56
X211.905Y-85.
X213.4Y-66.48
X213.4Y-69.02
X213.4Y-71.56
X213.4Y-97.595
X213.4Y-105.215
X215.94Y-66.48
X215.94Y-69.02
X215.94Y-71.56
X215.94Y-97.595
X215.94Y-105.215
X218.095Y-85.
X218.48Y-66.48
X218.48Y-69.02
X218.48Y-71.56
X218.48Y-97.595
X218.48Y-105.215
X219.365Y-85.
X220.635Y-85.
X221.02Y-66.48
X221.02Y-69.02
X221.02Y-71.56
X221.02Y-97.595
X221.02Y-105.215
X221.905Y-85.
X223.56Y-66.48
X223.56Y-69.02
X223.56Y-71.56
X223.56Y-97.595
X223.56Y-105.215
X226.1Y-66.48
X226.1Y-69.02
X226.1Y-71.56
X226.1Y-97.595
X226.1Y-105.215
X228.095Y-85.
X228.64Y-66.48
X228.64Y-69.02
X228.64Y-71.56
X228.64Y-97.595
X228.64Y-105.215
X229.365Y-85.
X230.635Y-85.
X231.18Y-66.48
X231.18Y-69.02
X231.18Y-71.56
X231.18Y-97.595
X231.18Y-105.215
X231.905Y-85.
X233.72Y-66.48
X233.72Y-69.02
X233.72Y-71.56
X233.72Y-97.595
X233.72Y-105.215
X236.26Y-66.48
X236.26Y-69.02
X236.26Y-71.56
X236.26Y-97.595
X236.26Y-105.215
X238.095Y-85.
X238.8Y-66.48
X238.8Y-69.02
X238.8Y-71.56
X238.8Y-97.595
X238.8Y-105.215
X239.365Y-85.
X240.635Y-85.
X241.34Y-66.48
X241.34Y-69.02
X241.34Y-71.56
X241.34Y-97.595
X241.34Y-105.215
X241.905Y-85.
X243.88Y-66.48
X243.88Y-69.02
X243.88Y-71.56
X243.88Y-97.595
X243.88Y-105.215
X246.42Y-66.48
X246.42Y-69.02
X246.42Y-71.56
X246.42Y-97.595
X246.42Y-105.215
X248.095Y-85.
X248.96Y-66.48
X248.96Y-69.02
X248.96Y-71.56
X249.365Y-85.
X250.635Y-85.
X251.905Y-85.
X253.73Y-91.
X253.73Y-93.54
X253.73Y-96.08
X253.73Y-98.62
X253.73Y-101.16
X253.73Y-103.7
X253.73Y-106.24
T3
X210.86Y-73.465
X213.4Y-73.465
X215.94Y-73.465
X218.48Y-73.465
X221.02Y-73.465
X223.56Y-73.465
X226.1Y-73.465
X228.64Y-73.465
X231.18Y-73.465
X232.958Y-108.39
X233.72Y-73.465
X236.26Y-73.465
X238.8Y-73.465
X241.34Y-73.465
X243.88Y-73.465
X246.42Y-73.465
X248.96Y-73.465
T4
X245.15Y-89.495
X245.15Y-92.995
T5
X235.Y-80.46
X235.Y-85.54
X252.77Y-66.988
X252.77Y-72.068
T0
M30
