G04 #@! TF.FileFunction,*
%FSLAX46Y46*%
G04 Gerber Fmt 4.6, Leading zero omitted, Abs format (unit mm)*
G04 Created by KiCad (PCBNEW (2015-01-16 BZR 5376)-product) date 29.3.2015 17:27:47*
%MOMM*%
G01*
G04 APERTURE LIST*
%ADD10C,0.100000*%
G04 APERTURE END LIST*
D10*
X247944000Y-70290000D02*
X247690000Y-70544000D01*
X247690000Y-70544000D02*
X247690000Y-72576000D01*
X247690000Y-72576000D02*
X247944000Y-72830000D01*
X249976000Y-70290000D02*
X250230000Y-70544000D01*
X250230000Y-70544000D02*
X250230000Y-72576000D01*
X250230000Y-72576000D02*
X249976000Y-72830000D01*
X247690000Y-67496000D02*
X247944000Y-67750000D01*
X247944000Y-67750000D02*
X247690000Y-68004000D01*
X247690000Y-68004000D02*
X247690000Y-70036000D01*
X250230000Y-67496000D02*
X249976000Y-67750000D01*
X249976000Y-67750000D02*
X250230000Y-68004000D01*
X250230000Y-68004000D02*
X250230000Y-70036000D01*
X249280000Y-66800000D02*
X248640000Y-66160000D01*
X249280000Y-66160000D02*
X249280000Y-66800000D01*
X249280000Y-66800000D02*
X248640000Y-66800000D01*
X248640000Y-66800000D02*
X248640000Y-66160000D01*
X248640000Y-66160000D02*
X249280000Y-66160000D01*
X249280000Y-66160000D02*
X248640000Y-66800000D01*
X249280000Y-69340000D02*
X248640000Y-68700000D01*
X249280000Y-68700000D02*
X249280000Y-69340000D01*
X249280000Y-69340000D02*
X248640000Y-69340000D01*
X248640000Y-69340000D02*
X248640000Y-68700000D01*
X248640000Y-68700000D02*
X249280000Y-68700000D01*
X249280000Y-68700000D02*
X248640000Y-69340000D01*
X249280000Y-71880000D02*
X248640000Y-71230000D01*
X249280000Y-71240000D02*
X249280000Y-71880000D01*
X249280000Y-71880000D02*
X248640000Y-71880000D01*
X248640000Y-71880000D02*
X248640000Y-71230000D01*
X248640000Y-71240000D02*
X249280000Y-71230000D01*
X249280000Y-71240000D02*
X248640000Y-71880000D01*
X247944000Y-65210000D02*
X249976000Y-65210000D01*
X249976000Y-65210000D02*
X250230000Y-65464000D01*
X250230000Y-65464000D02*
X250230000Y-67496000D01*
X250230000Y-70036000D02*
X249976000Y-70290000D01*
X249976000Y-72830000D02*
X247944000Y-72830000D01*
X247944000Y-70290000D02*
X247690000Y-70036000D01*
X247690000Y-67496000D02*
X247690000Y-65464000D01*
X247690000Y-65464000D02*
X247944000Y-65210000D01*
X245404000Y-70290000D02*
X245150000Y-70544000D01*
X245150000Y-70544000D02*
X245150000Y-72576000D01*
X245150000Y-72576000D02*
X245404000Y-72830000D01*
X247436000Y-70290000D02*
X247690000Y-70544000D01*
X247690000Y-70544000D02*
X247690000Y-72576000D01*
X247690000Y-72576000D02*
X247436000Y-72830000D01*
X245150000Y-67496000D02*
X245404000Y-67750000D01*
X245404000Y-67750000D02*
X245150000Y-68004000D01*
X245150000Y-68004000D02*
X245150000Y-70036000D01*
X247690000Y-67496000D02*
X247436000Y-67750000D01*
X247436000Y-67750000D02*
X247690000Y-68004000D01*
X247690000Y-68004000D02*
X247690000Y-70036000D01*
X246740000Y-66800000D02*
X246100000Y-66160000D01*
X246740000Y-66160000D02*
X246740000Y-66800000D01*
X246740000Y-66800000D02*
X246100000Y-66800000D01*
X246100000Y-66800000D02*
X246100000Y-66160000D01*
X246100000Y-66160000D02*
X246740000Y-66160000D01*
X246740000Y-66160000D02*
X246100000Y-66800000D01*
X246740000Y-69340000D02*
X246100000Y-68700000D01*
X246740000Y-68700000D02*
X246740000Y-69340000D01*
X246740000Y-69340000D02*
X246100000Y-69340000D01*
X246100000Y-69340000D02*
X246100000Y-68700000D01*
X246100000Y-68700000D02*
X246740000Y-68700000D01*
X246740000Y-68700000D02*
X246100000Y-69340000D01*
X246740000Y-71880000D02*
X246100000Y-71230000D01*
X246740000Y-71240000D02*
X246740000Y-71880000D01*
X246740000Y-71880000D02*
X246100000Y-71880000D01*
X246100000Y-71880000D02*
X246100000Y-71230000D01*
X246100000Y-71240000D02*
X246740000Y-71230000D01*
X246740000Y-71240000D02*
X246100000Y-71880000D01*
X245404000Y-65210000D02*
X247436000Y-65210000D01*
X247436000Y-65210000D02*
X247690000Y-65464000D01*
X247690000Y-65464000D02*
X247690000Y-67496000D01*
X247690000Y-70036000D02*
X247436000Y-70290000D01*
X247436000Y-72830000D02*
X245404000Y-72830000D01*
X245404000Y-70290000D02*
X245150000Y-70036000D01*
X245150000Y-67496000D02*
X245150000Y-65464000D01*
X245150000Y-65464000D02*
X245404000Y-65210000D01*
X242864000Y-70290000D02*
X242610000Y-70544000D01*
X242610000Y-70544000D02*
X242610000Y-72576000D01*
X242610000Y-72576000D02*
X242864000Y-72830000D01*
X244896000Y-70290000D02*
X245150000Y-70544000D01*
X245150000Y-70544000D02*
X245150000Y-72576000D01*
X245150000Y-72576000D02*
X244896000Y-72830000D01*
X242610000Y-67496000D02*
X242864000Y-67750000D01*
X242864000Y-67750000D02*
X242610000Y-68004000D01*
X242610000Y-68004000D02*
X242610000Y-70036000D01*
X245150000Y-67496000D02*
X244896000Y-67750000D01*
X244896000Y-67750000D02*
X245150000Y-68004000D01*
X245150000Y-68004000D02*
X245150000Y-70036000D01*
X244200000Y-66800000D02*
X243560000Y-66160000D01*
X244200000Y-66160000D02*
X244200000Y-66800000D01*
X244200000Y-66800000D02*
X243560000Y-66800000D01*
X243560000Y-66800000D02*
X243560000Y-66160000D01*
X243560000Y-66160000D02*
X244200000Y-66160000D01*
X244200000Y-66160000D02*
X243560000Y-66800000D01*
X244200000Y-69340000D02*
X243560000Y-68700000D01*
X244200000Y-68700000D02*
X244200000Y-69340000D01*
X244200000Y-69340000D02*
X243560000Y-69340000D01*
X243560000Y-69340000D02*
X243560000Y-68700000D01*
X243560000Y-68700000D02*
X244200000Y-68700000D01*
X244200000Y-68700000D02*
X243560000Y-69340000D01*
X244200000Y-71880000D02*
X243560000Y-71230000D01*
X244200000Y-71240000D02*
X244200000Y-71880000D01*
X244200000Y-71880000D02*
X243560000Y-71880000D01*
X243560000Y-71880000D02*
X243560000Y-71230000D01*
X243560000Y-71240000D02*
X244200000Y-71230000D01*
X244200000Y-71240000D02*
X243560000Y-71880000D01*
X242864000Y-65210000D02*
X244896000Y-65210000D01*
X244896000Y-65210000D02*
X245150000Y-65464000D01*
X245150000Y-65464000D02*
X245150000Y-67496000D01*
X245150000Y-70036000D02*
X244896000Y-70290000D01*
X244896000Y-72830000D02*
X242864000Y-72830000D01*
X242864000Y-70290000D02*
X242610000Y-70036000D01*
X242610000Y-67496000D02*
X242610000Y-65464000D01*
X242610000Y-65464000D02*
X242864000Y-65210000D01*
X240324000Y-70290000D02*
X240070000Y-70544000D01*
X240070000Y-70544000D02*
X240070000Y-72576000D01*
X240070000Y-72576000D02*
X240324000Y-72830000D01*
X242356000Y-70290000D02*
X242610000Y-70544000D01*
X242610000Y-70544000D02*
X242610000Y-72576000D01*
X242610000Y-72576000D02*
X242356000Y-72830000D01*
X240070000Y-67496000D02*
X240324000Y-67750000D01*
X240324000Y-67750000D02*
X240070000Y-68004000D01*
X240070000Y-68004000D02*
X240070000Y-70036000D01*
X242610000Y-67496000D02*
X242356000Y-67750000D01*
X242356000Y-67750000D02*
X242610000Y-68004000D01*
X242610000Y-68004000D02*
X242610000Y-70036000D01*
X241660000Y-66800000D02*
X241020000Y-66160000D01*
X241660000Y-66160000D02*
X241660000Y-66800000D01*
X241660000Y-66800000D02*
X241020000Y-66800000D01*
X241020000Y-66800000D02*
X241020000Y-66160000D01*
X241020000Y-66160000D02*
X241660000Y-66160000D01*
X241660000Y-66160000D02*
X241020000Y-66800000D01*
X241660000Y-69340000D02*
X241020000Y-68700000D01*
X241660000Y-68700000D02*
X241660000Y-69340000D01*
X241660000Y-69340000D02*
X241020000Y-69340000D01*
X241020000Y-69340000D02*
X241020000Y-68700000D01*
X241020000Y-68700000D02*
X241660000Y-68700000D01*
X241660000Y-68700000D02*
X241020000Y-69340000D01*
X241660000Y-71880000D02*
X241020000Y-71230000D01*
X241660000Y-71240000D02*
X241660000Y-71880000D01*
X241660000Y-71880000D02*
X241020000Y-71880000D01*
X241020000Y-71880000D02*
X241020000Y-71230000D01*
X241020000Y-71240000D02*
X241660000Y-71230000D01*
X241660000Y-71240000D02*
X241020000Y-71880000D01*
X240324000Y-65210000D02*
X242356000Y-65210000D01*
X242356000Y-65210000D02*
X242610000Y-65464000D01*
X242610000Y-65464000D02*
X242610000Y-67496000D01*
X242610000Y-70036000D02*
X242356000Y-70290000D01*
X242356000Y-72830000D02*
X240324000Y-72830000D01*
X240324000Y-70290000D02*
X240070000Y-70036000D01*
X240070000Y-67496000D02*
X240070000Y-65464000D01*
X240070000Y-65464000D02*
X240324000Y-65210000D01*
X237784000Y-70290000D02*
X237530000Y-70544000D01*
X237530000Y-70544000D02*
X237530000Y-72576000D01*
X237530000Y-72576000D02*
X237784000Y-72830000D01*
X239816000Y-70290000D02*
X240070000Y-70544000D01*
X240070000Y-70544000D02*
X240070000Y-72576000D01*
X240070000Y-72576000D02*
X239816000Y-72830000D01*
X237530000Y-67496000D02*
X237784000Y-67750000D01*
X237784000Y-67750000D02*
X237530000Y-68004000D01*
X237530000Y-68004000D02*
X237530000Y-70036000D01*
X240070000Y-67496000D02*
X239816000Y-67750000D01*
X239816000Y-67750000D02*
X240070000Y-68004000D01*
X240070000Y-68004000D02*
X240070000Y-70036000D01*
X239120000Y-66800000D02*
X238480000Y-66160000D01*
X239120000Y-66160000D02*
X239120000Y-66800000D01*
X239120000Y-66800000D02*
X238480000Y-66800000D01*
X238480000Y-66800000D02*
X238480000Y-66160000D01*
X238480000Y-66160000D02*
X239120000Y-66160000D01*
X239120000Y-66160000D02*
X238480000Y-66800000D01*
X239120000Y-69340000D02*
X238480000Y-68700000D01*
X239120000Y-68700000D02*
X239120000Y-69340000D01*
X239120000Y-69340000D02*
X238480000Y-69340000D01*
X238480000Y-69340000D02*
X238480000Y-68700000D01*
X238480000Y-68700000D02*
X239120000Y-68700000D01*
X239120000Y-68700000D02*
X238480000Y-69340000D01*
X239120000Y-71880000D02*
X238480000Y-71230000D01*
X239120000Y-71240000D02*
X239120000Y-71880000D01*
X239120000Y-71880000D02*
X238480000Y-71880000D01*
X238480000Y-71880000D02*
X238480000Y-71230000D01*
X238480000Y-71240000D02*
X239120000Y-71230000D01*
X239120000Y-71240000D02*
X238480000Y-71880000D01*
X237784000Y-65210000D02*
X239816000Y-65210000D01*
X239816000Y-65210000D02*
X240070000Y-65464000D01*
X240070000Y-65464000D02*
X240070000Y-67496000D01*
X240070000Y-70036000D02*
X239816000Y-70290000D01*
X239816000Y-72830000D02*
X237784000Y-72830000D01*
X237784000Y-70290000D02*
X237530000Y-70036000D01*
X237530000Y-67496000D02*
X237530000Y-65464000D01*
X237530000Y-65464000D02*
X237784000Y-65210000D01*
X235244000Y-70290000D02*
X234990000Y-70544000D01*
X234990000Y-70544000D02*
X234990000Y-72576000D01*
X234990000Y-72576000D02*
X235244000Y-72830000D01*
X237276000Y-70290000D02*
X237530000Y-70544000D01*
X237530000Y-70544000D02*
X237530000Y-72576000D01*
X237530000Y-72576000D02*
X237276000Y-72830000D01*
X234990000Y-67496000D02*
X235244000Y-67750000D01*
X235244000Y-67750000D02*
X234990000Y-68004000D01*
X234990000Y-68004000D02*
X234990000Y-70036000D01*
X237530000Y-67496000D02*
X237276000Y-67750000D01*
X237276000Y-67750000D02*
X237530000Y-68004000D01*
X237530000Y-68004000D02*
X237530000Y-70036000D01*
X236580000Y-66800000D02*
X235940000Y-66160000D01*
X236580000Y-66160000D02*
X236580000Y-66800000D01*
X236580000Y-66800000D02*
X235940000Y-66800000D01*
X235940000Y-66800000D02*
X235940000Y-66160000D01*
X235940000Y-66160000D02*
X236580000Y-66160000D01*
X236580000Y-66160000D02*
X235940000Y-66800000D01*
X236580000Y-69340000D02*
X235940000Y-68700000D01*
X236580000Y-68700000D02*
X236580000Y-69340000D01*
X236580000Y-69340000D02*
X235940000Y-69340000D01*
X235940000Y-69340000D02*
X235940000Y-68700000D01*
X235940000Y-68700000D02*
X236580000Y-68700000D01*
X236580000Y-68700000D02*
X235940000Y-69340000D01*
X236580000Y-71880000D02*
X235940000Y-71230000D01*
X236580000Y-71240000D02*
X236580000Y-71880000D01*
X236580000Y-71880000D02*
X235940000Y-71880000D01*
X235940000Y-71880000D02*
X235940000Y-71230000D01*
X235940000Y-71240000D02*
X236580000Y-71230000D01*
X236580000Y-71240000D02*
X235940000Y-71880000D01*
X235244000Y-65210000D02*
X237276000Y-65210000D01*
X237276000Y-65210000D02*
X237530000Y-65464000D01*
X237530000Y-65464000D02*
X237530000Y-67496000D01*
X237530000Y-70036000D02*
X237276000Y-70290000D01*
X237276000Y-72830000D02*
X235244000Y-72830000D01*
X235244000Y-70290000D02*
X234990000Y-70036000D01*
X234990000Y-67496000D02*
X234990000Y-65464000D01*
X234990000Y-65464000D02*
X235244000Y-65210000D01*
X232704000Y-70290000D02*
X232450000Y-70544000D01*
X232450000Y-70544000D02*
X232450000Y-72576000D01*
X232450000Y-72576000D02*
X232704000Y-72830000D01*
X234736000Y-70290000D02*
X234990000Y-70544000D01*
X234990000Y-70544000D02*
X234990000Y-72576000D01*
X234990000Y-72576000D02*
X234736000Y-72830000D01*
X232450000Y-67496000D02*
X232704000Y-67750000D01*
X232704000Y-67750000D02*
X232450000Y-68004000D01*
X232450000Y-68004000D02*
X232450000Y-70036000D01*
X234990000Y-67496000D02*
X234736000Y-67750000D01*
X234736000Y-67750000D02*
X234990000Y-68004000D01*
X234990000Y-68004000D02*
X234990000Y-70036000D01*
X234040000Y-66800000D02*
X233400000Y-66160000D01*
X234040000Y-66160000D02*
X234040000Y-66800000D01*
X234040000Y-66800000D02*
X233400000Y-66800000D01*
X233400000Y-66800000D02*
X233400000Y-66160000D01*
X233400000Y-66160000D02*
X234040000Y-66160000D01*
X234040000Y-66160000D02*
X233400000Y-66800000D01*
X234040000Y-69340000D02*
X233400000Y-68700000D01*
X234040000Y-68700000D02*
X234040000Y-69340000D01*
X234040000Y-69340000D02*
X233400000Y-69340000D01*
X233400000Y-69340000D02*
X233400000Y-68700000D01*
X233400000Y-68700000D02*
X234040000Y-68700000D01*
X234040000Y-68700000D02*
X233400000Y-69340000D01*
X234040000Y-71880000D02*
X233400000Y-71230000D01*
X234040000Y-71240000D02*
X234040000Y-71880000D01*
X234040000Y-71880000D02*
X233400000Y-71880000D01*
X233400000Y-71880000D02*
X233400000Y-71230000D01*
X233400000Y-71240000D02*
X234040000Y-71230000D01*
X234040000Y-71240000D02*
X233400000Y-71880000D01*
X232704000Y-65210000D02*
X234736000Y-65210000D01*
X234736000Y-65210000D02*
X234990000Y-65464000D01*
X234990000Y-65464000D02*
X234990000Y-67496000D01*
X234990000Y-70036000D02*
X234736000Y-70290000D01*
X234736000Y-72830000D02*
X232704000Y-72830000D01*
X232704000Y-70290000D02*
X232450000Y-70036000D01*
X232450000Y-67496000D02*
X232450000Y-65464000D01*
X232450000Y-65464000D02*
X232704000Y-65210000D01*
X230164000Y-70290000D02*
X229910000Y-70544000D01*
X229910000Y-70544000D02*
X229910000Y-72576000D01*
X229910000Y-72576000D02*
X230164000Y-72830000D01*
X232196000Y-70290000D02*
X232450000Y-70544000D01*
X232450000Y-70544000D02*
X232450000Y-72576000D01*
X232450000Y-72576000D02*
X232196000Y-72830000D01*
X229910000Y-67496000D02*
X230164000Y-67750000D01*
X230164000Y-67750000D02*
X229910000Y-68004000D01*
X229910000Y-68004000D02*
X229910000Y-70036000D01*
X232450000Y-67496000D02*
X232196000Y-67750000D01*
X232196000Y-67750000D02*
X232450000Y-68004000D01*
X232450000Y-68004000D02*
X232450000Y-70036000D01*
X231500000Y-66800000D02*
X230860000Y-66160000D01*
X231500000Y-66160000D02*
X231500000Y-66800000D01*
X231500000Y-66800000D02*
X230860000Y-66800000D01*
X230860000Y-66800000D02*
X230860000Y-66160000D01*
X230860000Y-66160000D02*
X231500000Y-66160000D01*
X231500000Y-66160000D02*
X230860000Y-66800000D01*
X231500000Y-69340000D02*
X230860000Y-68700000D01*
X231500000Y-68700000D02*
X231500000Y-69340000D01*
X231500000Y-69340000D02*
X230860000Y-69340000D01*
X230860000Y-69340000D02*
X230860000Y-68700000D01*
X230860000Y-68700000D02*
X231500000Y-68700000D01*
X231500000Y-68700000D02*
X230860000Y-69340000D01*
X231500000Y-71880000D02*
X230860000Y-71230000D01*
X231500000Y-71240000D02*
X231500000Y-71880000D01*
X231500000Y-71880000D02*
X230860000Y-71880000D01*
X230860000Y-71880000D02*
X230860000Y-71230000D01*
X230860000Y-71240000D02*
X231500000Y-71230000D01*
X231500000Y-71240000D02*
X230860000Y-71880000D01*
X230164000Y-65210000D02*
X232196000Y-65210000D01*
X232196000Y-65210000D02*
X232450000Y-65464000D01*
X232450000Y-65464000D02*
X232450000Y-67496000D01*
X232450000Y-70036000D02*
X232196000Y-70290000D01*
X232196000Y-72830000D02*
X230164000Y-72830000D01*
X230164000Y-70290000D02*
X229910000Y-70036000D01*
X229910000Y-67496000D02*
X229910000Y-65464000D01*
X229910000Y-65464000D02*
X230164000Y-65210000D01*
X227624000Y-70290000D02*
X227370000Y-70544000D01*
X227370000Y-70544000D02*
X227370000Y-72576000D01*
X227370000Y-72576000D02*
X227624000Y-72830000D01*
X229656000Y-70290000D02*
X229910000Y-70544000D01*
X229910000Y-70544000D02*
X229910000Y-72576000D01*
X229910000Y-72576000D02*
X229656000Y-72830000D01*
X227370000Y-67496000D02*
X227624000Y-67750000D01*
X227624000Y-67750000D02*
X227370000Y-68004000D01*
X227370000Y-68004000D02*
X227370000Y-70036000D01*
X229910000Y-67496000D02*
X229656000Y-67750000D01*
X229656000Y-67750000D02*
X229910000Y-68004000D01*
X229910000Y-68004000D02*
X229910000Y-70036000D01*
X228960000Y-66800000D02*
X228320000Y-66160000D01*
X228960000Y-66160000D02*
X228960000Y-66800000D01*
X228960000Y-66800000D02*
X228320000Y-66800000D01*
X228320000Y-66800000D02*
X228320000Y-66160000D01*
X228320000Y-66160000D02*
X228960000Y-66160000D01*
X228960000Y-66160000D02*
X228320000Y-66800000D01*
X228960000Y-69340000D02*
X228320000Y-68700000D01*
X228960000Y-68700000D02*
X228960000Y-69340000D01*
X228960000Y-69340000D02*
X228320000Y-69340000D01*
X228320000Y-69340000D02*
X228320000Y-68700000D01*
X228320000Y-68700000D02*
X228960000Y-68700000D01*
X228960000Y-68700000D02*
X228320000Y-69340000D01*
X228960000Y-71880000D02*
X228320000Y-71230000D01*
X228960000Y-71240000D02*
X228960000Y-71880000D01*
X228960000Y-71880000D02*
X228320000Y-71880000D01*
X228320000Y-71880000D02*
X228320000Y-71230000D01*
X228320000Y-71240000D02*
X228960000Y-71230000D01*
X228960000Y-71240000D02*
X228320000Y-71880000D01*
X227624000Y-65210000D02*
X229656000Y-65210000D01*
X229656000Y-65210000D02*
X229910000Y-65464000D01*
X229910000Y-65464000D02*
X229910000Y-67496000D01*
X229910000Y-70036000D02*
X229656000Y-70290000D01*
X229656000Y-72830000D02*
X227624000Y-72830000D01*
X227624000Y-70290000D02*
X227370000Y-70036000D01*
X227370000Y-67496000D02*
X227370000Y-65464000D01*
X227370000Y-65464000D02*
X227624000Y-65210000D01*
X225084000Y-70290000D02*
X224830000Y-70544000D01*
X224830000Y-70544000D02*
X224830000Y-72576000D01*
X224830000Y-72576000D02*
X225084000Y-72830000D01*
X227116000Y-70290000D02*
X227370000Y-70544000D01*
X227370000Y-70544000D02*
X227370000Y-72576000D01*
X227370000Y-72576000D02*
X227116000Y-72830000D01*
X224830000Y-67496000D02*
X225084000Y-67750000D01*
X225084000Y-67750000D02*
X224830000Y-68004000D01*
X224830000Y-68004000D02*
X224830000Y-70036000D01*
X227370000Y-67496000D02*
X227116000Y-67750000D01*
X227116000Y-67750000D02*
X227370000Y-68004000D01*
X227370000Y-68004000D02*
X227370000Y-70036000D01*
X226420000Y-66800000D02*
X225780000Y-66160000D01*
X226420000Y-66160000D02*
X226420000Y-66800000D01*
X226420000Y-66800000D02*
X225780000Y-66800000D01*
X225780000Y-66800000D02*
X225780000Y-66160000D01*
X225780000Y-66160000D02*
X226420000Y-66160000D01*
X226420000Y-66160000D02*
X225780000Y-66800000D01*
X226420000Y-69340000D02*
X225780000Y-68700000D01*
X226420000Y-68700000D02*
X226420000Y-69340000D01*
X226420000Y-69340000D02*
X225780000Y-69340000D01*
X225780000Y-69340000D02*
X225780000Y-68700000D01*
X225780000Y-68700000D02*
X226420000Y-68700000D01*
X226420000Y-68700000D02*
X225780000Y-69340000D01*
X226420000Y-71880000D02*
X225780000Y-71230000D01*
X226420000Y-71240000D02*
X226420000Y-71880000D01*
X226420000Y-71880000D02*
X225780000Y-71880000D01*
X225780000Y-71880000D02*
X225780000Y-71230000D01*
X225780000Y-71240000D02*
X226420000Y-71230000D01*
X226420000Y-71240000D02*
X225780000Y-71880000D01*
X225084000Y-65210000D02*
X227116000Y-65210000D01*
X227116000Y-65210000D02*
X227370000Y-65464000D01*
X227370000Y-65464000D02*
X227370000Y-67496000D01*
X227370000Y-70036000D02*
X227116000Y-70290000D01*
X227116000Y-72830000D02*
X225084000Y-72830000D01*
X225084000Y-70290000D02*
X224830000Y-70036000D01*
X224830000Y-67496000D02*
X224830000Y-65464000D01*
X224830000Y-65464000D02*
X225084000Y-65210000D01*
X222544000Y-70290000D02*
X222290000Y-70544000D01*
X222290000Y-70544000D02*
X222290000Y-72576000D01*
X222290000Y-72576000D02*
X222544000Y-72830000D01*
X224576000Y-70290000D02*
X224830000Y-70544000D01*
X224830000Y-70544000D02*
X224830000Y-72576000D01*
X224830000Y-72576000D02*
X224576000Y-72830000D01*
X222290000Y-67496000D02*
X222544000Y-67750000D01*
X222544000Y-67750000D02*
X222290000Y-68004000D01*
X222290000Y-68004000D02*
X222290000Y-70036000D01*
X224830000Y-67496000D02*
X224576000Y-67750000D01*
X224576000Y-67750000D02*
X224830000Y-68004000D01*
X224830000Y-68004000D02*
X224830000Y-70036000D01*
X223880000Y-66800000D02*
X223240000Y-66160000D01*
X223880000Y-66160000D02*
X223880000Y-66800000D01*
X223880000Y-66800000D02*
X223240000Y-66800000D01*
X223240000Y-66800000D02*
X223240000Y-66160000D01*
X223240000Y-66160000D02*
X223880000Y-66160000D01*
X223880000Y-66160000D02*
X223240000Y-66800000D01*
X223880000Y-69340000D02*
X223240000Y-68700000D01*
X223880000Y-68700000D02*
X223880000Y-69340000D01*
X223880000Y-69340000D02*
X223240000Y-69340000D01*
X223240000Y-69340000D02*
X223240000Y-68700000D01*
X223240000Y-68700000D02*
X223880000Y-68700000D01*
X223880000Y-68700000D02*
X223240000Y-69340000D01*
X223880000Y-71880000D02*
X223240000Y-71230000D01*
X223880000Y-71240000D02*
X223880000Y-71880000D01*
X223880000Y-71880000D02*
X223240000Y-71880000D01*
X223240000Y-71880000D02*
X223240000Y-71230000D01*
X223240000Y-71240000D02*
X223880000Y-71230000D01*
X223880000Y-71240000D02*
X223240000Y-71880000D01*
X222544000Y-65210000D02*
X224576000Y-65210000D01*
X224576000Y-65210000D02*
X224830000Y-65464000D01*
X224830000Y-65464000D02*
X224830000Y-67496000D01*
X224830000Y-70036000D02*
X224576000Y-70290000D01*
X224576000Y-72830000D02*
X222544000Y-72830000D01*
X222544000Y-70290000D02*
X222290000Y-70036000D01*
X222290000Y-67496000D02*
X222290000Y-65464000D01*
X222290000Y-65464000D02*
X222544000Y-65210000D01*
X220004000Y-70290000D02*
X219750000Y-70544000D01*
X219750000Y-70544000D02*
X219750000Y-72576000D01*
X219750000Y-72576000D02*
X220004000Y-72830000D01*
X222036000Y-70290000D02*
X222290000Y-70544000D01*
X222290000Y-70544000D02*
X222290000Y-72576000D01*
X222290000Y-72576000D02*
X222036000Y-72830000D01*
X219750000Y-67496000D02*
X220004000Y-67750000D01*
X220004000Y-67750000D02*
X219750000Y-68004000D01*
X219750000Y-68004000D02*
X219750000Y-70036000D01*
X222290000Y-67496000D02*
X222036000Y-67750000D01*
X222036000Y-67750000D02*
X222290000Y-68004000D01*
X222290000Y-68004000D02*
X222290000Y-70036000D01*
X221340000Y-66800000D02*
X220700000Y-66160000D01*
X221340000Y-66160000D02*
X221340000Y-66800000D01*
X221340000Y-66800000D02*
X220700000Y-66800000D01*
X220700000Y-66800000D02*
X220700000Y-66160000D01*
X220700000Y-66160000D02*
X221340000Y-66160000D01*
X221340000Y-66160000D02*
X220700000Y-66800000D01*
X221340000Y-69340000D02*
X220700000Y-68700000D01*
X221340000Y-68700000D02*
X221340000Y-69340000D01*
X221340000Y-69340000D02*
X220700000Y-69340000D01*
X220700000Y-69340000D02*
X220700000Y-68700000D01*
X220700000Y-68700000D02*
X221340000Y-68700000D01*
X221340000Y-68700000D02*
X220700000Y-69340000D01*
X221340000Y-71880000D02*
X220700000Y-71230000D01*
X221340000Y-71240000D02*
X221340000Y-71880000D01*
X221340000Y-71880000D02*
X220700000Y-71880000D01*
X220700000Y-71880000D02*
X220700000Y-71230000D01*
X220700000Y-71240000D02*
X221340000Y-71230000D01*
X221340000Y-71240000D02*
X220700000Y-71880000D01*
X220004000Y-65210000D02*
X222036000Y-65210000D01*
X222036000Y-65210000D02*
X222290000Y-65464000D01*
X222290000Y-65464000D02*
X222290000Y-67496000D01*
X222290000Y-70036000D02*
X222036000Y-70290000D01*
X222036000Y-72830000D02*
X220004000Y-72830000D01*
X220004000Y-70290000D02*
X219750000Y-70036000D01*
X219750000Y-67496000D02*
X219750000Y-65464000D01*
X219750000Y-65464000D02*
X220004000Y-65210000D01*
X217464000Y-70290000D02*
X217210000Y-70544000D01*
X217210000Y-70544000D02*
X217210000Y-72576000D01*
X217210000Y-72576000D02*
X217464000Y-72830000D01*
X219496000Y-70290000D02*
X219750000Y-70544000D01*
X219750000Y-70544000D02*
X219750000Y-72576000D01*
X219750000Y-72576000D02*
X219496000Y-72830000D01*
X217210000Y-67496000D02*
X217464000Y-67750000D01*
X217464000Y-67750000D02*
X217210000Y-68004000D01*
X217210000Y-68004000D02*
X217210000Y-70036000D01*
X219750000Y-67496000D02*
X219496000Y-67750000D01*
X219496000Y-67750000D02*
X219750000Y-68004000D01*
X219750000Y-68004000D02*
X219750000Y-70036000D01*
X218800000Y-66800000D02*
X218160000Y-66160000D01*
X218800000Y-66160000D02*
X218800000Y-66800000D01*
X218800000Y-66800000D02*
X218160000Y-66800000D01*
X218160000Y-66800000D02*
X218160000Y-66160000D01*
X218160000Y-66160000D02*
X218800000Y-66160000D01*
X218800000Y-66160000D02*
X218160000Y-66800000D01*
X218800000Y-69340000D02*
X218160000Y-68700000D01*
X218800000Y-68700000D02*
X218800000Y-69340000D01*
X218800000Y-69340000D02*
X218160000Y-69340000D01*
X218160000Y-69340000D02*
X218160000Y-68700000D01*
X218160000Y-68700000D02*
X218800000Y-68700000D01*
X218800000Y-68700000D02*
X218160000Y-69340000D01*
X218800000Y-71880000D02*
X218160000Y-71230000D01*
X218800000Y-71240000D02*
X218800000Y-71880000D01*
X218800000Y-71880000D02*
X218160000Y-71880000D01*
X218160000Y-71880000D02*
X218160000Y-71230000D01*
X218160000Y-71240000D02*
X218800000Y-71230000D01*
X218800000Y-71240000D02*
X218160000Y-71880000D01*
X217464000Y-65210000D02*
X219496000Y-65210000D01*
X219496000Y-65210000D02*
X219750000Y-65464000D01*
X219750000Y-65464000D02*
X219750000Y-67496000D01*
X219750000Y-70036000D02*
X219496000Y-70290000D01*
X219496000Y-72830000D02*
X217464000Y-72830000D01*
X217464000Y-70290000D02*
X217210000Y-70036000D01*
X217210000Y-67496000D02*
X217210000Y-65464000D01*
X217210000Y-65464000D02*
X217464000Y-65210000D01*
X214924000Y-70290000D02*
X214670000Y-70544000D01*
X214670000Y-70544000D02*
X214670000Y-72576000D01*
X214670000Y-72576000D02*
X214924000Y-72830000D01*
X216956000Y-70290000D02*
X217210000Y-70544000D01*
X217210000Y-70544000D02*
X217210000Y-72576000D01*
X217210000Y-72576000D02*
X216956000Y-72830000D01*
X214670000Y-67496000D02*
X214924000Y-67750000D01*
X214924000Y-67750000D02*
X214670000Y-68004000D01*
X214670000Y-68004000D02*
X214670000Y-70036000D01*
X217210000Y-67496000D02*
X216956000Y-67750000D01*
X216956000Y-67750000D02*
X217210000Y-68004000D01*
X217210000Y-68004000D02*
X217210000Y-70036000D01*
X216260000Y-66800000D02*
X215620000Y-66160000D01*
X216260000Y-66160000D02*
X216260000Y-66800000D01*
X216260000Y-66800000D02*
X215620000Y-66800000D01*
X215620000Y-66800000D02*
X215620000Y-66160000D01*
X215620000Y-66160000D02*
X216260000Y-66160000D01*
X216260000Y-66160000D02*
X215620000Y-66800000D01*
X216260000Y-69340000D02*
X215620000Y-68700000D01*
X216260000Y-68700000D02*
X216260000Y-69340000D01*
X216260000Y-69340000D02*
X215620000Y-69340000D01*
X215620000Y-69340000D02*
X215620000Y-68700000D01*
X215620000Y-68700000D02*
X216260000Y-68700000D01*
X216260000Y-68700000D02*
X215620000Y-69340000D01*
X216260000Y-71880000D02*
X215620000Y-71230000D01*
X216260000Y-71240000D02*
X216260000Y-71880000D01*
X216260000Y-71880000D02*
X215620000Y-71880000D01*
X215620000Y-71880000D02*
X215620000Y-71230000D01*
X215620000Y-71240000D02*
X216260000Y-71230000D01*
X216260000Y-71240000D02*
X215620000Y-71880000D01*
X214924000Y-65210000D02*
X216956000Y-65210000D01*
X216956000Y-65210000D02*
X217210000Y-65464000D01*
X217210000Y-65464000D02*
X217210000Y-67496000D01*
X217210000Y-70036000D02*
X216956000Y-70290000D01*
X216956000Y-72830000D02*
X214924000Y-72830000D01*
X214924000Y-70290000D02*
X214670000Y-70036000D01*
X214670000Y-67496000D02*
X214670000Y-65464000D01*
X214670000Y-65464000D02*
X214924000Y-65210000D01*
X212384000Y-70290000D02*
X212130000Y-70544000D01*
X212130000Y-70544000D02*
X212130000Y-72576000D01*
X212130000Y-72576000D02*
X212384000Y-72830000D01*
X214416000Y-70290000D02*
X214670000Y-70544000D01*
X214670000Y-70544000D02*
X214670000Y-72576000D01*
X214670000Y-72576000D02*
X214416000Y-72830000D01*
X212130000Y-67496000D02*
X212384000Y-67750000D01*
X212384000Y-67750000D02*
X212130000Y-68004000D01*
X212130000Y-68004000D02*
X212130000Y-70036000D01*
X214670000Y-67496000D02*
X214416000Y-67750000D01*
X214416000Y-67750000D02*
X214670000Y-68004000D01*
X214670000Y-68004000D02*
X214670000Y-70036000D01*
X213720000Y-66800000D02*
X213080000Y-66160000D01*
X213720000Y-66160000D02*
X213720000Y-66800000D01*
X213720000Y-66800000D02*
X213080000Y-66800000D01*
X213080000Y-66800000D02*
X213080000Y-66160000D01*
X213080000Y-66160000D02*
X213720000Y-66160000D01*
X213720000Y-66160000D02*
X213080000Y-66800000D01*
X213720000Y-69340000D02*
X213080000Y-68700000D01*
X213720000Y-68700000D02*
X213720000Y-69340000D01*
X213720000Y-69340000D02*
X213080000Y-69340000D01*
X213080000Y-69340000D02*
X213080000Y-68700000D01*
X213080000Y-68700000D02*
X213720000Y-68700000D01*
X213720000Y-68700000D02*
X213080000Y-69340000D01*
X213720000Y-71880000D02*
X213080000Y-71230000D01*
X213720000Y-71240000D02*
X213720000Y-71880000D01*
X213720000Y-71880000D02*
X213080000Y-71880000D01*
X213080000Y-71880000D02*
X213080000Y-71230000D01*
X213080000Y-71240000D02*
X213720000Y-71230000D01*
X213720000Y-71240000D02*
X213080000Y-71880000D01*
X212384000Y-65210000D02*
X214416000Y-65210000D01*
X214416000Y-65210000D02*
X214670000Y-65464000D01*
X214670000Y-65464000D02*
X214670000Y-67496000D01*
X214670000Y-70036000D02*
X214416000Y-70290000D01*
X214416000Y-72830000D02*
X212384000Y-72830000D01*
X212384000Y-70290000D02*
X212130000Y-70036000D01*
X212130000Y-67496000D02*
X212130000Y-65464000D01*
X212130000Y-65464000D02*
X212384000Y-65210000D01*
X209844000Y-70290000D02*
X209590000Y-70544000D01*
X209590000Y-70544000D02*
X209590000Y-72576000D01*
X209590000Y-72576000D02*
X209844000Y-72830000D01*
X211876000Y-70290000D02*
X212130000Y-70544000D01*
X212130000Y-70544000D02*
X212130000Y-72576000D01*
X212130000Y-72576000D02*
X211876000Y-72830000D01*
X209590000Y-67496000D02*
X209844000Y-67750000D01*
X209844000Y-67750000D02*
X209590000Y-68004000D01*
X209590000Y-68004000D02*
X209590000Y-70036000D01*
X212130000Y-67496000D02*
X211876000Y-67750000D01*
X211876000Y-67750000D02*
X212130000Y-68004000D01*
X212130000Y-68004000D02*
X212130000Y-70036000D01*
X211180000Y-66800000D02*
X210540000Y-66160000D01*
X211180000Y-66160000D02*
X211180000Y-66800000D01*
X211180000Y-66800000D02*
X210540000Y-66800000D01*
X210540000Y-66800000D02*
X210540000Y-66160000D01*
X210540000Y-66160000D02*
X211180000Y-66160000D01*
X211180000Y-66160000D02*
X210540000Y-66800000D01*
X211180000Y-69340000D02*
X210540000Y-68700000D01*
X211180000Y-68700000D02*
X211180000Y-69340000D01*
X211180000Y-69340000D02*
X210540000Y-69340000D01*
X210540000Y-69340000D02*
X210540000Y-68700000D01*
X210540000Y-68700000D02*
X211180000Y-68700000D01*
X211180000Y-68700000D02*
X210540000Y-69340000D01*
X211180000Y-71880000D02*
X210540000Y-71230000D01*
X211180000Y-71240000D02*
X211180000Y-71880000D01*
X211180000Y-71880000D02*
X210540000Y-71880000D01*
X210540000Y-71880000D02*
X210540000Y-71230000D01*
X210540000Y-71240000D02*
X211180000Y-71230000D01*
X211180000Y-71240000D02*
X210540000Y-71880000D01*
X209844000Y-65210000D02*
X211876000Y-65210000D01*
X211876000Y-65210000D02*
X212130000Y-65464000D01*
X212130000Y-65464000D02*
X212130000Y-67496000D01*
X212130000Y-70036000D02*
X211876000Y-70290000D01*
X211876000Y-72830000D02*
X209844000Y-72830000D01*
X209844000Y-70290000D02*
X209590000Y-70036000D01*
X209590000Y-67496000D02*
X209590000Y-65464000D01*
X209590000Y-65464000D02*
X209844000Y-65210000D01*
X254050000Y-105920000D02*
X253410000Y-106560000D01*
X253410000Y-105920000D02*
X254050000Y-105920000D01*
X253410000Y-106560000D02*
X253410000Y-105920000D01*
X254050000Y-106560000D02*
X253410000Y-106560000D01*
X254050000Y-105920000D02*
X254050000Y-106560000D01*
X254050000Y-106560000D02*
X253410000Y-105920000D01*
X252460000Y-105224000D02*
X252714000Y-104970000D01*
X252460000Y-107256000D02*
X252460000Y-105224000D01*
X252714000Y-107510000D02*
X252460000Y-107256000D01*
X254746000Y-107510000D02*
X252714000Y-107510000D01*
X255000000Y-107256000D02*
X254746000Y-107510000D01*
X255000000Y-105224000D02*
X255000000Y-107256000D01*
X254746000Y-104970000D02*
X255000000Y-105224000D01*
X254746000Y-102430000D02*
X255000000Y-102684000D01*
X255000000Y-102684000D02*
X255000000Y-104716000D01*
X255000000Y-104716000D02*
X254746000Y-104970000D01*
X252714000Y-104970000D02*
X252460000Y-104716000D01*
X252460000Y-104716000D02*
X252460000Y-102684000D01*
X252460000Y-102684000D02*
X252714000Y-102430000D01*
X254746000Y-99890000D02*
X255000000Y-100144000D01*
X255000000Y-100144000D02*
X255000000Y-102176000D01*
X255000000Y-102176000D02*
X254746000Y-102430000D01*
X252714000Y-102430000D02*
X252460000Y-102176000D01*
X252460000Y-102176000D02*
X252460000Y-100144000D01*
X252460000Y-100144000D02*
X252714000Y-99890000D01*
X254746000Y-97350000D02*
X255000000Y-97604000D01*
X255000000Y-97604000D02*
X255000000Y-99636000D01*
X255000000Y-99636000D02*
X254746000Y-99890000D01*
X252714000Y-99890000D02*
X252460000Y-99636000D01*
X252460000Y-99636000D02*
X252460000Y-97604000D01*
X252460000Y-97604000D02*
X252714000Y-97350000D01*
X252714000Y-94810000D02*
X252460000Y-95064000D01*
X252460000Y-95064000D02*
X252460000Y-97096000D01*
X252460000Y-97096000D02*
X252714000Y-97350000D01*
X254746000Y-94810000D02*
X255000000Y-95064000D01*
X255000000Y-95064000D02*
X255000000Y-97096000D01*
X255000000Y-97096000D02*
X254746000Y-97350000D01*
X252460000Y-92016000D02*
X252714000Y-92270000D01*
X252714000Y-92270000D02*
X252460000Y-92524000D01*
X252460000Y-92524000D02*
X252460000Y-94556000D01*
X255000000Y-92016000D02*
X254746000Y-92270000D01*
X254746000Y-92270000D02*
X255000000Y-92524000D01*
X255000000Y-92524000D02*
X255000000Y-94556000D01*
X254050000Y-91320000D02*
X253410000Y-90680000D01*
X254050000Y-90680000D02*
X254050000Y-91320000D01*
X254050000Y-91320000D02*
X253410000Y-91320000D01*
X253410000Y-91320000D02*
X253410000Y-90680000D01*
X253410000Y-90680000D02*
X254050000Y-90680000D01*
X254050000Y-90680000D02*
X253410000Y-91320000D01*
X254050000Y-93860000D02*
X253410000Y-93220000D01*
X254050000Y-93220000D02*
X254050000Y-93860000D01*
X254050000Y-93860000D02*
X253410000Y-93860000D01*
X253410000Y-93860000D02*
X253410000Y-93220000D01*
X253410000Y-93220000D02*
X254050000Y-93220000D01*
X254050000Y-93220000D02*
X253410000Y-93860000D01*
X254050000Y-96400000D02*
X253410000Y-95760000D01*
X254050000Y-95760000D02*
X254050000Y-96400000D01*
X254050000Y-96400000D02*
X253410000Y-96400000D01*
X253410000Y-96400000D02*
X253410000Y-95760000D01*
X253410000Y-95760000D02*
X254050000Y-95760000D01*
X254050000Y-95760000D02*
X253410000Y-96400000D01*
X254050000Y-98940000D02*
X253410000Y-98300000D01*
X254050000Y-98300000D02*
X254050000Y-98940000D01*
X254050000Y-98940000D02*
X253410000Y-98940000D01*
X253410000Y-98940000D02*
X253410000Y-98300000D01*
X253410000Y-98300000D02*
X254050000Y-98300000D01*
X254050000Y-98300000D02*
X253410000Y-98940000D01*
X254050000Y-101480000D02*
X253410000Y-100840000D01*
X254050000Y-100840000D02*
X254050000Y-101480000D01*
X254050000Y-101480000D02*
X253410000Y-101480000D01*
X253410000Y-101480000D02*
X253410000Y-100840000D01*
X253410000Y-100840000D02*
X254050000Y-100840000D01*
X254050000Y-100840000D02*
X253410000Y-101480000D01*
X254050000Y-104020000D02*
X253410000Y-103380000D01*
X254050000Y-103380000D02*
X254050000Y-104020000D01*
X254050000Y-104020000D02*
X253410000Y-104020000D01*
X253410000Y-104020000D02*
X253410000Y-103380000D01*
X253410000Y-103380000D02*
X254050000Y-103380000D01*
X254050000Y-103380000D02*
X253410000Y-104020000D01*
X252714000Y-89730000D02*
X254746000Y-89730000D01*
X254746000Y-89730000D02*
X255000000Y-89984000D01*
X255000000Y-89984000D02*
X255000000Y-92016000D01*
X255000000Y-94556000D02*
X254746000Y-94810000D01*
X252714000Y-94810000D02*
X252460000Y-94556000D01*
X252460000Y-92016000D02*
X252460000Y-89984000D01*
X252460000Y-89984000D02*
X252714000Y-89730000D01*
X206590000Y-105920000D02*
X205950000Y-106560000D01*
X205950000Y-105920000D02*
X206590000Y-105920000D01*
X205950000Y-106560000D02*
X205950000Y-105920000D01*
X206590000Y-106560000D02*
X205950000Y-106560000D01*
X206590000Y-105920000D02*
X206590000Y-106560000D01*
X206590000Y-106560000D02*
X205950000Y-105920000D01*
X205000000Y-105224000D02*
X205254000Y-104970000D01*
X205000000Y-107256000D02*
X205000000Y-105224000D01*
X205254000Y-107510000D02*
X205000000Y-107256000D01*
X207286000Y-107510000D02*
X205254000Y-107510000D01*
X207540000Y-107256000D02*
X207286000Y-107510000D01*
X207540000Y-105224000D02*
X207540000Y-107256000D01*
X207286000Y-104970000D02*
X207540000Y-105224000D01*
X207286000Y-102430000D02*
X207540000Y-102684000D01*
X207540000Y-102684000D02*
X207540000Y-104716000D01*
X207540000Y-104716000D02*
X207286000Y-104970000D01*
X205254000Y-104970000D02*
X205000000Y-104716000D01*
X205000000Y-104716000D02*
X205000000Y-102684000D01*
X205000000Y-102684000D02*
X205254000Y-102430000D01*
X207286000Y-99890000D02*
X207540000Y-100144000D01*
X207540000Y-100144000D02*
X207540000Y-102176000D01*
X207540000Y-102176000D02*
X207286000Y-102430000D01*
X205254000Y-102430000D02*
X205000000Y-102176000D01*
X205000000Y-102176000D02*
X205000000Y-100144000D01*
X205000000Y-100144000D02*
X205254000Y-99890000D01*
X207286000Y-97350000D02*
X207540000Y-97604000D01*
X207540000Y-97604000D02*
X207540000Y-99636000D01*
X207540000Y-99636000D02*
X207286000Y-99890000D01*
X205254000Y-99890000D02*
X205000000Y-99636000D01*
X205000000Y-99636000D02*
X205000000Y-97604000D01*
X205000000Y-97604000D02*
X205254000Y-97350000D01*
X205254000Y-94810000D02*
X205000000Y-95064000D01*
X205000000Y-95064000D02*
X205000000Y-97096000D01*
X205000000Y-97096000D02*
X205254000Y-97350000D01*
X207286000Y-94810000D02*
X207540000Y-95064000D01*
X207540000Y-95064000D02*
X207540000Y-97096000D01*
X207540000Y-97096000D02*
X207286000Y-97350000D01*
X205000000Y-92016000D02*
X205254000Y-92270000D01*
X205254000Y-92270000D02*
X205000000Y-92524000D01*
X205000000Y-92524000D02*
X205000000Y-94556000D01*
X207540000Y-92016000D02*
X207286000Y-92270000D01*
X207286000Y-92270000D02*
X207540000Y-92524000D01*
X207540000Y-92524000D02*
X207540000Y-94556000D01*
X206590000Y-91320000D02*
X205950000Y-90680000D01*
X206590000Y-90680000D02*
X206590000Y-91320000D01*
X206590000Y-91320000D02*
X205950000Y-91320000D01*
X205950000Y-91320000D02*
X205950000Y-90680000D01*
X205950000Y-90680000D02*
X206590000Y-90680000D01*
X206590000Y-90680000D02*
X205950000Y-91320000D01*
X206590000Y-93860000D02*
X205950000Y-93220000D01*
X206590000Y-93220000D02*
X206590000Y-93860000D01*
X206590000Y-93860000D02*
X205950000Y-93860000D01*
X205950000Y-93860000D02*
X205950000Y-93220000D01*
X205950000Y-93220000D02*
X206590000Y-93220000D01*
X206590000Y-93220000D02*
X205950000Y-93860000D01*
X206590000Y-96400000D02*
X205950000Y-95760000D01*
X206590000Y-95760000D02*
X206590000Y-96400000D01*
X206590000Y-96400000D02*
X205950000Y-96400000D01*
X205950000Y-96400000D02*
X205950000Y-95760000D01*
X205950000Y-95760000D02*
X206590000Y-95760000D01*
X206590000Y-95760000D02*
X205950000Y-96400000D01*
X206590000Y-98940000D02*
X205950000Y-98300000D01*
X206590000Y-98300000D02*
X206590000Y-98940000D01*
X206590000Y-98940000D02*
X205950000Y-98940000D01*
X205950000Y-98940000D02*
X205950000Y-98300000D01*
X205950000Y-98300000D02*
X206590000Y-98300000D01*
X206590000Y-98300000D02*
X205950000Y-98940000D01*
X206590000Y-101480000D02*
X205950000Y-100840000D01*
X206590000Y-100840000D02*
X206590000Y-101480000D01*
X206590000Y-101480000D02*
X205950000Y-101480000D01*
X205950000Y-101480000D02*
X205950000Y-100840000D01*
X205950000Y-100840000D02*
X206590000Y-100840000D01*
X206590000Y-100840000D02*
X205950000Y-101480000D01*
X206590000Y-104020000D02*
X205950000Y-103380000D01*
X206590000Y-103380000D02*
X206590000Y-104020000D01*
X206590000Y-104020000D02*
X205950000Y-104020000D01*
X205950000Y-104020000D02*
X205950000Y-103380000D01*
X205950000Y-103380000D02*
X206590000Y-103380000D01*
X206590000Y-103380000D02*
X205950000Y-104020000D01*
X205254000Y-89730000D02*
X207286000Y-89730000D01*
X207286000Y-89730000D02*
X207540000Y-89984000D01*
X207540000Y-89984000D02*
X207540000Y-92016000D01*
X207540000Y-94556000D02*
X207286000Y-94810000D01*
X205254000Y-94810000D02*
X205000000Y-94556000D01*
X205000000Y-92016000D02*
X205000000Y-89984000D01*
X205000000Y-89984000D02*
X205254000Y-89730000D01*
X247310000Y-101405000D02*
G75*
G03X247710000Y-101805000I400000J0D01*
G01*
X247710000Y-101005000D02*
G75*
G03X247310000Y-101405000I0J-400000D01*
G01*
X212110000Y-98205000D02*
X247710000Y-98205000D01*
X247710000Y-104605000D02*
X212110000Y-104605000D01*
X247710000Y-101005000D02*
X247710000Y-98205000D01*
X247710000Y-104605000D02*
X247710000Y-101805000D01*
X212110000Y-104605000D02*
X212110000Y-98205000D01*
X226338000Y-108990000D02*
X224338000Y-108990000D01*
X224338000Y-108990000D02*
X224338000Y-107790000D01*
X224338000Y-107790000D02*
X226338000Y-107790000D01*
X226338000Y-107790000D02*
X226338000Y-108990000D01*
X212500000Y-83550000D02*
X212500000Y-86450000D01*
X207100000Y-85000000D02*
G75*
G03X210000000Y-87900000I2900000J0D01*
G01*
X212496152Y-86476220D02*
G75*
G02X210000000Y-87900000I-2496152J1476220D01*
G01*
X210000000Y-82100000D02*
G75*
G03X207100000Y-85000000I0J-2900000D01*
G01*
X212496152Y-83523780D02*
G75*
G03X210000000Y-82100000I-2496152J-1476220D01*
G01*
X212500000Y-85000000D02*
G75*
G03X212500000Y-85000000I-2500000J0D01*
G01*
X222500000Y-83550000D02*
X222500000Y-86450000D01*
X217100000Y-85000000D02*
G75*
G03X220000000Y-87900000I2900000J0D01*
G01*
X222496152Y-86476220D02*
G75*
G02X220000000Y-87900000I-2496152J1476220D01*
G01*
X220000000Y-82100000D02*
G75*
G03X217100000Y-85000000I0J-2900000D01*
G01*
X222496152Y-83523780D02*
G75*
G03X220000000Y-82100000I-2496152J-1476220D01*
G01*
X222500000Y-85000000D02*
G75*
G03X222500000Y-85000000I-2500000J0D01*
G01*
X232500000Y-83550000D02*
X232500000Y-86450000D01*
X227100000Y-85000000D02*
G75*
G03X230000000Y-87900000I2900000J0D01*
G01*
X232496152Y-86476220D02*
G75*
G02X230000000Y-87900000I-2496152J1476220D01*
G01*
X230000000Y-82100000D02*
G75*
G03X227100000Y-85000000I0J-2900000D01*
G01*
X232496152Y-83523780D02*
G75*
G03X230000000Y-82100000I-2496152J-1476220D01*
G01*
X232500000Y-85000000D02*
G75*
G03X232500000Y-85000000I-2500000J0D01*
G01*
X242500000Y-83550000D02*
X242500000Y-86450000D01*
X237100000Y-85000000D02*
G75*
G03X240000000Y-87900000I2900000J0D01*
G01*
X242496152Y-86476220D02*
G75*
G02X240000000Y-87900000I-2496152J1476220D01*
G01*
X240000000Y-82100000D02*
G75*
G03X237100000Y-85000000I0J-2900000D01*
G01*
X242496152Y-83523780D02*
G75*
G03X240000000Y-82100000I-2496152J-1476220D01*
G01*
X242500000Y-85000000D02*
G75*
G03X242500000Y-85000000I-2500000J0D01*
G01*
X252500000Y-83550000D02*
X252500000Y-86450000D01*
X247100000Y-85000000D02*
G75*
G03X250000000Y-87900000I2900000J0D01*
G01*
X252496152Y-86476220D02*
G75*
G02X250000000Y-87900000I-2496152J1476220D01*
G01*
X250000000Y-82100000D02*
G75*
G03X247100000Y-85000000I0J-2900000D01*
G01*
X252496152Y-83523780D02*
G75*
G03X250000000Y-82100000I-2496152J-1476220D01*
G01*
X252500000Y-85000000D02*
G75*
G03X252500000Y-85000000I-2500000J0D01*
G01*
X210920000Y-76350000D02*
X210920000Y-76550000D01*
X210920000Y-76550000D02*
X210720000Y-76550000D01*
X210720000Y-76550000D02*
X210720000Y-76350000D01*
X210720000Y-76350000D02*
X210920000Y-76350000D01*
X211020000Y-75200000D02*
X211470000Y-75200000D01*
X210170000Y-75200000D02*
X210620000Y-75200000D01*
X210620000Y-77200000D02*
X210170000Y-77200000D01*
X211470000Y-77200000D02*
X211020000Y-77200000D01*
X210620000Y-75200000D02*
G75*
G03X210820000Y-75400000I200000J0D01*
G01*
X210820000Y-75400000D02*
G75*
G03X211020000Y-75200000I0J200000D01*
G01*
X211020000Y-77200000D02*
G75*
G03X210820000Y-77000000I-200000J0D01*
G01*
X210820000Y-77000000D02*
G75*
G03X210620000Y-77200000I0J-200000D01*
G01*
X210170000Y-77200000D02*
X210170000Y-75200000D01*
X211470000Y-75200000D02*
X211470000Y-77200000D01*
X213460000Y-76350000D02*
X213460000Y-76550000D01*
X213460000Y-76550000D02*
X213260000Y-76550000D01*
X213260000Y-76550000D02*
X213260000Y-76350000D01*
X213260000Y-76350000D02*
X213460000Y-76350000D01*
X213560000Y-75200000D02*
X214010000Y-75200000D01*
X212710000Y-75200000D02*
X213160000Y-75200000D01*
X213160000Y-77200000D02*
X212710000Y-77200000D01*
X214010000Y-77200000D02*
X213560000Y-77200000D01*
X213160000Y-75200000D02*
G75*
G03X213360000Y-75400000I200000J0D01*
G01*
X213360000Y-75400000D02*
G75*
G03X213560000Y-75200000I0J200000D01*
G01*
X213560000Y-77200000D02*
G75*
G03X213360000Y-77000000I-200000J0D01*
G01*
X213360000Y-77000000D02*
G75*
G03X213160000Y-77200000I0J-200000D01*
G01*
X212710000Y-77200000D02*
X212710000Y-75200000D01*
X214010000Y-75200000D02*
X214010000Y-77200000D01*
X216000000Y-76350000D02*
X216000000Y-76550000D01*
X216000000Y-76550000D02*
X215800000Y-76550000D01*
X215800000Y-76550000D02*
X215800000Y-76350000D01*
X215800000Y-76350000D02*
X216000000Y-76350000D01*
X216100000Y-75200000D02*
X216550000Y-75200000D01*
X215250000Y-75200000D02*
X215700000Y-75200000D01*
X215700000Y-77200000D02*
X215250000Y-77200000D01*
X216550000Y-77200000D02*
X216100000Y-77200000D01*
X215700000Y-75200000D02*
G75*
G03X215900000Y-75400000I200000J0D01*
G01*
X215900000Y-75400000D02*
G75*
G03X216100000Y-75200000I0J200000D01*
G01*
X216100000Y-77200000D02*
G75*
G03X215900000Y-77000000I-200000J0D01*
G01*
X215900000Y-77000000D02*
G75*
G03X215700000Y-77200000I0J-200000D01*
G01*
X215250000Y-77200000D02*
X215250000Y-75200000D01*
X216550000Y-75200000D02*
X216550000Y-77200000D01*
X218540000Y-76350000D02*
X218540000Y-76550000D01*
X218540000Y-76550000D02*
X218340000Y-76550000D01*
X218340000Y-76550000D02*
X218340000Y-76350000D01*
X218340000Y-76350000D02*
X218540000Y-76350000D01*
X218640000Y-75200000D02*
X219090000Y-75200000D01*
X217790000Y-75200000D02*
X218240000Y-75200000D01*
X218240000Y-77200000D02*
X217790000Y-77200000D01*
X219090000Y-77200000D02*
X218640000Y-77200000D01*
X218240000Y-75200000D02*
G75*
G03X218440000Y-75400000I200000J0D01*
G01*
X218440000Y-75400000D02*
G75*
G03X218640000Y-75200000I0J200000D01*
G01*
X218640000Y-77200000D02*
G75*
G03X218440000Y-77000000I-200000J0D01*
G01*
X218440000Y-77000000D02*
G75*
G03X218240000Y-77200000I0J-200000D01*
G01*
X217790000Y-77200000D02*
X217790000Y-75200000D01*
X219090000Y-75200000D02*
X219090000Y-77200000D01*
X221080000Y-76350000D02*
X221080000Y-76550000D01*
X221080000Y-76550000D02*
X220880000Y-76550000D01*
X220880000Y-76550000D02*
X220880000Y-76350000D01*
X220880000Y-76350000D02*
X221080000Y-76350000D01*
X221180000Y-75200000D02*
X221630000Y-75200000D01*
X220330000Y-75200000D02*
X220780000Y-75200000D01*
X220780000Y-77200000D02*
X220330000Y-77200000D01*
X221630000Y-77200000D02*
X221180000Y-77200000D01*
X220780000Y-75200000D02*
G75*
G03X220980000Y-75400000I200000J0D01*
G01*
X220980000Y-75400000D02*
G75*
G03X221180000Y-75200000I0J200000D01*
G01*
X221180000Y-77200000D02*
G75*
G03X220980000Y-77000000I-200000J0D01*
G01*
X220980000Y-77000000D02*
G75*
G03X220780000Y-77200000I0J-200000D01*
G01*
X220330000Y-77200000D02*
X220330000Y-75200000D01*
X221630000Y-75200000D02*
X221630000Y-77200000D01*
X223620000Y-76350000D02*
X223620000Y-76550000D01*
X223620000Y-76550000D02*
X223420000Y-76550000D01*
X223420000Y-76550000D02*
X223420000Y-76350000D01*
X223420000Y-76350000D02*
X223620000Y-76350000D01*
X223720000Y-75200000D02*
X224170000Y-75200000D01*
X222870000Y-75200000D02*
X223320000Y-75200000D01*
X223320000Y-77200000D02*
X222870000Y-77200000D01*
X224170000Y-77200000D02*
X223720000Y-77200000D01*
X223320000Y-75200000D02*
G75*
G03X223520000Y-75400000I200000J0D01*
G01*
X223520000Y-75400000D02*
G75*
G03X223720000Y-75200000I0J200000D01*
G01*
X223720000Y-77200000D02*
G75*
G03X223520000Y-77000000I-200000J0D01*
G01*
X223520000Y-77000000D02*
G75*
G03X223320000Y-77200000I0J-200000D01*
G01*
X222870000Y-77200000D02*
X222870000Y-75200000D01*
X224170000Y-75200000D02*
X224170000Y-77200000D01*
X226160000Y-76350000D02*
X226160000Y-76550000D01*
X226160000Y-76550000D02*
X225960000Y-76550000D01*
X225960000Y-76550000D02*
X225960000Y-76350000D01*
X225960000Y-76350000D02*
X226160000Y-76350000D01*
X226260000Y-75200000D02*
X226710000Y-75200000D01*
X225410000Y-75200000D02*
X225860000Y-75200000D01*
X225860000Y-77200000D02*
X225410000Y-77200000D01*
X226710000Y-77200000D02*
X226260000Y-77200000D01*
X225860000Y-75200000D02*
G75*
G03X226060000Y-75400000I200000J0D01*
G01*
X226060000Y-75400000D02*
G75*
G03X226260000Y-75200000I0J200000D01*
G01*
X226260000Y-77200000D02*
G75*
G03X226060000Y-77000000I-200000J0D01*
G01*
X226060000Y-77000000D02*
G75*
G03X225860000Y-77200000I0J-200000D01*
G01*
X225410000Y-77200000D02*
X225410000Y-75200000D01*
X226710000Y-75200000D02*
X226710000Y-77200000D01*
X228700000Y-76350000D02*
X228700000Y-76550000D01*
X228700000Y-76550000D02*
X228500000Y-76550000D01*
X228500000Y-76550000D02*
X228500000Y-76350000D01*
X228500000Y-76350000D02*
X228700000Y-76350000D01*
X228800000Y-75200000D02*
X229250000Y-75200000D01*
X227950000Y-75200000D02*
X228400000Y-75200000D01*
X228400000Y-77200000D02*
X227950000Y-77200000D01*
X229250000Y-77200000D02*
X228800000Y-77200000D01*
X228400000Y-75200000D02*
G75*
G03X228600000Y-75400000I200000J0D01*
G01*
X228600000Y-75400000D02*
G75*
G03X228800000Y-75200000I0J200000D01*
G01*
X228800000Y-77200000D02*
G75*
G03X228600000Y-77000000I-200000J0D01*
G01*
X228600000Y-77000000D02*
G75*
G03X228400000Y-77200000I0J-200000D01*
G01*
X227950000Y-77200000D02*
X227950000Y-75200000D01*
X229250000Y-75200000D02*
X229250000Y-77200000D01*
X231240000Y-76350000D02*
X231240000Y-76550000D01*
X231240000Y-76550000D02*
X231040000Y-76550000D01*
X231040000Y-76550000D02*
X231040000Y-76350000D01*
X231040000Y-76350000D02*
X231240000Y-76350000D01*
X231340000Y-75200000D02*
X231790000Y-75200000D01*
X230490000Y-75200000D02*
X230940000Y-75200000D01*
X230940000Y-77200000D02*
X230490000Y-77200000D01*
X231790000Y-77200000D02*
X231340000Y-77200000D01*
X230940000Y-75200000D02*
G75*
G03X231140000Y-75400000I200000J0D01*
G01*
X231140000Y-75400000D02*
G75*
G03X231340000Y-75200000I0J200000D01*
G01*
X231340000Y-77200000D02*
G75*
G03X231140000Y-77000000I-200000J0D01*
G01*
X231140000Y-77000000D02*
G75*
G03X230940000Y-77200000I0J-200000D01*
G01*
X230490000Y-77200000D02*
X230490000Y-75200000D01*
X231790000Y-75200000D02*
X231790000Y-77200000D01*
X233780000Y-76350000D02*
X233780000Y-76550000D01*
X233780000Y-76550000D02*
X233580000Y-76550000D01*
X233580000Y-76550000D02*
X233580000Y-76350000D01*
X233580000Y-76350000D02*
X233780000Y-76350000D01*
X233880000Y-75200000D02*
X234330000Y-75200000D01*
X233030000Y-75200000D02*
X233480000Y-75200000D01*
X233480000Y-77200000D02*
X233030000Y-77200000D01*
X234330000Y-77200000D02*
X233880000Y-77200000D01*
X233480000Y-75200000D02*
G75*
G03X233680000Y-75400000I200000J0D01*
G01*
X233680000Y-75400000D02*
G75*
G03X233880000Y-75200000I0J200000D01*
G01*
X233880000Y-77200000D02*
G75*
G03X233680000Y-77000000I-200000J0D01*
G01*
X233680000Y-77000000D02*
G75*
G03X233480000Y-77200000I0J-200000D01*
G01*
X233030000Y-77200000D02*
X233030000Y-75200000D01*
X234330000Y-75200000D02*
X234330000Y-77200000D01*
X236320000Y-76350000D02*
X236320000Y-76550000D01*
X236320000Y-76550000D02*
X236120000Y-76550000D01*
X236120000Y-76550000D02*
X236120000Y-76350000D01*
X236120000Y-76350000D02*
X236320000Y-76350000D01*
X236420000Y-75200000D02*
X236870000Y-75200000D01*
X235570000Y-75200000D02*
X236020000Y-75200000D01*
X236020000Y-77200000D02*
X235570000Y-77200000D01*
X236870000Y-77200000D02*
X236420000Y-77200000D01*
X236020000Y-75200000D02*
G75*
G03X236220000Y-75400000I200000J0D01*
G01*
X236220000Y-75400000D02*
G75*
G03X236420000Y-75200000I0J200000D01*
G01*
X236420000Y-77200000D02*
G75*
G03X236220000Y-77000000I-200000J0D01*
G01*
X236220000Y-77000000D02*
G75*
G03X236020000Y-77200000I0J-200000D01*
G01*
X235570000Y-77200000D02*
X235570000Y-75200000D01*
X236870000Y-75200000D02*
X236870000Y-77200000D01*
X238860000Y-76350000D02*
X238860000Y-76550000D01*
X238860000Y-76550000D02*
X238660000Y-76550000D01*
X238660000Y-76550000D02*
X238660000Y-76350000D01*
X238660000Y-76350000D02*
X238860000Y-76350000D01*
X238960000Y-75200000D02*
X239410000Y-75200000D01*
X238110000Y-75200000D02*
X238560000Y-75200000D01*
X238560000Y-77200000D02*
X238110000Y-77200000D01*
X239410000Y-77200000D02*
X238960000Y-77200000D01*
X238560000Y-75200000D02*
G75*
G03X238760000Y-75400000I200000J0D01*
G01*
X238760000Y-75400000D02*
G75*
G03X238960000Y-75200000I0J200000D01*
G01*
X238960000Y-77200000D02*
G75*
G03X238760000Y-77000000I-200000J0D01*
G01*
X238760000Y-77000000D02*
G75*
G03X238560000Y-77200000I0J-200000D01*
G01*
X238110000Y-77200000D02*
X238110000Y-75200000D01*
X239410000Y-75200000D02*
X239410000Y-77200000D01*
X241400000Y-76350000D02*
X241400000Y-76550000D01*
X241400000Y-76550000D02*
X241200000Y-76550000D01*
X241200000Y-76550000D02*
X241200000Y-76350000D01*
X241200000Y-76350000D02*
X241400000Y-76350000D01*
X241500000Y-75200000D02*
X241950000Y-75200000D01*
X240650000Y-75200000D02*
X241100000Y-75200000D01*
X241100000Y-77200000D02*
X240650000Y-77200000D01*
X241950000Y-77200000D02*
X241500000Y-77200000D01*
X241100000Y-75200000D02*
G75*
G03X241300000Y-75400000I200000J0D01*
G01*
X241300000Y-75400000D02*
G75*
G03X241500000Y-75200000I0J200000D01*
G01*
X241500000Y-77200000D02*
G75*
G03X241300000Y-77000000I-200000J0D01*
G01*
X241300000Y-77000000D02*
G75*
G03X241100000Y-77200000I0J-200000D01*
G01*
X240650000Y-77200000D02*
X240650000Y-75200000D01*
X241950000Y-75200000D02*
X241950000Y-77200000D01*
X243940000Y-76350000D02*
X243940000Y-76550000D01*
X243940000Y-76550000D02*
X243740000Y-76550000D01*
X243740000Y-76550000D02*
X243740000Y-76350000D01*
X243740000Y-76350000D02*
X243940000Y-76350000D01*
X244040000Y-75200000D02*
X244490000Y-75200000D01*
X243190000Y-75200000D02*
X243640000Y-75200000D01*
X243640000Y-77200000D02*
X243190000Y-77200000D01*
X244490000Y-77200000D02*
X244040000Y-77200000D01*
X243640000Y-75200000D02*
G75*
G03X243840000Y-75400000I200000J0D01*
G01*
X243840000Y-75400000D02*
G75*
G03X244040000Y-75200000I0J200000D01*
G01*
X244040000Y-77200000D02*
G75*
G03X243840000Y-77000000I-200000J0D01*
G01*
X243840000Y-77000000D02*
G75*
G03X243640000Y-77200000I0J-200000D01*
G01*
X243190000Y-77200000D02*
X243190000Y-75200000D01*
X244490000Y-75200000D02*
X244490000Y-77200000D01*
X246480000Y-76350000D02*
X246480000Y-76550000D01*
X246480000Y-76550000D02*
X246280000Y-76550000D01*
X246280000Y-76550000D02*
X246280000Y-76350000D01*
X246280000Y-76350000D02*
X246480000Y-76350000D01*
X246580000Y-75200000D02*
X247030000Y-75200000D01*
X245730000Y-75200000D02*
X246180000Y-75200000D01*
X246180000Y-77200000D02*
X245730000Y-77200000D01*
X247030000Y-77200000D02*
X246580000Y-77200000D01*
X246180000Y-75200000D02*
G75*
G03X246380000Y-75400000I200000J0D01*
G01*
X246380000Y-75400000D02*
G75*
G03X246580000Y-75200000I0J200000D01*
G01*
X246580000Y-77200000D02*
G75*
G03X246380000Y-77000000I-200000J0D01*
G01*
X246380000Y-77000000D02*
G75*
G03X246180000Y-77200000I0J-200000D01*
G01*
X245730000Y-77200000D02*
X245730000Y-75200000D01*
X247030000Y-75200000D02*
X247030000Y-77200000D01*
X249020000Y-76350000D02*
X249020000Y-76550000D01*
X249020000Y-76550000D02*
X248820000Y-76550000D01*
X248820000Y-76550000D02*
X248820000Y-76350000D01*
X248820000Y-76350000D02*
X249020000Y-76350000D01*
X249120000Y-75200000D02*
X249570000Y-75200000D01*
X248270000Y-75200000D02*
X248720000Y-75200000D01*
X248720000Y-77200000D02*
X248270000Y-77200000D01*
X249570000Y-77200000D02*
X249120000Y-77200000D01*
X248720000Y-75200000D02*
G75*
G03X248920000Y-75400000I200000J0D01*
G01*
X248920000Y-75400000D02*
G75*
G03X249120000Y-75200000I0J200000D01*
G01*
X249120000Y-77200000D02*
G75*
G03X248920000Y-77000000I-200000J0D01*
G01*
X248920000Y-77000000D02*
G75*
G03X248720000Y-77200000I0J-200000D01*
G01*
X248270000Y-77200000D02*
X248270000Y-75200000D01*
X249570000Y-75200000D02*
X249570000Y-77200000D01*
X249150000Y-91245000D02*
G75*
G03X249150000Y-91245000I-4000000J0D01*
G01*
X228910000Y-107790000D02*
X230910000Y-107790000D01*
X230910000Y-107790000D02*
X230910000Y-108990000D01*
X230910000Y-108990000D02*
X228910000Y-108990000D01*
X228910000Y-108990000D02*
X228910000Y-107790000D01*
M02*
