G04 #@! TF.FileFunction,Legend,Top*
%FSLAX46Y46*%
G04 Gerber Fmt 4.6, Leading zero omitted, Abs format (unit mm)*
G04 Created by KiCad (PCBNEW (2015-01-16 BZR 5376)-product) date 29.3.2015 17:27:47*
%MOMM*%
G01*
G04 APERTURE LIST*
%ADD10C,0.100000*%
%ADD11C,0.220000*%
%ADD12C,0.200000*%
%ADD13C,0.250000*%
%ADD14C,0.150000*%
%ADD15C,0.320000*%
%ADD16C,0.400000*%
%ADD17R,1.800000X1.800000*%
%ADD18O,1.800000X1.800000*%
%ADD19O,2.400000X1.800000*%
%ADD20R,2.400000X1.800000*%
%ADD21C,3.400000*%
%ADD22O,1.450000X2.700000*%
%ADD23R,1.500000X1.500000*%
%ADD24O,1.200000X2.400000*%
%ADD25R,1.200000X2.400000*%
%ADD26O,2.700000X1.900000*%
%ADD27C,2.200000*%
G04 APERTURE END LIST*
D10*
D11*
X246300000Y-95000000D02*
X247500000Y-94400000D01*
X244900000Y-95100000D02*
X246300000Y-95000000D01*
X243600000Y-94800000D02*
X244900000Y-95100000D01*
X242700000Y-94300000D02*
X243600000Y-94800000D01*
X242700000Y-94300000D02*
X247600000Y-94300000D01*
X243000000Y-94500000D02*
X247200000Y-94500000D01*
X243300000Y-94700000D02*
X247000000Y-94700000D01*
X243800000Y-94900000D02*
X246500000Y-94900000D01*
X244500000Y-95100000D02*
X245800000Y-95100000D01*
D12*
X252800000Y-75100000D02*
X252700000Y-75100000D01*
X252800000Y-79200000D02*
X252800000Y-75100000D01*
X252200000Y-79200000D02*
X252800000Y-79200000D01*
D13*
X251460000Y-74422000D02*
X251460000Y-75438000D01*
X250952000Y-74930000D02*
X251968000Y-74930000D01*
X214242857Y-91278571D02*
X214242857Y-92492857D01*
X214171428Y-92635714D01*
X214100000Y-92707143D01*
X213957143Y-92778571D01*
X213742857Y-92778571D01*
X213600000Y-92707143D01*
X214242857Y-92207143D02*
X214100000Y-92278571D01*
X213814286Y-92278571D01*
X213671428Y-92207143D01*
X213600000Y-92135714D01*
X213528571Y-91992857D01*
X213528571Y-91564286D01*
X213600000Y-91421429D01*
X213671428Y-91350000D01*
X213814286Y-91278571D01*
X214100000Y-91278571D01*
X214242857Y-91350000D01*
X215171429Y-92278571D02*
X215028571Y-92207143D01*
X214957143Y-92135714D01*
X214885714Y-91992857D01*
X214885714Y-91564286D01*
X214957143Y-91421429D01*
X215028571Y-91350000D01*
X215171429Y-91278571D01*
X215385714Y-91278571D01*
X215528571Y-91350000D01*
X215600000Y-91421429D01*
X215671429Y-91564286D01*
X215671429Y-91992857D01*
X215600000Y-92135714D01*
X215528571Y-92207143D01*
X215385714Y-92278571D01*
X215171429Y-92278571D01*
X216528572Y-92278571D02*
X216385714Y-92207143D01*
X216314286Y-92135714D01*
X216242857Y-91992857D01*
X216242857Y-91564286D01*
X216314286Y-91421429D01*
X216385714Y-91350000D01*
X216528572Y-91278571D01*
X216742857Y-91278571D01*
X216885714Y-91350000D01*
X216957143Y-91421429D01*
X217028572Y-91564286D01*
X217028572Y-91992857D01*
X216957143Y-92135714D01*
X216885714Y-92207143D01*
X216742857Y-92278571D01*
X216528572Y-92278571D01*
X217671429Y-92135714D02*
X217742857Y-92207143D01*
X217671429Y-92278571D01*
X217600000Y-92207143D01*
X217671429Y-92135714D01*
X217671429Y-92278571D01*
X219028572Y-91278571D02*
X219028572Y-92492857D01*
X218957143Y-92635714D01*
X218885715Y-92707143D01*
X218742858Y-92778571D01*
X218528572Y-92778571D01*
X218385715Y-92707143D01*
X219028572Y-92207143D02*
X218885715Y-92278571D01*
X218600001Y-92278571D01*
X218457143Y-92207143D01*
X218385715Y-92135714D01*
X218314286Y-91992857D01*
X218314286Y-91564286D01*
X218385715Y-91421429D01*
X218457143Y-91350000D01*
X218600001Y-91278571D01*
X218885715Y-91278571D01*
X219028572Y-91350000D01*
X219957144Y-92278571D02*
X219814286Y-92207143D01*
X219742858Y-92064286D01*
X219742858Y-90778571D01*
X221600000Y-90707143D02*
X220314286Y-92635714D01*
X221957144Y-91278571D02*
X222314287Y-92278571D01*
X222671429Y-91278571D01*
X223100001Y-90778571D02*
X223457144Y-92278571D01*
X223742858Y-91207143D01*
X224028572Y-92278571D01*
X224385715Y-90778571D01*
X224742858Y-90778571D02*
X225600001Y-90778571D01*
X225171430Y-92278571D02*
X225171430Y-90778571D01*
X225957144Y-91278571D02*
X226314287Y-92278571D01*
X226671429Y-91278571D01*
X227242858Y-91278571D02*
X227242858Y-92564286D01*
X227171429Y-92707143D01*
X227028572Y-92778571D01*
X226957144Y-92778571D01*
X227242858Y-90778571D02*
X227171429Y-90850000D01*
X227242858Y-90921429D01*
X227314286Y-90850000D01*
X227242858Y-90778571D01*
X227242858Y-90921429D01*
X228600001Y-92278571D02*
X228600001Y-90778571D01*
X228600001Y-92207143D02*
X228457144Y-92278571D01*
X228171430Y-92278571D01*
X228028572Y-92207143D01*
X227957144Y-92135714D01*
X227885715Y-91992857D01*
X227885715Y-91564286D01*
X227957144Y-91421429D01*
X228028572Y-91350000D01*
X228171430Y-91278571D01*
X228457144Y-91278571D01*
X228600001Y-91350000D01*
D12*
X234188096Y-89670000D02*
X234092858Y-89622381D01*
X233950001Y-89622381D01*
X233807143Y-89670000D01*
X233711905Y-89765238D01*
X233664286Y-89860476D01*
X233616667Y-90050952D01*
X233616667Y-90193810D01*
X233664286Y-90384286D01*
X233711905Y-90479524D01*
X233807143Y-90574762D01*
X233950001Y-90622381D01*
X234045239Y-90622381D01*
X234188096Y-90574762D01*
X234235715Y-90527143D01*
X234235715Y-90193810D01*
X234045239Y-90193810D01*
X234664286Y-90622381D02*
X234664286Y-89622381D01*
X235235715Y-90622381D01*
X235235715Y-89622381D01*
X235711905Y-90622381D02*
X235711905Y-89622381D01*
X235950000Y-89622381D01*
X236092858Y-89670000D01*
X236188096Y-89765238D01*
X236235715Y-89860476D01*
X236283334Y-90050952D01*
X236283334Y-90193810D01*
X236235715Y-90384286D01*
X236188096Y-90479524D01*
X236092858Y-90574762D01*
X235950000Y-90622381D01*
X235711905Y-90622381D01*
D14*
X249849000Y-70290000D02*
X250230000Y-70671000D01*
X250230000Y-70671000D02*
X250230000Y-72449000D01*
X250230000Y-72449000D02*
X249849000Y-72830000D01*
X249849000Y-72830000D02*
X248071000Y-72830000D01*
X248071000Y-72830000D02*
X247690000Y-72449000D01*
X247690000Y-72449000D02*
X247690000Y-70671000D01*
X247690000Y-70671000D02*
X248071000Y-70290000D01*
X249849000Y-70290000D02*
X248071000Y-70290000D01*
X249849000Y-67750000D02*
X250230000Y-68131000D01*
X250230000Y-68131000D02*
X250230000Y-69909000D01*
X250230000Y-69909000D02*
X249849000Y-70290000D01*
X248071000Y-67750000D02*
X247690000Y-68131000D01*
X247690000Y-68131000D02*
X247690000Y-69909000D01*
X247690000Y-69909000D02*
X248071000Y-70290000D01*
X247690000Y-65210000D02*
X247690000Y-67750000D01*
X250230000Y-65210000D02*
X250230000Y-67750000D01*
X250230000Y-67750000D02*
X247690000Y-67750000D01*
X247690000Y-65210000D02*
X250230000Y-65210000D01*
X247309000Y-70290000D02*
X247690000Y-70671000D01*
X247690000Y-70671000D02*
X247690000Y-72449000D01*
X247690000Y-72449000D02*
X247309000Y-72830000D01*
X247309000Y-72830000D02*
X245531000Y-72830000D01*
X245531000Y-72830000D02*
X245150000Y-72449000D01*
X245150000Y-72449000D02*
X245150000Y-70671000D01*
X245150000Y-70671000D02*
X245531000Y-70290000D01*
X247309000Y-70290000D02*
X245531000Y-70290000D01*
X247309000Y-67750000D02*
X247690000Y-68131000D01*
X247690000Y-68131000D02*
X247690000Y-69909000D01*
X247690000Y-69909000D02*
X247309000Y-70290000D01*
X245531000Y-67750000D02*
X245150000Y-68131000D01*
X245150000Y-68131000D02*
X245150000Y-69909000D01*
X245150000Y-69909000D02*
X245531000Y-70290000D01*
X245150000Y-65210000D02*
X245150000Y-67750000D01*
X247690000Y-65210000D02*
X247690000Y-67750000D01*
X247690000Y-67750000D02*
X245150000Y-67750000D01*
X245150000Y-65210000D02*
X247690000Y-65210000D01*
X244769000Y-70290000D02*
X245150000Y-70671000D01*
X245150000Y-70671000D02*
X245150000Y-72449000D01*
X245150000Y-72449000D02*
X244769000Y-72830000D01*
X244769000Y-72830000D02*
X242991000Y-72830000D01*
X242991000Y-72830000D02*
X242610000Y-72449000D01*
X242610000Y-72449000D02*
X242610000Y-70671000D01*
X242610000Y-70671000D02*
X242991000Y-70290000D01*
X244769000Y-70290000D02*
X242991000Y-70290000D01*
X244769000Y-67750000D02*
X245150000Y-68131000D01*
X245150000Y-68131000D02*
X245150000Y-69909000D01*
X245150000Y-69909000D02*
X244769000Y-70290000D01*
X242991000Y-67750000D02*
X242610000Y-68131000D01*
X242610000Y-68131000D02*
X242610000Y-69909000D01*
X242610000Y-69909000D02*
X242991000Y-70290000D01*
X242610000Y-65210000D02*
X242610000Y-67750000D01*
X245150000Y-65210000D02*
X245150000Y-67750000D01*
X245150000Y-67750000D02*
X242610000Y-67750000D01*
X242610000Y-65210000D02*
X245150000Y-65210000D01*
X242229000Y-70290000D02*
X242610000Y-70671000D01*
X242610000Y-70671000D02*
X242610000Y-72449000D01*
X242610000Y-72449000D02*
X242229000Y-72830000D01*
X242229000Y-72830000D02*
X240451000Y-72830000D01*
X240451000Y-72830000D02*
X240070000Y-72449000D01*
X240070000Y-72449000D02*
X240070000Y-70671000D01*
X240070000Y-70671000D02*
X240451000Y-70290000D01*
X242229000Y-70290000D02*
X240451000Y-70290000D01*
X242229000Y-67750000D02*
X242610000Y-68131000D01*
X242610000Y-68131000D02*
X242610000Y-69909000D01*
X242610000Y-69909000D02*
X242229000Y-70290000D01*
X240451000Y-67750000D02*
X240070000Y-68131000D01*
X240070000Y-68131000D02*
X240070000Y-69909000D01*
X240070000Y-69909000D02*
X240451000Y-70290000D01*
X240070000Y-65210000D02*
X240070000Y-67750000D01*
X242610000Y-65210000D02*
X242610000Y-67750000D01*
X242610000Y-67750000D02*
X240070000Y-67750000D01*
X240070000Y-65210000D02*
X242610000Y-65210000D01*
X239689000Y-70290000D02*
X240070000Y-70671000D01*
X240070000Y-70671000D02*
X240070000Y-72449000D01*
X240070000Y-72449000D02*
X239689000Y-72830000D01*
X239689000Y-72830000D02*
X237911000Y-72830000D01*
X237911000Y-72830000D02*
X237530000Y-72449000D01*
X237530000Y-72449000D02*
X237530000Y-70671000D01*
X237530000Y-70671000D02*
X237911000Y-70290000D01*
X239689000Y-70290000D02*
X237911000Y-70290000D01*
X239689000Y-67750000D02*
X240070000Y-68131000D01*
X240070000Y-68131000D02*
X240070000Y-69909000D01*
X240070000Y-69909000D02*
X239689000Y-70290000D01*
X237911000Y-67750000D02*
X237530000Y-68131000D01*
X237530000Y-68131000D02*
X237530000Y-69909000D01*
X237530000Y-69909000D02*
X237911000Y-70290000D01*
X237530000Y-65210000D02*
X237530000Y-67750000D01*
X240070000Y-65210000D02*
X240070000Y-67750000D01*
X240070000Y-67750000D02*
X237530000Y-67750000D01*
X237530000Y-65210000D02*
X240070000Y-65210000D01*
X237149000Y-70290000D02*
X237530000Y-70671000D01*
X237530000Y-70671000D02*
X237530000Y-72449000D01*
X237530000Y-72449000D02*
X237149000Y-72830000D01*
X237149000Y-72830000D02*
X235371000Y-72830000D01*
X235371000Y-72830000D02*
X234990000Y-72449000D01*
X234990000Y-72449000D02*
X234990000Y-70671000D01*
X234990000Y-70671000D02*
X235371000Y-70290000D01*
X237149000Y-70290000D02*
X235371000Y-70290000D01*
X237149000Y-67750000D02*
X237530000Y-68131000D01*
X237530000Y-68131000D02*
X237530000Y-69909000D01*
X237530000Y-69909000D02*
X237149000Y-70290000D01*
X235371000Y-67750000D02*
X234990000Y-68131000D01*
X234990000Y-68131000D02*
X234990000Y-69909000D01*
X234990000Y-69909000D02*
X235371000Y-70290000D01*
X234990000Y-65210000D02*
X234990000Y-67750000D01*
X237530000Y-65210000D02*
X237530000Y-67750000D01*
X237530000Y-67750000D02*
X234990000Y-67750000D01*
X234990000Y-65210000D02*
X237530000Y-65210000D01*
X234609000Y-70290000D02*
X234990000Y-70671000D01*
X234990000Y-70671000D02*
X234990000Y-72449000D01*
X234990000Y-72449000D02*
X234609000Y-72830000D01*
X234609000Y-72830000D02*
X232831000Y-72830000D01*
X232831000Y-72830000D02*
X232450000Y-72449000D01*
X232450000Y-72449000D02*
X232450000Y-70671000D01*
X232450000Y-70671000D02*
X232831000Y-70290000D01*
X234609000Y-70290000D02*
X232831000Y-70290000D01*
X234609000Y-67750000D02*
X234990000Y-68131000D01*
X234990000Y-68131000D02*
X234990000Y-69909000D01*
X234990000Y-69909000D02*
X234609000Y-70290000D01*
X232831000Y-67750000D02*
X232450000Y-68131000D01*
X232450000Y-68131000D02*
X232450000Y-69909000D01*
X232450000Y-69909000D02*
X232831000Y-70290000D01*
X232450000Y-65210000D02*
X232450000Y-67750000D01*
X234990000Y-65210000D02*
X234990000Y-67750000D01*
X234990000Y-67750000D02*
X232450000Y-67750000D01*
X232450000Y-65210000D02*
X234990000Y-65210000D01*
X232069000Y-70290000D02*
X232450000Y-70671000D01*
X232450000Y-70671000D02*
X232450000Y-72449000D01*
X232450000Y-72449000D02*
X232069000Y-72830000D01*
X232069000Y-72830000D02*
X230291000Y-72830000D01*
X230291000Y-72830000D02*
X229910000Y-72449000D01*
X229910000Y-72449000D02*
X229910000Y-70671000D01*
X229910000Y-70671000D02*
X230291000Y-70290000D01*
X232069000Y-70290000D02*
X230291000Y-70290000D01*
X232069000Y-67750000D02*
X232450000Y-68131000D01*
X232450000Y-68131000D02*
X232450000Y-69909000D01*
X232450000Y-69909000D02*
X232069000Y-70290000D01*
X230291000Y-67750000D02*
X229910000Y-68131000D01*
X229910000Y-68131000D02*
X229910000Y-69909000D01*
X229910000Y-69909000D02*
X230291000Y-70290000D01*
X229910000Y-65210000D02*
X229910000Y-67750000D01*
X232450000Y-65210000D02*
X232450000Y-67750000D01*
X232450000Y-67750000D02*
X229910000Y-67750000D01*
X229910000Y-65210000D02*
X232450000Y-65210000D01*
X229529000Y-70290000D02*
X229910000Y-70671000D01*
X229910000Y-70671000D02*
X229910000Y-72449000D01*
X229910000Y-72449000D02*
X229529000Y-72830000D01*
X229529000Y-72830000D02*
X227751000Y-72830000D01*
X227751000Y-72830000D02*
X227370000Y-72449000D01*
X227370000Y-72449000D02*
X227370000Y-70671000D01*
X227370000Y-70671000D02*
X227751000Y-70290000D01*
X229529000Y-70290000D02*
X227751000Y-70290000D01*
X229529000Y-67750000D02*
X229910000Y-68131000D01*
X229910000Y-68131000D02*
X229910000Y-69909000D01*
X229910000Y-69909000D02*
X229529000Y-70290000D01*
X227751000Y-67750000D02*
X227370000Y-68131000D01*
X227370000Y-68131000D02*
X227370000Y-69909000D01*
X227370000Y-69909000D02*
X227751000Y-70290000D01*
X227370000Y-65210000D02*
X227370000Y-67750000D01*
X229910000Y-65210000D02*
X229910000Y-67750000D01*
X229910000Y-67750000D02*
X227370000Y-67750000D01*
X227370000Y-65210000D02*
X229910000Y-65210000D01*
X226989000Y-70290000D02*
X227370000Y-70671000D01*
X227370000Y-70671000D02*
X227370000Y-72449000D01*
X227370000Y-72449000D02*
X226989000Y-72830000D01*
X226989000Y-72830000D02*
X225211000Y-72830000D01*
X225211000Y-72830000D02*
X224830000Y-72449000D01*
X224830000Y-72449000D02*
X224830000Y-70671000D01*
X224830000Y-70671000D02*
X225211000Y-70290000D01*
X226989000Y-70290000D02*
X225211000Y-70290000D01*
X226989000Y-67750000D02*
X227370000Y-68131000D01*
X227370000Y-68131000D02*
X227370000Y-69909000D01*
X227370000Y-69909000D02*
X226989000Y-70290000D01*
X225211000Y-67750000D02*
X224830000Y-68131000D01*
X224830000Y-68131000D02*
X224830000Y-69909000D01*
X224830000Y-69909000D02*
X225211000Y-70290000D01*
X224830000Y-65210000D02*
X224830000Y-67750000D01*
X227370000Y-65210000D02*
X227370000Y-67750000D01*
X227370000Y-67750000D02*
X224830000Y-67750000D01*
X224830000Y-65210000D02*
X227370000Y-65210000D01*
X224449000Y-70290000D02*
X224830000Y-70671000D01*
X224830000Y-70671000D02*
X224830000Y-72449000D01*
X224830000Y-72449000D02*
X224449000Y-72830000D01*
X224449000Y-72830000D02*
X222671000Y-72830000D01*
X222671000Y-72830000D02*
X222290000Y-72449000D01*
X222290000Y-72449000D02*
X222290000Y-70671000D01*
X222290000Y-70671000D02*
X222671000Y-70290000D01*
X224449000Y-70290000D02*
X222671000Y-70290000D01*
X224449000Y-67750000D02*
X224830000Y-68131000D01*
X224830000Y-68131000D02*
X224830000Y-69909000D01*
X224830000Y-69909000D02*
X224449000Y-70290000D01*
X222671000Y-67750000D02*
X222290000Y-68131000D01*
X222290000Y-68131000D02*
X222290000Y-69909000D01*
X222290000Y-69909000D02*
X222671000Y-70290000D01*
X222290000Y-65210000D02*
X222290000Y-67750000D01*
X224830000Y-65210000D02*
X224830000Y-67750000D01*
X224830000Y-67750000D02*
X222290000Y-67750000D01*
X222290000Y-65210000D02*
X224830000Y-65210000D01*
X221909000Y-70290000D02*
X222290000Y-70671000D01*
X222290000Y-70671000D02*
X222290000Y-72449000D01*
X222290000Y-72449000D02*
X221909000Y-72830000D01*
X221909000Y-72830000D02*
X220131000Y-72830000D01*
X220131000Y-72830000D02*
X219750000Y-72449000D01*
X219750000Y-72449000D02*
X219750000Y-70671000D01*
X219750000Y-70671000D02*
X220131000Y-70290000D01*
X221909000Y-70290000D02*
X220131000Y-70290000D01*
X221909000Y-67750000D02*
X222290000Y-68131000D01*
X222290000Y-68131000D02*
X222290000Y-69909000D01*
X222290000Y-69909000D02*
X221909000Y-70290000D01*
X220131000Y-67750000D02*
X219750000Y-68131000D01*
X219750000Y-68131000D02*
X219750000Y-69909000D01*
X219750000Y-69909000D02*
X220131000Y-70290000D01*
X219750000Y-65210000D02*
X219750000Y-67750000D01*
X222290000Y-65210000D02*
X222290000Y-67750000D01*
X222290000Y-67750000D02*
X219750000Y-67750000D01*
X219750000Y-65210000D02*
X222290000Y-65210000D01*
X219369000Y-70290000D02*
X219750000Y-70671000D01*
X219750000Y-70671000D02*
X219750000Y-72449000D01*
X219750000Y-72449000D02*
X219369000Y-72830000D01*
X219369000Y-72830000D02*
X217591000Y-72830000D01*
X217591000Y-72830000D02*
X217210000Y-72449000D01*
X217210000Y-72449000D02*
X217210000Y-70671000D01*
X217210000Y-70671000D02*
X217591000Y-70290000D01*
X219369000Y-70290000D02*
X217591000Y-70290000D01*
X219369000Y-67750000D02*
X219750000Y-68131000D01*
X219750000Y-68131000D02*
X219750000Y-69909000D01*
X219750000Y-69909000D02*
X219369000Y-70290000D01*
X217591000Y-67750000D02*
X217210000Y-68131000D01*
X217210000Y-68131000D02*
X217210000Y-69909000D01*
X217210000Y-69909000D02*
X217591000Y-70290000D01*
X217210000Y-65210000D02*
X217210000Y-67750000D01*
X219750000Y-65210000D02*
X219750000Y-67750000D01*
X219750000Y-67750000D02*
X217210000Y-67750000D01*
X217210000Y-65210000D02*
X219750000Y-65210000D01*
X216829000Y-70290000D02*
X217210000Y-70671000D01*
X217210000Y-70671000D02*
X217210000Y-72449000D01*
X217210000Y-72449000D02*
X216829000Y-72830000D01*
X216829000Y-72830000D02*
X215051000Y-72830000D01*
X215051000Y-72830000D02*
X214670000Y-72449000D01*
X214670000Y-72449000D02*
X214670000Y-70671000D01*
X214670000Y-70671000D02*
X215051000Y-70290000D01*
X216829000Y-70290000D02*
X215051000Y-70290000D01*
X216829000Y-67750000D02*
X217210000Y-68131000D01*
X217210000Y-68131000D02*
X217210000Y-69909000D01*
X217210000Y-69909000D02*
X216829000Y-70290000D01*
X215051000Y-67750000D02*
X214670000Y-68131000D01*
X214670000Y-68131000D02*
X214670000Y-69909000D01*
X214670000Y-69909000D02*
X215051000Y-70290000D01*
X214670000Y-65210000D02*
X214670000Y-67750000D01*
X217210000Y-65210000D02*
X217210000Y-67750000D01*
X217210000Y-67750000D02*
X214670000Y-67750000D01*
X214670000Y-65210000D02*
X217210000Y-65210000D01*
X214289000Y-70290000D02*
X214670000Y-70671000D01*
X214670000Y-70671000D02*
X214670000Y-72449000D01*
X214670000Y-72449000D02*
X214289000Y-72830000D01*
X214289000Y-72830000D02*
X212511000Y-72830000D01*
X212511000Y-72830000D02*
X212130000Y-72449000D01*
X212130000Y-72449000D02*
X212130000Y-70671000D01*
X212130000Y-70671000D02*
X212511000Y-70290000D01*
X214289000Y-70290000D02*
X212511000Y-70290000D01*
X214289000Y-67750000D02*
X214670000Y-68131000D01*
X214670000Y-68131000D02*
X214670000Y-69909000D01*
X214670000Y-69909000D02*
X214289000Y-70290000D01*
X212511000Y-67750000D02*
X212130000Y-68131000D01*
X212130000Y-68131000D02*
X212130000Y-69909000D01*
X212130000Y-69909000D02*
X212511000Y-70290000D01*
X212130000Y-65210000D02*
X212130000Y-67750000D01*
X214670000Y-65210000D02*
X214670000Y-67750000D01*
X214670000Y-67750000D02*
X212130000Y-67750000D01*
X212130000Y-65210000D02*
X214670000Y-65210000D01*
X211749000Y-70290000D02*
X212130000Y-70671000D01*
X212130000Y-70671000D02*
X212130000Y-72449000D01*
X212130000Y-72449000D02*
X211749000Y-72830000D01*
X211749000Y-72830000D02*
X209971000Y-72830000D01*
X209971000Y-72830000D02*
X209590000Y-72449000D01*
X209590000Y-72449000D02*
X209590000Y-70671000D01*
X209590000Y-70671000D02*
X209971000Y-70290000D01*
X211749000Y-70290000D02*
X209971000Y-70290000D01*
X211749000Y-67750000D02*
X212130000Y-68131000D01*
X212130000Y-68131000D02*
X212130000Y-69909000D01*
X212130000Y-69909000D02*
X211749000Y-70290000D01*
X209971000Y-67750000D02*
X209590000Y-68131000D01*
X209590000Y-68131000D02*
X209590000Y-69909000D01*
X209590000Y-69909000D02*
X209971000Y-70290000D01*
X209590000Y-65210000D02*
X209590000Y-67750000D01*
X212130000Y-65210000D02*
X212130000Y-67750000D01*
X212130000Y-67750000D02*
X209590000Y-67750000D01*
X209590000Y-65210000D02*
X212130000Y-65210000D01*
X254619000Y-104970000D02*
X252841000Y-104970000D01*
X252460000Y-105351000D02*
X252841000Y-104970000D01*
X252841000Y-107510000D02*
X252460000Y-107129000D01*
X254619000Y-107510000D02*
X252841000Y-107510000D01*
X255000000Y-107129000D02*
X254619000Y-107510000D01*
X255000000Y-105351000D02*
X255000000Y-107129000D01*
X254619000Y-104970000D02*
X255000000Y-105351000D01*
X253222000Y-87825000D02*
X253222000Y-88079000D01*
X253349000Y-87825000D02*
X253349000Y-88333000D01*
X253476000Y-87825000D02*
X253476000Y-88587000D01*
X253603000Y-87825000D02*
X253603000Y-88841000D01*
X254238000Y-87825000D02*
X254238000Y-88079000D01*
X254111000Y-87825000D02*
X254111000Y-88333000D01*
X253984000Y-87825000D02*
X253984000Y-88587000D01*
X253857000Y-87825000D02*
X253857000Y-88841000D01*
X253730000Y-89095000D02*
X253095000Y-87825000D01*
X253095000Y-87825000D02*
X254365000Y-87825000D01*
X254365000Y-87825000D02*
X253730000Y-89095000D01*
X253730000Y-89095000D02*
X253730000Y-87825000D01*
X254619000Y-102430000D02*
X255000000Y-102811000D01*
X255000000Y-102811000D02*
X255000000Y-104589000D01*
X255000000Y-104589000D02*
X254619000Y-104970000D01*
X254619000Y-104970000D02*
X252841000Y-104970000D01*
X252841000Y-104970000D02*
X252460000Y-104589000D01*
X252460000Y-102811000D02*
X252841000Y-102430000D01*
X254619000Y-99890000D02*
X255000000Y-100271000D01*
X255000000Y-100271000D02*
X255000000Y-102049000D01*
X255000000Y-102049000D02*
X254619000Y-102430000D01*
X254619000Y-102430000D02*
X252841000Y-102430000D01*
X252841000Y-102430000D02*
X252460000Y-102049000D01*
X252460000Y-100271000D02*
X252841000Y-99890000D01*
X254619000Y-97350000D02*
X255000000Y-97731000D01*
X255000000Y-97731000D02*
X255000000Y-99509000D01*
X255000000Y-99509000D02*
X254619000Y-99890000D01*
X254619000Y-99890000D02*
X252841000Y-99890000D01*
X252841000Y-99890000D02*
X252460000Y-99509000D01*
X252460000Y-97731000D02*
X252841000Y-97350000D01*
X254619000Y-94810000D02*
X255000000Y-95191000D01*
X255000000Y-95191000D02*
X255000000Y-96969000D01*
X255000000Y-96969000D02*
X254619000Y-97350000D01*
X254619000Y-97350000D02*
X252841000Y-97350000D01*
X252841000Y-97350000D02*
X252460000Y-96969000D01*
X252460000Y-95191000D02*
X252841000Y-94810000D01*
X254619000Y-94810000D02*
X252841000Y-94810000D01*
X254619000Y-92270000D02*
X255000000Y-92651000D01*
X255000000Y-92651000D02*
X255000000Y-94429000D01*
X255000000Y-94429000D02*
X254619000Y-94810000D01*
X252841000Y-92270000D02*
X252460000Y-92651000D01*
X252460000Y-94429000D02*
X252841000Y-94810000D01*
X255000000Y-89730000D02*
X255000000Y-92270000D01*
X255000000Y-92270000D02*
X252460000Y-92270000D01*
X252460000Y-89730000D02*
X255000000Y-89730000D01*
X207159000Y-104970000D02*
X205381000Y-104970000D01*
X205000000Y-105351000D02*
X205381000Y-104970000D01*
X205000000Y-107129000D02*
X205000000Y-105351000D01*
X205381000Y-107510000D02*
X205000000Y-107129000D01*
X207159000Y-107510000D02*
X205381000Y-107510000D01*
X207540000Y-107129000D02*
X207159000Y-107510000D01*
X207159000Y-104970000D02*
X207540000Y-105351000D01*
X205762000Y-87825000D02*
X205762000Y-88079000D01*
X205889000Y-87825000D02*
X205889000Y-88333000D01*
X206016000Y-87825000D02*
X206016000Y-88587000D01*
X206143000Y-87825000D02*
X206143000Y-88841000D01*
X206778000Y-87825000D02*
X206778000Y-88079000D01*
X206651000Y-87825000D02*
X206651000Y-88333000D01*
X206524000Y-87825000D02*
X206524000Y-88587000D01*
X206397000Y-87825000D02*
X206397000Y-88841000D01*
X206270000Y-89095000D02*
X205635000Y-87825000D01*
X205635000Y-87825000D02*
X206905000Y-87825000D01*
X206905000Y-87825000D02*
X206270000Y-89095000D01*
X206270000Y-89095000D02*
X206270000Y-87825000D01*
X207159000Y-102430000D02*
X207540000Y-102811000D01*
X207540000Y-104589000D02*
X207159000Y-104970000D01*
X207159000Y-104970000D02*
X205381000Y-104970000D01*
X205381000Y-104970000D02*
X205000000Y-104589000D01*
X205000000Y-104589000D02*
X205000000Y-102811000D01*
X205000000Y-102811000D02*
X205381000Y-102430000D01*
X207159000Y-99890000D02*
X207540000Y-100271000D01*
X207540000Y-102049000D02*
X207159000Y-102430000D01*
X207159000Y-102430000D02*
X205381000Y-102430000D01*
X205381000Y-102430000D02*
X205000000Y-102049000D01*
X205000000Y-102049000D02*
X205000000Y-100271000D01*
X205000000Y-100271000D02*
X205381000Y-99890000D01*
X207159000Y-97350000D02*
X207540000Y-97731000D01*
X207540000Y-99509000D02*
X207159000Y-99890000D01*
X207159000Y-99890000D02*
X205381000Y-99890000D01*
X205381000Y-99890000D02*
X205000000Y-99509000D01*
X205000000Y-99509000D02*
X205000000Y-97731000D01*
X205000000Y-97731000D02*
X205381000Y-97350000D01*
X207159000Y-94810000D02*
X207540000Y-95191000D01*
X207540000Y-96969000D02*
X207159000Y-97350000D01*
X207159000Y-97350000D02*
X205381000Y-97350000D01*
X205381000Y-97350000D02*
X205000000Y-96969000D01*
X205000000Y-96969000D02*
X205000000Y-95191000D01*
X205000000Y-95191000D02*
X205381000Y-94810000D01*
X207159000Y-94810000D02*
X205381000Y-94810000D01*
X207159000Y-92270000D02*
X207540000Y-92651000D01*
X207540000Y-94429000D02*
X207159000Y-94810000D01*
X205381000Y-92270000D02*
X205000000Y-92651000D01*
X205000000Y-92651000D02*
X205000000Y-94429000D01*
X205000000Y-94429000D02*
X205381000Y-94810000D01*
X205000000Y-89730000D02*
X205000000Y-92270000D01*
X207540000Y-92270000D02*
X205000000Y-92270000D01*
X205000000Y-89730000D02*
X207540000Y-89730000D01*
X233000000Y-82250000D02*
X233000000Y-83750000D01*
X237000000Y-82250000D02*
X237000000Y-83750000D01*
X237000000Y-78500000D02*
X237000000Y-79500000D01*
X237000000Y-78500000D02*
X236000000Y-78500000D01*
X233000000Y-78500000D02*
X233000000Y-79500000D01*
X233000000Y-78500000D02*
X234000000Y-78500000D01*
X237000000Y-86500000D02*
X237000000Y-87500000D01*
X237000000Y-87500000D02*
X236000000Y-87500000D01*
X233000000Y-87500000D02*
X233000000Y-86500000D01*
X233000000Y-86500000D02*
X233000000Y-87500000D01*
X233000000Y-87500000D02*
X234000000Y-87500000D01*
X234492000Y-89096000D02*
X234492000Y-88842000D01*
X234619000Y-89096000D02*
X234619000Y-88588000D01*
X234746000Y-89096000D02*
X234746000Y-88334000D01*
X234873000Y-89096000D02*
X234873000Y-88080000D01*
X235508000Y-89096000D02*
X235508000Y-88842000D01*
X235381000Y-89096000D02*
X235381000Y-88588000D01*
X235254000Y-89096000D02*
X235254000Y-88334000D01*
X235127000Y-89096000D02*
X235127000Y-88080000D01*
X235000000Y-87826000D02*
X235635000Y-89096000D01*
X235635000Y-89096000D02*
X234365000Y-89096000D01*
X234365000Y-89096000D02*
X235000000Y-87826000D01*
X235000000Y-87826000D02*
X235000000Y-89096000D01*
X250770000Y-68778000D02*
X250770000Y-70278000D01*
X254770000Y-68778000D02*
X254770000Y-70278000D01*
X254770000Y-65028000D02*
X254770000Y-66028000D01*
X254770000Y-65028000D02*
X253770000Y-65028000D01*
X250770000Y-65028000D02*
X250770000Y-66028000D01*
X250770000Y-65028000D02*
X251770000Y-65028000D01*
X254770000Y-73028000D02*
X254770000Y-74028000D01*
X254770000Y-74028000D02*
X253770000Y-74028000D01*
X250770000Y-74028000D02*
X250770000Y-73028000D01*
X250770000Y-73028000D02*
X250770000Y-74028000D01*
X250770000Y-74028000D02*
X251770000Y-74028000D01*
X252262000Y-75624000D02*
X252262000Y-75370000D01*
X252389000Y-75624000D02*
X252389000Y-75116000D01*
X252516000Y-75624000D02*
X252516000Y-74862000D01*
X252643000Y-75624000D02*
X252643000Y-74608000D01*
X253278000Y-75624000D02*
X253278000Y-75370000D01*
X253151000Y-75624000D02*
X253151000Y-75116000D01*
X253024000Y-75624000D02*
X253024000Y-74862000D01*
X252897000Y-75624000D02*
X252897000Y-74608000D01*
X252770000Y-74354000D02*
X253405000Y-75624000D01*
X253405000Y-75624000D02*
X252135000Y-75624000D01*
X252135000Y-75624000D02*
X252770000Y-74354000D01*
X252770000Y-74354000D02*
X252770000Y-75624000D01*
X212765000Y-99500000D02*
X247055000Y-99500000D01*
X247055000Y-103310000D02*
X212765000Y-103310000D01*
D15*
X246580000Y-100135000D02*
G75*
G03X246580000Y-100135000I-160000J0D01*
G01*
D14*
X246420000Y-101405000D02*
G75*
G03X247055000Y-102040000I635000J0D01*
G01*
X247055000Y-100770000D02*
G75*
G03X246420000Y-101405000I0J-635000D01*
G01*
X247055000Y-103310000D02*
X247055000Y-102040000D01*
X212765000Y-103310000D02*
X212765000Y-99500000D01*
X247055000Y-99500000D02*
X247055000Y-100770000D01*
X225938000Y-107590000D02*
X224738000Y-107590000D01*
X225938000Y-109190000D02*
X224738000Y-109190000D01*
X212500000Y-86200000D02*
X212500000Y-86450000D01*
X207952120Y-86433941D02*
G75*
G03X210000000Y-87500000I2047880J1433941D01*
G01*
X207952120Y-83566059D02*
G75*
G02X210000000Y-82500000I2047880J-1433941D01*
G01*
X212165064Y-86250000D02*
G75*
G02X210000000Y-87500000I-2165064J1250000D01*
G01*
X212165064Y-86250000D02*
G75*
G02X210000000Y-87500000I-2165064J1250000D01*
G01*
X212047880Y-83566059D02*
G75*
G03X210000000Y-82500000I-2047880J-1433941D01*
G01*
X207100000Y-85000000D02*
G75*
G03X210000000Y-87900000I2900000J0D01*
G01*
X212496152Y-83523780D02*
G75*
G03X210000000Y-82100000I-2496152J-1476220D01*
G01*
X212496152Y-86476220D02*
G75*
G02X210000000Y-87900000I-2496152J1476220D01*
G01*
X210000000Y-82100000D02*
G75*
G03X207100000Y-85000000I0J-2900000D01*
G01*
X212500000Y-83550000D02*
X212500000Y-83800000D01*
X222500000Y-86200000D02*
X222500000Y-86450000D01*
X217952120Y-86433941D02*
G75*
G03X220000000Y-87500000I2047880J1433941D01*
G01*
X217952120Y-83566059D02*
G75*
G02X220000000Y-82500000I2047880J-1433941D01*
G01*
X222165064Y-86250000D02*
G75*
G02X220000000Y-87500000I-2165064J1250000D01*
G01*
X222165064Y-86250000D02*
G75*
G02X220000000Y-87500000I-2165064J1250000D01*
G01*
X222047880Y-83566059D02*
G75*
G03X220000000Y-82500000I-2047880J-1433941D01*
G01*
X217100000Y-85000000D02*
G75*
G03X220000000Y-87900000I2900000J0D01*
G01*
X222496152Y-83523780D02*
G75*
G03X220000000Y-82100000I-2496152J-1476220D01*
G01*
X222496152Y-86476220D02*
G75*
G02X220000000Y-87900000I-2496152J1476220D01*
G01*
X220000000Y-82100000D02*
G75*
G03X217100000Y-85000000I0J-2900000D01*
G01*
X222500000Y-83550000D02*
X222500000Y-83800000D01*
X232500000Y-86200000D02*
X232500000Y-86450000D01*
X227952120Y-86433941D02*
G75*
G03X230000000Y-87500000I2047880J1433941D01*
G01*
X227952120Y-83566059D02*
G75*
G02X230000000Y-82500000I2047880J-1433941D01*
G01*
X232165064Y-86250000D02*
G75*
G02X230000000Y-87500000I-2165064J1250000D01*
G01*
X232165064Y-86250000D02*
G75*
G02X230000000Y-87500000I-2165064J1250000D01*
G01*
X232047880Y-83566059D02*
G75*
G03X230000000Y-82500000I-2047880J-1433941D01*
G01*
X227100000Y-85000000D02*
G75*
G03X230000000Y-87900000I2900000J0D01*
G01*
X232496152Y-83523780D02*
G75*
G03X230000000Y-82100000I-2496152J-1476220D01*
G01*
X232496152Y-86476220D02*
G75*
G02X230000000Y-87900000I-2496152J1476220D01*
G01*
X230000000Y-82100000D02*
G75*
G03X227100000Y-85000000I0J-2900000D01*
G01*
X232500000Y-83550000D02*
X232500000Y-83800000D01*
X242500000Y-86200000D02*
X242500000Y-86450000D01*
X237952120Y-86433941D02*
G75*
G03X240000000Y-87500000I2047880J1433941D01*
G01*
X237952120Y-83566059D02*
G75*
G02X240000000Y-82500000I2047880J-1433941D01*
G01*
X242165064Y-86250000D02*
G75*
G02X240000000Y-87500000I-2165064J1250000D01*
G01*
X242165064Y-86250000D02*
G75*
G02X240000000Y-87500000I-2165064J1250000D01*
G01*
X242047880Y-83566059D02*
G75*
G03X240000000Y-82500000I-2047880J-1433941D01*
G01*
X237100000Y-85000000D02*
G75*
G03X240000000Y-87900000I2900000J0D01*
G01*
X242496152Y-83523780D02*
G75*
G03X240000000Y-82100000I-2496152J-1476220D01*
G01*
X242496152Y-86476220D02*
G75*
G02X240000000Y-87900000I-2496152J1476220D01*
G01*
X240000000Y-82100000D02*
G75*
G03X237100000Y-85000000I0J-2900000D01*
G01*
X242500000Y-83550000D02*
X242500000Y-83800000D01*
X252500000Y-86200000D02*
X252500000Y-86450000D01*
X247952120Y-86433941D02*
G75*
G03X250000000Y-87500000I2047880J1433941D01*
G01*
X247952120Y-83566059D02*
G75*
G02X250000000Y-82500000I2047880J-1433941D01*
G01*
X252165064Y-86250000D02*
G75*
G02X250000000Y-87500000I-2165064J1250000D01*
G01*
X252165064Y-86250000D02*
G75*
G02X250000000Y-87500000I-2165064J1250000D01*
G01*
X252047880Y-83566059D02*
G75*
G03X250000000Y-82500000I-2047880J-1433941D01*
G01*
X247100000Y-85000000D02*
G75*
G03X250000000Y-87900000I2900000J0D01*
G01*
X252496152Y-83523780D02*
G75*
G03X250000000Y-82100000I-2496152J-1476220D01*
G01*
X252496152Y-86476220D02*
G75*
G02X250000000Y-87900000I-2496152J1476220D01*
G01*
X250000000Y-82100000D02*
G75*
G03X247100000Y-85000000I0J-2900000D01*
G01*
X252500000Y-83550000D02*
X252500000Y-83800000D01*
X210020000Y-75800000D02*
X210020000Y-76600000D01*
X211620000Y-75800000D02*
X211620000Y-76600000D01*
D16*
X212070000Y-77000000D02*
G75*
G03X212070000Y-77000000I-100000J0D01*
G01*
D14*
X211220000Y-76450000D02*
X210420000Y-76450000D01*
X211220000Y-75900000D02*
X210420000Y-75900000D01*
X210420000Y-75900000D02*
X210820000Y-76400000D01*
X210820000Y-76400000D02*
X211220000Y-75900000D01*
X212560000Y-75800000D02*
X212560000Y-76600000D01*
X214160000Y-75800000D02*
X214160000Y-76600000D01*
D16*
X214610000Y-77000000D02*
G75*
G03X214610000Y-77000000I-100000J0D01*
G01*
D14*
X213760000Y-76450000D02*
X212960000Y-76450000D01*
X213760000Y-75900000D02*
X212960000Y-75900000D01*
X212960000Y-75900000D02*
X213360000Y-76400000D01*
X213360000Y-76400000D02*
X213760000Y-75900000D01*
X215100000Y-75800000D02*
X215100000Y-76600000D01*
X216700000Y-75800000D02*
X216700000Y-76600000D01*
D16*
X217150000Y-77000000D02*
G75*
G03X217150000Y-77000000I-100000J0D01*
G01*
D14*
X216300000Y-76450000D02*
X215500000Y-76450000D01*
X216300000Y-75900000D02*
X215500000Y-75900000D01*
X215500000Y-75900000D02*
X215900000Y-76400000D01*
X215900000Y-76400000D02*
X216300000Y-75900000D01*
X217640000Y-75800000D02*
X217640000Y-76600000D01*
X219240000Y-75800000D02*
X219240000Y-76600000D01*
D16*
X219690000Y-77000000D02*
G75*
G03X219690000Y-77000000I-100000J0D01*
G01*
D14*
X218840000Y-76450000D02*
X218040000Y-76450000D01*
X218840000Y-75900000D02*
X218040000Y-75900000D01*
X218040000Y-75900000D02*
X218440000Y-76400000D01*
X218440000Y-76400000D02*
X218840000Y-75900000D01*
X220180000Y-75800000D02*
X220180000Y-76600000D01*
X221780000Y-75800000D02*
X221780000Y-76600000D01*
D16*
X222230000Y-77000000D02*
G75*
G03X222230000Y-77000000I-100000J0D01*
G01*
D14*
X221380000Y-76450000D02*
X220580000Y-76450000D01*
X221380000Y-75900000D02*
X220580000Y-75900000D01*
X220580000Y-75900000D02*
X220980000Y-76400000D01*
X220980000Y-76400000D02*
X221380000Y-75900000D01*
X222720000Y-75800000D02*
X222720000Y-76600000D01*
X224320000Y-75800000D02*
X224320000Y-76600000D01*
D16*
X224770000Y-77000000D02*
G75*
G03X224770000Y-77000000I-100000J0D01*
G01*
D14*
X223920000Y-76450000D02*
X223120000Y-76450000D01*
X223920000Y-75900000D02*
X223120000Y-75900000D01*
X223120000Y-75900000D02*
X223520000Y-76400000D01*
X223520000Y-76400000D02*
X223920000Y-75900000D01*
X225260000Y-75800000D02*
X225260000Y-76600000D01*
X226860000Y-75800000D02*
X226860000Y-76600000D01*
D16*
X227310000Y-77000000D02*
G75*
G03X227310000Y-77000000I-100000J0D01*
G01*
D14*
X226460000Y-76450000D02*
X225660000Y-76450000D01*
X226460000Y-75900000D02*
X225660000Y-75900000D01*
X225660000Y-75900000D02*
X226060000Y-76400000D01*
X226060000Y-76400000D02*
X226460000Y-75900000D01*
X227800000Y-75800000D02*
X227800000Y-76600000D01*
X229400000Y-75800000D02*
X229400000Y-76600000D01*
D16*
X229850000Y-77000000D02*
G75*
G03X229850000Y-77000000I-100000J0D01*
G01*
D14*
X229000000Y-76450000D02*
X228200000Y-76450000D01*
X229000000Y-75900000D02*
X228200000Y-75900000D01*
X228200000Y-75900000D02*
X228600000Y-76400000D01*
X228600000Y-76400000D02*
X229000000Y-75900000D01*
X230340000Y-75800000D02*
X230340000Y-76600000D01*
X231940000Y-75800000D02*
X231940000Y-76600000D01*
D16*
X232390000Y-77000000D02*
G75*
G03X232390000Y-77000000I-100000J0D01*
G01*
D14*
X231540000Y-76450000D02*
X230740000Y-76450000D01*
X231540000Y-75900000D02*
X230740000Y-75900000D01*
X230740000Y-75900000D02*
X231140000Y-76400000D01*
X231140000Y-76400000D02*
X231540000Y-75900000D01*
X232880000Y-75800000D02*
X232880000Y-76600000D01*
X234480000Y-75800000D02*
X234480000Y-76600000D01*
D16*
X234930000Y-77000000D02*
G75*
G03X234930000Y-77000000I-100000J0D01*
G01*
D14*
X234080000Y-76450000D02*
X233280000Y-76450000D01*
X234080000Y-75900000D02*
X233280000Y-75900000D01*
X233280000Y-75900000D02*
X233680000Y-76400000D01*
X233680000Y-76400000D02*
X234080000Y-75900000D01*
X235420000Y-75800000D02*
X235420000Y-76600000D01*
X237020000Y-75800000D02*
X237020000Y-76600000D01*
D16*
X237470000Y-77000000D02*
G75*
G03X237470000Y-77000000I-100000J0D01*
G01*
D14*
X236620000Y-76450000D02*
X235820000Y-76450000D01*
X236620000Y-75900000D02*
X235820000Y-75900000D01*
X235820000Y-75900000D02*
X236220000Y-76400000D01*
X236220000Y-76400000D02*
X236620000Y-75900000D01*
X237960000Y-75800000D02*
X237960000Y-76600000D01*
X239560000Y-75800000D02*
X239560000Y-76600000D01*
D16*
X240010000Y-77000000D02*
G75*
G03X240010000Y-77000000I-100000J0D01*
G01*
D14*
X239160000Y-76450000D02*
X238360000Y-76450000D01*
X239160000Y-75900000D02*
X238360000Y-75900000D01*
X238360000Y-75900000D02*
X238760000Y-76400000D01*
X238760000Y-76400000D02*
X239160000Y-75900000D01*
X240500000Y-75800000D02*
X240500000Y-76600000D01*
X242100000Y-75800000D02*
X242100000Y-76600000D01*
D16*
X242550000Y-77000000D02*
G75*
G03X242550000Y-77000000I-100000J0D01*
G01*
D14*
X241700000Y-76450000D02*
X240900000Y-76450000D01*
X241700000Y-75900000D02*
X240900000Y-75900000D01*
X240900000Y-75900000D02*
X241300000Y-76400000D01*
X241300000Y-76400000D02*
X241700000Y-75900000D01*
X243040000Y-75800000D02*
X243040000Y-76600000D01*
X244640000Y-75800000D02*
X244640000Y-76600000D01*
D16*
X245090000Y-77000000D02*
G75*
G03X245090000Y-77000000I-100000J0D01*
G01*
D14*
X244240000Y-76450000D02*
X243440000Y-76450000D01*
X244240000Y-75900000D02*
X243440000Y-75900000D01*
X243440000Y-75900000D02*
X243840000Y-76400000D01*
X243840000Y-76400000D02*
X244240000Y-75900000D01*
X245580000Y-75800000D02*
X245580000Y-76600000D01*
X247180000Y-75800000D02*
X247180000Y-76600000D01*
D16*
X247630000Y-77000000D02*
G75*
G03X247630000Y-77000000I-100000J0D01*
G01*
D14*
X246780000Y-76450000D02*
X245980000Y-76450000D01*
X246780000Y-75900000D02*
X245980000Y-75900000D01*
X245980000Y-75900000D02*
X246380000Y-76400000D01*
X246380000Y-76400000D02*
X246780000Y-75900000D01*
X248120000Y-75800000D02*
X248120000Y-76600000D01*
X249720000Y-75800000D02*
X249720000Y-76600000D01*
D16*
X250170000Y-77000000D02*
G75*
G03X250170000Y-77000000I-100000J0D01*
G01*
D14*
X249320000Y-76450000D02*
X248520000Y-76450000D01*
X249320000Y-75900000D02*
X248520000Y-75900000D01*
X248520000Y-75900000D02*
X248920000Y-76400000D01*
X248920000Y-76400000D02*
X249320000Y-75900000D01*
X246900000Y-88245000D02*
X245900000Y-88245000D01*
X246400000Y-87745000D02*
X246400000Y-88745000D01*
X249150000Y-91245000D02*
G75*
G03X249150000Y-91245000I-4000000J0D01*
G01*
X229310000Y-109190000D02*
X230510000Y-109190000D01*
X229310000Y-107590000D02*
X230510000Y-107590000D01*
X251441144Y-108054857D02*
X252241144Y-109254857D01*
X252241144Y-108054857D02*
X251441144Y-109254857D01*
X253326858Y-109254857D02*
X252641143Y-109254857D01*
X252984001Y-109254857D02*
X252984001Y-108054857D01*
X252869715Y-108226286D01*
X252755429Y-108340571D01*
X252641143Y-108397714D01*
X254012572Y-108569143D02*
X253898286Y-108512000D01*
X253841143Y-108454857D01*
X253784000Y-108340571D01*
X253784000Y-108283429D01*
X253841143Y-108169143D01*
X253898286Y-108112000D01*
X254012572Y-108054857D01*
X254241143Y-108054857D01*
X254355429Y-108112000D01*
X254412572Y-108169143D01*
X254469715Y-108283429D01*
X254469715Y-108340571D01*
X254412572Y-108454857D01*
X254355429Y-108512000D01*
X254241143Y-108569143D01*
X254012572Y-108569143D01*
X253898286Y-108626286D01*
X253841143Y-108683429D01*
X253784000Y-108797714D01*
X253784000Y-109026286D01*
X253841143Y-109140571D01*
X253898286Y-109197714D01*
X254012572Y-109254857D01*
X254241143Y-109254857D01*
X254355429Y-109197714D01*
X254412572Y-109140571D01*
X254469715Y-109026286D01*
X254469715Y-108797714D01*
X254412572Y-108683429D01*
X254355429Y-108626286D01*
X254241143Y-108569143D01*
X254128571Y-86785714D02*
X254185714Y-86842857D01*
X254242857Y-87014286D01*
X254242857Y-87128572D01*
X254185714Y-87300000D01*
X254071429Y-87414286D01*
X253957143Y-87471429D01*
X253728571Y-87528572D01*
X253557143Y-87528572D01*
X253328571Y-87471429D01*
X253214286Y-87414286D01*
X253100000Y-87300000D01*
X253042857Y-87128572D01*
X253042857Y-87014286D01*
X253100000Y-86842857D01*
X253157143Y-86785714D01*
X254242857Y-86271429D02*
X253042857Y-86271429D01*
X253614286Y-86271429D02*
X253614286Y-85585714D01*
X254242857Y-85585714D02*
X253042857Y-85585714D01*
X253900000Y-85071429D02*
X253900000Y-84500000D01*
X254242857Y-85185714D02*
X253042857Y-84785714D01*
X254242857Y-84385714D01*
X254242857Y-83985715D02*
X253042857Y-83985715D01*
X254242857Y-83414286D02*
X253042857Y-83414286D01*
X254242857Y-82728571D01*
X253042857Y-82728571D01*
X250532857Y-106639999D02*
X250532857Y-105839999D01*
X251732857Y-106354285D01*
X250932857Y-98391428D02*
X251732857Y-98391428D01*
X250475714Y-98677142D02*
X251332857Y-98962857D01*
X251332857Y-98219999D01*
X251732857Y-90657142D02*
X251732857Y-91342857D01*
X251732857Y-90999999D02*
X250532857Y-90999999D01*
X250704286Y-91114285D01*
X250818571Y-91228571D01*
X250875714Y-91342857D01*
X205467144Y-108054857D02*
X206267144Y-109254857D01*
X206267144Y-108054857D02*
X205467144Y-109254857D01*
X207352858Y-109254857D02*
X206667143Y-109254857D01*
X207010001Y-109254857D02*
X207010001Y-108054857D01*
X206895715Y-108226286D01*
X206781429Y-108340571D01*
X206667143Y-108397714D01*
X207752858Y-108054857D02*
X208552858Y-108054857D01*
X208038572Y-109254857D01*
X206842857Y-87314286D02*
X205642857Y-87314286D01*
X206842857Y-86742857D02*
X205642857Y-86742857D01*
X206842857Y-86057142D01*
X205642857Y-86057142D01*
X206842857Y-85485714D02*
X205642857Y-85485714D01*
X205642857Y-85028571D01*
X205700000Y-84914285D01*
X205757143Y-84857142D01*
X205871429Y-84799999D01*
X206042857Y-84799999D01*
X206157143Y-84857142D01*
X206214286Y-84914285D01*
X206271429Y-85028571D01*
X206271429Y-85485714D01*
X205642857Y-84285714D02*
X206614286Y-84285714D01*
X206728571Y-84228571D01*
X206785714Y-84171428D01*
X206842857Y-84057142D01*
X206842857Y-83828571D01*
X206785714Y-83714285D01*
X206728571Y-83657142D01*
X206614286Y-83599999D01*
X205642857Y-83599999D01*
X205642857Y-83199999D02*
X205642857Y-82514285D01*
X206842857Y-82857142D02*
X205642857Y-82857142D01*
X208592857Y-106649999D02*
X208592857Y-105849999D01*
X209792857Y-106364285D01*
X208992857Y-98521428D02*
X209792857Y-98521428D01*
X208535714Y-98807142D02*
X209392857Y-99092857D01*
X209392857Y-98349999D01*
X209792857Y-90657142D02*
X209792857Y-91342857D01*
X209792857Y-90999999D02*
X208592857Y-90999999D01*
X208764286Y-91114285D01*
X208878571Y-91228571D01*
X208935714Y-91342857D01*
X251257144Y-68892857D02*
X252057144Y-70092857D01*
X252057144Y-68892857D02*
X251257144Y-70092857D01*
X253142858Y-70092857D02*
X252457143Y-70092857D01*
X252800001Y-70092857D02*
X252800001Y-68892857D01*
X252685715Y-69064286D01*
X252571429Y-69178571D01*
X252457143Y-69235714D01*
X253714286Y-70092857D02*
X253942858Y-70092857D01*
X254057143Y-70035714D01*
X254114286Y-69978571D01*
X254228572Y-69807143D01*
X254285715Y-69578571D01*
X254285715Y-69121429D01*
X254228572Y-69007143D01*
X254171429Y-68950000D01*
X254057143Y-68892857D01*
X253828572Y-68892857D01*
X253714286Y-68950000D01*
X253657143Y-69007143D01*
X253600000Y-69121429D01*
X253600000Y-69407143D01*
X253657143Y-69521429D01*
X253714286Y-69578571D01*
X253828572Y-69635714D01*
X254057143Y-69635714D01*
X254171429Y-69578571D01*
X254228572Y-69521429D01*
X254285715Y-69407143D01*
X250642857Y-78785713D02*
X250642857Y-79357142D01*
X251214286Y-79414285D01*
X251157143Y-79357142D01*
X251100000Y-79242856D01*
X251100000Y-78957142D01*
X251157143Y-78842856D01*
X251214286Y-78785713D01*
X251328571Y-78728570D01*
X251614286Y-78728570D01*
X251728571Y-78785713D01*
X251785714Y-78842856D01*
X251842857Y-78957142D01*
X251842857Y-79242856D01*
X251785714Y-79357142D01*
X251728571Y-79414285D01*
X250642857Y-78385713D02*
X251842857Y-77985713D01*
X250642857Y-77585713D01*
X251842857Y-76671428D02*
X250642857Y-76671428D01*
X251785714Y-76671428D02*
X251842857Y-76785714D01*
X251842857Y-77014285D01*
X251785714Y-77128571D01*
X251728571Y-77185714D01*
X251614286Y-77242857D01*
X251271429Y-77242857D01*
X251157143Y-77185714D01*
X251100000Y-77128571D01*
X251042857Y-77014285D01*
X251042857Y-76785714D01*
X251100000Y-76671428D01*
X251785714Y-75585714D02*
X251842857Y-75700000D01*
X251842857Y-75928571D01*
X251785714Y-76042857D01*
X251728571Y-76100000D01*
X251614286Y-76157143D01*
X251271429Y-76157143D01*
X251157143Y-76100000D01*
X251100000Y-76042857D01*
X251042857Y-75928571D01*
X251042857Y-75700000D01*
X251100000Y-75585714D01*
X245335714Y-107092857D02*
X245335714Y-108064286D01*
X245392857Y-108178571D01*
X245450000Y-108235714D01*
X245564286Y-108292857D01*
X245792857Y-108292857D01*
X245907143Y-108235714D01*
X245964286Y-108178571D01*
X246021429Y-108064286D01*
X246021429Y-107092857D01*
X247221429Y-108292857D02*
X246535714Y-108292857D01*
X246878572Y-108292857D02*
X246878572Y-107092857D01*
X246764286Y-107264286D01*
X246650000Y-107378571D01*
X246535714Y-107435714D01*
X225110000Y-100747857D02*
X225795714Y-100747857D01*
X225452857Y-101947857D02*
X225452857Y-100747857D01*
X226767143Y-101947857D02*
X226195714Y-101947857D01*
X226195714Y-100747857D01*
X227852858Y-101833571D02*
X227795715Y-101890714D01*
X227624286Y-101947857D01*
X227510000Y-101947857D01*
X227338572Y-101890714D01*
X227224286Y-101776429D01*
X227167143Y-101662143D01*
X227110000Y-101433571D01*
X227110000Y-101262143D01*
X227167143Y-101033571D01*
X227224286Y-100919286D01*
X227338572Y-100805000D01*
X227510000Y-100747857D01*
X227624286Y-100747857D01*
X227795715Y-100805000D01*
X227852858Y-100862143D01*
X228938572Y-100747857D02*
X228367143Y-100747857D01*
X228310000Y-101319286D01*
X228367143Y-101262143D01*
X228481429Y-101205000D01*
X228767143Y-101205000D01*
X228881429Y-101262143D01*
X228938572Y-101319286D01*
X228995715Y-101433571D01*
X228995715Y-101719286D01*
X228938572Y-101833571D01*
X228881429Y-101890714D01*
X228767143Y-101947857D01*
X228481429Y-101947857D01*
X228367143Y-101890714D01*
X228310000Y-101833571D01*
X229567143Y-101947857D02*
X229795715Y-101947857D01*
X229910000Y-101890714D01*
X229967143Y-101833571D01*
X230081429Y-101662143D01*
X230138572Y-101433571D01*
X230138572Y-100976429D01*
X230081429Y-100862143D01*
X230024286Y-100805000D01*
X229910000Y-100747857D01*
X229681429Y-100747857D01*
X229567143Y-100805000D01*
X229510000Y-100862143D01*
X229452857Y-100976429D01*
X229452857Y-101262143D01*
X229510000Y-101376429D01*
X229567143Y-101433571D01*
X229681429Y-101490714D01*
X229910000Y-101490714D01*
X230024286Y-101433571D01*
X230081429Y-101376429D01*
X230138572Y-101262143D01*
X231167143Y-101147857D02*
X231167143Y-101947857D01*
X230881429Y-100690714D02*
X230595714Y-101547857D01*
X231338572Y-101547857D01*
X232024286Y-100747857D02*
X232138571Y-100747857D01*
X232252857Y-100805000D01*
X232310000Y-100862143D01*
X232367143Y-100976429D01*
X232424286Y-101205000D01*
X232424286Y-101490714D01*
X232367143Y-101719286D01*
X232310000Y-101833571D01*
X232252857Y-101890714D01*
X232138571Y-101947857D01*
X232024286Y-101947857D01*
X231910000Y-101890714D01*
X231852857Y-101833571D01*
X231795714Y-101719286D01*
X231738571Y-101490714D01*
X231738571Y-101205000D01*
X231795714Y-100976429D01*
X231852857Y-100862143D01*
X231910000Y-100805000D01*
X232024286Y-100747857D01*
X232938571Y-101947857D02*
X232938571Y-100747857D01*
X233624286Y-101947857D01*
X233624286Y-100747857D01*
X234024286Y-100747857D02*
X234710000Y-100747857D01*
X234367143Y-101947857D02*
X234367143Y-100747857D01*
X225138001Y-111042857D02*
X224738001Y-110471429D01*
X224452286Y-111042857D02*
X224452286Y-109842857D01*
X224909429Y-109842857D01*
X225023715Y-109900000D01*
X225080858Y-109957143D01*
X225138001Y-110071429D01*
X225138001Y-110242857D01*
X225080858Y-110357143D01*
X225023715Y-110414286D01*
X224909429Y-110471429D01*
X224452286Y-110471429D01*
X226280858Y-111042857D02*
X225595143Y-111042857D01*
X225938001Y-111042857D02*
X225938001Y-109842857D01*
X225823715Y-110014286D01*
X225709429Y-110128571D01*
X225595143Y-110185714D01*
X211362857Y-81467143D02*
X210162857Y-81467143D01*
X210162857Y-81181428D01*
X210220000Y-81010000D01*
X210334286Y-80895714D01*
X210448571Y-80838571D01*
X210677143Y-80781428D01*
X210848571Y-80781428D01*
X211077143Y-80838571D01*
X211191429Y-80895714D01*
X211305714Y-81010000D01*
X211362857Y-81181428D01*
X211362857Y-81467143D01*
X211362857Y-79638571D02*
X211362857Y-80324286D01*
X211362857Y-79981428D02*
X210162857Y-79981428D01*
X210334286Y-80095714D01*
X210448571Y-80210000D01*
X210505714Y-80324286D01*
X210162857Y-78610000D02*
X210162857Y-78838571D01*
X210220000Y-78952857D01*
X210277143Y-79010000D01*
X210448571Y-79124286D01*
X210677143Y-79181429D01*
X211134286Y-79181429D01*
X211248571Y-79124286D01*
X211305714Y-79067143D01*
X211362857Y-78952857D01*
X211362857Y-78724286D01*
X211305714Y-78610000D01*
X211248571Y-78552857D01*
X211134286Y-78495714D01*
X210848571Y-78495714D01*
X210734286Y-78552857D01*
X210677143Y-78610000D01*
X210620000Y-78724286D01*
X210620000Y-78952857D01*
X210677143Y-79067143D01*
X210734286Y-79124286D01*
X210848571Y-79181429D01*
X213902857Y-81467143D02*
X212702857Y-81467143D01*
X212702857Y-81181428D01*
X212760000Y-81010000D01*
X212874286Y-80895714D01*
X212988571Y-80838571D01*
X213217143Y-80781428D01*
X213388571Y-80781428D01*
X213617143Y-80838571D01*
X213731429Y-80895714D01*
X213845714Y-81010000D01*
X213902857Y-81181428D01*
X213902857Y-81467143D01*
X213902857Y-79638571D02*
X213902857Y-80324286D01*
X213902857Y-79981428D02*
X212702857Y-79981428D01*
X212874286Y-80095714D01*
X212988571Y-80210000D01*
X213045714Y-80324286D01*
X212702857Y-78552857D02*
X212702857Y-79124286D01*
X213274286Y-79181429D01*
X213217143Y-79124286D01*
X213160000Y-79010000D01*
X213160000Y-78724286D01*
X213217143Y-78610000D01*
X213274286Y-78552857D01*
X213388571Y-78495714D01*
X213674286Y-78495714D01*
X213788571Y-78552857D01*
X213845714Y-78610000D01*
X213902857Y-78724286D01*
X213902857Y-79010000D01*
X213845714Y-79124286D01*
X213788571Y-79181429D01*
X216442857Y-81467143D02*
X215242857Y-81467143D01*
X215242857Y-81181428D01*
X215300000Y-81010000D01*
X215414286Y-80895714D01*
X215528571Y-80838571D01*
X215757143Y-80781428D01*
X215928571Y-80781428D01*
X216157143Y-80838571D01*
X216271429Y-80895714D01*
X216385714Y-81010000D01*
X216442857Y-81181428D01*
X216442857Y-81467143D01*
X216442857Y-79638571D02*
X216442857Y-80324286D01*
X216442857Y-79981428D02*
X215242857Y-79981428D01*
X215414286Y-80095714D01*
X215528571Y-80210000D01*
X215585714Y-80324286D01*
X215642857Y-78610000D02*
X216442857Y-78610000D01*
X215185714Y-78895714D02*
X216042857Y-79181429D01*
X216042857Y-78438571D01*
X218982857Y-81467143D02*
X217782857Y-81467143D01*
X217782857Y-81181428D01*
X217840000Y-81010000D01*
X217954286Y-80895714D01*
X218068571Y-80838571D01*
X218297143Y-80781428D01*
X218468571Y-80781428D01*
X218697143Y-80838571D01*
X218811429Y-80895714D01*
X218925714Y-81010000D01*
X218982857Y-81181428D01*
X218982857Y-81467143D01*
X218982857Y-79638571D02*
X218982857Y-80324286D01*
X218982857Y-79981428D02*
X217782857Y-79981428D01*
X217954286Y-80095714D01*
X218068571Y-80210000D01*
X218125714Y-80324286D01*
X217782857Y-79238571D02*
X217782857Y-78495714D01*
X218240000Y-78895714D01*
X218240000Y-78724286D01*
X218297143Y-78610000D01*
X218354286Y-78552857D01*
X218468571Y-78495714D01*
X218754286Y-78495714D01*
X218868571Y-78552857D01*
X218925714Y-78610000D01*
X218982857Y-78724286D01*
X218982857Y-79067143D01*
X218925714Y-79181429D01*
X218868571Y-79238571D01*
X221522857Y-81467143D02*
X220322857Y-81467143D01*
X220322857Y-81181428D01*
X220380000Y-81010000D01*
X220494286Y-80895714D01*
X220608571Y-80838571D01*
X220837143Y-80781428D01*
X221008571Y-80781428D01*
X221237143Y-80838571D01*
X221351429Y-80895714D01*
X221465714Y-81010000D01*
X221522857Y-81181428D01*
X221522857Y-81467143D01*
X221522857Y-79638571D02*
X221522857Y-80324286D01*
X221522857Y-79981428D02*
X220322857Y-79981428D01*
X220494286Y-80095714D01*
X220608571Y-80210000D01*
X220665714Y-80324286D01*
X220437143Y-79181429D02*
X220380000Y-79124286D01*
X220322857Y-79010000D01*
X220322857Y-78724286D01*
X220380000Y-78610000D01*
X220437143Y-78552857D01*
X220551429Y-78495714D01*
X220665714Y-78495714D01*
X220837143Y-78552857D01*
X221522857Y-79238571D01*
X221522857Y-78495714D01*
X224062857Y-81467143D02*
X222862857Y-81467143D01*
X222862857Y-81181428D01*
X222920000Y-81010000D01*
X223034286Y-80895714D01*
X223148571Y-80838571D01*
X223377143Y-80781428D01*
X223548571Y-80781428D01*
X223777143Y-80838571D01*
X223891429Y-80895714D01*
X224005714Y-81010000D01*
X224062857Y-81181428D01*
X224062857Y-81467143D01*
X224062857Y-79638571D02*
X224062857Y-80324286D01*
X224062857Y-79981428D02*
X222862857Y-79981428D01*
X223034286Y-80095714D01*
X223148571Y-80210000D01*
X223205714Y-80324286D01*
X224062857Y-78495714D02*
X224062857Y-79181429D01*
X224062857Y-78838571D02*
X222862857Y-78838571D01*
X223034286Y-78952857D01*
X223148571Y-79067143D01*
X223205714Y-79181429D01*
X226602857Y-81467143D02*
X225402857Y-81467143D01*
X225402857Y-81181428D01*
X225460000Y-81010000D01*
X225574286Y-80895714D01*
X225688571Y-80838571D01*
X225917143Y-80781428D01*
X226088571Y-80781428D01*
X226317143Y-80838571D01*
X226431429Y-80895714D01*
X226545714Y-81010000D01*
X226602857Y-81181428D01*
X226602857Y-81467143D01*
X226602857Y-79638571D02*
X226602857Y-80324286D01*
X226602857Y-79981428D02*
X225402857Y-79981428D01*
X225574286Y-80095714D01*
X225688571Y-80210000D01*
X225745714Y-80324286D01*
X225402857Y-78895714D02*
X225402857Y-78781429D01*
X225460000Y-78667143D01*
X225517143Y-78610000D01*
X225631429Y-78552857D01*
X225860000Y-78495714D01*
X226145714Y-78495714D01*
X226374286Y-78552857D01*
X226488571Y-78610000D01*
X226545714Y-78667143D01*
X226602857Y-78781429D01*
X226602857Y-78895714D01*
X226545714Y-79010000D01*
X226488571Y-79067143D01*
X226374286Y-79124286D01*
X226145714Y-79181429D01*
X225860000Y-79181429D01*
X225631429Y-79124286D01*
X225517143Y-79067143D01*
X225460000Y-79010000D01*
X225402857Y-78895714D01*
X229142857Y-80895714D02*
X227942857Y-80895714D01*
X227942857Y-80609999D01*
X228000000Y-80438571D01*
X228114286Y-80324285D01*
X228228571Y-80267142D01*
X228457143Y-80209999D01*
X228628571Y-80209999D01*
X228857143Y-80267142D01*
X228971429Y-80324285D01*
X229085714Y-80438571D01*
X229142857Y-80609999D01*
X229142857Y-80895714D01*
X229142857Y-79638571D02*
X229142857Y-79409999D01*
X229085714Y-79295714D01*
X229028571Y-79238571D01*
X228857143Y-79124285D01*
X228628571Y-79067142D01*
X228171429Y-79067142D01*
X228057143Y-79124285D01*
X228000000Y-79181428D01*
X227942857Y-79295714D01*
X227942857Y-79524285D01*
X228000000Y-79638571D01*
X228057143Y-79695714D01*
X228171429Y-79752857D01*
X228457143Y-79752857D01*
X228571429Y-79695714D01*
X228628571Y-79638571D01*
X228685714Y-79524285D01*
X228685714Y-79295714D01*
X228628571Y-79181428D01*
X228571429Y-79124285D01*
X228457143Y-79067142D01*
X231682857Y-80895714D02*
X230482857Y-80895714D01*
X230482857Y-80609999D01*
X230540000Y-80438571D01*
X230654286Y-80324285D01*
X230768571Y-80267142D01*
X230997143Y-80209999D01*
X231168571Y-80209999D01*
X231397143Y-80267142D01*
X231511429Y-80324285D01*
X231625714Y-80438571D01*
X231682857Y-80609999D01*
X231682857Y-80895714D01*
X230997143Y-79524285D02*
X230940000Y-79638571D01*
X230882857Y-79695714D01*
X230768571Y-79752857D01*
X230711429Y-79752857D01*
X230597143Y-79695714D01*
X230540000Y-79638571D01*
X230482857Y-79524285D01*
X230482857Y-79295714D01*
X230540000Y-79181428D01*
X230597143Y-79124285D01*
X230711429Y-79067142D01*
X230768571Y-79067142D01*
X230882857Y-79124285D01*
X230940000Y-79181428D01*
X230997143Y-79295714D01*
X230997143Y-79524285D01*
X231054286Y-79638571D01*
X231111429Y-79695714D01*
X231225714Y-79752857D01*
X231454286Y-79752857D01*
X231568571Y-79695714D01*
X231625714Y-79638571D01*
X231682857Y-79524285D01*
X231682857Y-79295714D01*
X231625714Y-79181428D01*
X231568571Y-79124285D01*
X231454286Y-79067142D01*
X231225714Y-79067142D01*
X231111429Y-79124285D01*
X231054286Y-79181428D01*
X230997143Y-79295714D01*
X239302857Y-80895714D02*
X238102857Y-80895714D01*
X238102857Y-80609999D01*
X238160000Y-80438571D01*
X238274286Y-80324285D01*
X238388571Y-80267142D01*
X238617143Y-80209999D01*
X238788571Y-80209999D01*
X239017143Y-80267142D01*
X239131429Y-80324285D01*
X239245714Y-80438571D01*
X239302857Y-80609999D01*
X239302857Y-80895714D01*
X238102857Y-79124285D02*
X238102857Y-79695714D01*
X238674286Y-79752857D01*
X238617143Y-79695714D01*
X238560000Y-79581428D01*
X238560000Y-79295714D01*
X238617143Y-79181428D01*
X238674286Y-79124285D01*
X238788571Y-79067142D01*
X239074286Y-79067142D01*
X239188571Y-79124285D01*
X239245714Y-79181428D01*
X239302857Y-79295714D01*
X239302857Y-79581428D01*
X239245714Y-79695714D01*
X239188571Y-79752857D01*
X241842857Y-80895714D02*
X240642857Y-80895714D01*
X240642857Y-80609999D01*
X240700000Y-80438571D01*
X240814286Y-80324285D01*
X240928571Y-80267142D01*
X241157143Y-80209999D01*
X241328571Y-80209999D01*
X241557143Y-80267142D01*
X241671429Y-80324285D01*
X241785714Y-80438571D01*
X241842857Y-80609999D01*
X241842857Y-80895714D01*
X241042857Y-79181428D02*
X241842857Y-79181428D01*
X240585714Y-79467142D02*
X241442857Y-79752857D01*
X241442857Y-79009999D01*
X244382857Y-80895714D02*
X243182857Y-80895714D01*
X243182857Y-80609999D01*
X243240000Y-80438571D01*
X243354286Y-80324285D01*
X243468571Y-80267142D01*
X243697143Y-80209999D01*
X243868571Y-80209999D01*
X244097143Y-80267142D01*
X244211429Y-80324285D01*
X244325714Y-80438571D01*
X244382857Y-80609999D01*
X244382857Y-80895714D01*
X243182857Y-79809999D02*
X243182857Y-79067142D01*
X243640000Y-79467142D01*
X243640000Y-79295714D01*
X243697143Y-79181428D01*
X243754286Y-79124285D01*
X243868571Y-79067142D01*
X244154286Y-79067142D01*
X244268571Y-79124285D01*
X244325714Y-79181428D01*
X244382857Y-79295714D01*
X244382857Y-79638571D01*
X244325714Y-79752857D01*
X244268571Y-79809999D01*
X246922857Y-80895714D02*
X245722857Y-80895714D01*
X245722857Y-80609999D01*
X245780000Y-80438571D01*
X245894286Y-80324285D01*
X246008571Y-80267142D01*
X246237143Y-80209999D01*
X246408571Y-80209999D01*
X246637143Y-80267142D01*
X246751429Y-80324285D01*
X246865714Y-80438571D01*
X246922857Y-80609999D01*
X246922857Y-80895714D01*
X245837143Y-79752857D02*
X245780000Y-79695714D01*
X245722857Y-79581428D01*
X245722857Y-79295714D01*
X245780000Y-79181428D01*
X245837143Y-79124285D01*
X245951429Y-79067142D01*
X246065714Y-79067142D01*
X246237143Y-79124285D01*
X246922857Y-79809999D01*
X246922857Y-79067142D01*
X249462857Y-80895714D02*
X248262857Y-80895714D01*
X248262857Y-80609999D01*
X248320000Y-80438571D01*
X248434286Y-80324285D01*
X248548571Y-80267142D01*
X248777143Y-80209999D01*
X248948571Y-80209999D01*
X249177143Y-80267142D01*
X249291429Y-80324285D01*
X249405714Y-80438571D01*
X249462857Y-80609999D01*
X249462857Y-80895714D01*
X249462857Y-79067142D02*
X249462857Y-79752857D01*
X249462857Y-79409999D02*
X248262857Y-79409999D01*
X248434286Y-79524285D01*
X248548571Y-79638571D01*
X248605714Y-79752857D01*
X240428571Y-91499999D02*
X240485714Y-91557142D01*
X240542857Y-91728571D01*
X240542857Y-91842857D01*
X240485714Y-92014285D01*
X240371429Y-92128571D01*
X240257143Y-92185714D01*
X240028571Y-92242857D01*
X239857143Y-92242857D01*
X239628571Y-92185714D01*
X239514286Y-92128571D01*
X239400000Y-92014285D01*
X239342857Y-91842857D01*
X239342857Y-91728571D01*
X239400000Y-91557142D01*
X239457143Y-91499999D01*
X239457143Y-91042857D02*
X239400000Y-90985714D01*
X239342857Y-90871428D01*
X239342857Y-90585714D01*
X239400000Y-90471428D01*
X239457143Y-90414285D01*
X239571429Y-90357142D01*
X239685714Y-90357142D01*
X239857143Y-90414285D01*
X240542857Y-91099999D01*
X240542857Y-90357142D01*
X242442857Y-92657142D02*
X243242857Y-92657142D01*
X241985714Y-92942856D02*
X242842857Y-93228571D01*
X242842857Y-92485713D01*
X242042857Y-92142856D02*
X242042857Y-91342856D01*
X243242857Y-91857142D01*
X242042857Y-90657142D02*
X242042857Y-90542857D01*
X242100000Y-90428571D01*
X242157143Y-90371428D01*
X242271429Y-90314285D01*
X242500000Y-90257142D01*
X242785714Y-90257142D01*
X243014286Y-90314285D01*
X243128571Y-90371428D01*
X243185714Y-90428571D01*
X243242857Y-90542857D01*
X243242857Y-90657142D01*
X243185714Y-90771428D01*
X243128571Y-90828571D01*
X243014286Y-90885714D01*
X242785714Y-90942857D01*
X242500000Y-90942857D01*
X242271429Y-90885714D01*
X242157143Y-90828571D01*
X242100000Y-90771428D01*
X242042857Y-90657142D01*
X242442857Y-89228571D02*
X243242857Y-89228571D01*
X242442857Y-89742857D02*
X243071429Y-89742857D01*
X243185714Y-89685714D01*
X243242857Y-89571428D01*
X243242857Y-89400000D01*
X243185714Y-89285714D01*
X243128571Y-89228571D01*
X229710001Y-110928571D02*
X229652858Y-110985714D01*
X229481429Y-111042857D01*
X229367143Y-111042857D01*
X229195715Y-110985714D01*
X229081429Y-110871429D01*
X229024286Y-110757143D01*
X228967143Y-110528571D01*
X228967143Y-110357143D01*
X229024286Y-110128571D01*
X229081429Y-110014286D01*
X229195715Y-109900000D01*
X229367143Y-109842857D01*
X229481429Y-109842857D01*
X229652858Y-109900000D01*
X229710001Y-109957143D01*
X230852858Y-111042857D02*
X230167143Y-111042857D01*
X230510001Y-111042857D02*
X230510001Y-109842857D01*
X230395715Y-110014286D01*
X230281429Y-110128571D01*
X230167143Y-110185714D01*
%LPC*%
D17*
X248960000Y-66480000D03*
D18*
X248960000Y-69020000D03*
X248960000Y-71560000D03*
D17*
X246420000Y-66480000D03*
D18*
X246420000Y-69020000D03*
X246420000Y-71560000D03*
D17*
X243880000Y-66480000D03*
D18*
X243880000Y-69020000D03*
X243880000Y-71560000D03*
D17*
X241340000Y-66480000D03*
D18*
X241340000Y-69020000D03*
X241340000Y-71560000D03*
D17*
X238800000Y-66480000D03*
D18*
X238800000Y-69020000D03*
X238800000Y-71560000D03*
D17*
X236260000Y-66480000D03*
D18*
X236260000Y-69020000D03*
X236260000Y-71560000D03*
D17*
X233720000Y-66480000D03*
D18*
X233720000Y-69020000D03*
X233720000Y-71560000D03*
D17*
X231180000Y-66480000D03*
D18*
X231180000Y-69020000D03*
X231180000Y-71560000D03*
D17*
X228640000Y-66480000D03*
D18*
X228640000Y-69020000D03*
X228640000Y-71560000D03*
D17*
X226100000Y-66480000D03*
D18*
X226100000Y-69020000D03*
X226100000Y-71560000D03*
D17*
X223560000Y-66480000D03*
D18*
X223560000Y-69020000D03*
X223560000Y-71560000D03*
D17*
X221020000Y-66480000D03*
D18*
X221020000Y-69020000D03*
X221020000Y-71560000D03*
D17*
X218480000Y-66480000D03*
D18*
X218480000Y-69020000D03*
X218480000Y-71560000D03*
D17*
X215940000Y-66480000D03*
D18*
X215940000Y-69020000D03*
X215940000Y-71560000D03*
D17*
X213400000Y-66480000D03*
D18*
X213400000Y-69020000D03*
X213400000Y-71560000D03*
D17*
X210860000Y-66480000D03*
D18*
X210860000Y-69020000D03*
X210860000Y-71560000D03*
D19*
X253430000Y-106240000D03*
D20*
X253430000Y-91000000D03*
D19*
X253430000Y-93540000D03*
X253430000Y-96080000D03*
X253430000Y-98620000D03*
X253430000Y-101160000D03*
X253430000Y-103700000D03*
X206570000Y-106240000D03*
D20*
X206570000Y-91000000D03*
D19*
X206570000Y-93540000D03*
X206570000Y-96080000D03*
X206570000Y-98620000D03*
X206570000Y-101160000D03*
X206570000Y-103700000D03*
D21*
X235000000Y-85540000D03*
X235000000Y-80460000D03*
X252770000Y-72068000D03*
X252770000Y-66988000D03*
D22*
X246420000Y-97595000D03*
X243880000Y-97595000D03*
X241340000Y-97595000D03*
X238800000Y-97595000D03*
X236260000Y-97595000D03*
X233720000Y-97595000D03*
X231180000Y-97595000D03*
X228640000Y-97595000D03*
X226100000Y-97595000D03*
X223560000Y-97595000D03*
X221020000Y-97595000D03*
X218480000Y-97595000D03*
X215940000Y-97595000D03*
X213400000Y-97595000D03*
X213400000Y-105215000D03*
X215940000Y-105215000D03*
X218480000Y-105215000D03*
X221020000Y-105215000D03*
X223560000Y-105215000D03*
X226100000Y-105215000D03*
X228640000Y-105215000D03*
X231180000Y-105215000D03*
X233720000Y-105215000D03*
X236260000Y-105215000D03*
X238800000Y-105215000D03*
X241340000Y-105215000D03*
X243880000Y-105215000D03*
X246420000Y-105215000D03*
D23*
X226588000Y-108390000D03*
X224088000Y-108390000D03*
D24*
X209365000Y-85000000D03*
X208095000Y-85000000D03*
D25*
X210635000Y-85000000D03*
D24*
X211905000Y-85000000D03*
X219365000Y-85000000D03*
X218095000Y-85000000D03*
D25*
X220635000Y-85000000D03*
D24*
X221905000Y-85000000D03*
X229365000Y-85000000D03*
X228095000Y-85000000D03*
D25*
X230635000Y-85000000D03*
D24*
X231905000Y-85000000D03*
X239365000Y-85000000D03*
X238095000Y-85000000D03*
D25*
X240635000Y-85000000D03*
D24*
X241905000Y-85000000D03*
X249365000Y-85000000D03*
X248095000Y-85000000D03*
D25*
X250635000Y-85000000D03*
D24*
X251905000Y-85000000D03*
D23*
X210820000Y-74950000D03*
X210820000Y-77450000D03*
X213360000Y-74950000D03*
X213360000Y-77450000D03*
X215900000Y-74950000D03*
X215900000Y-77450000D03*
X218440000Y-74950000D03*
X218440000Y-77450000D03*
X220980000Y-74950000D03*
X220980000Y-77450000D03*
X223520000Y-74950000D03*
X223520000Y-77450000D03*
X226060000Y-74950000D03*
X226060000Y-77450000D03*
X228600000Y-74950000D03*
X228600000Y-77450000D03*
X231140000Y-74950000D03*
X231140000Y-77450000D03*
X233680000Y-74950000D03*
X233680000Y-77450000D03*
X236220000Y-74950000D03*
X236220000Y-77450000D03*
X238760000Y-74950000D03*
X238760000Y-77450000D03*
X241300000Y-74950000D03*
X241300000Y-77450000D03*
X243840000Y-74950000D03*
X243840000Y-77450000D03*
X246380000Y-74950000D03*
X246380000Y-77450000D03*
X248920000Y-74950000D03*
X248920000Y-77450000D03*
D26*
X245150000Y-89495000D03*
X245150000Y-92995000D03*
D23*
X228660000Y-108390000D03*
X231160000Y-108390000D03*
D27*
X207500000Y-111500000D03*
X252500000Y-111500000D03*
X207500000Y-66500000D03*
X253000000Y-77000000D03*
M02*
